<svg xmlns="http://www.w3.org/2000/svg" width="257" height="249" viewBox="0 0 257 249"><path d="m128.2 2-.2.1-.2.1v.1h-.4v.4q0 .3-.2.2v3.8l-.1 8-.1 8v.2h-.2v.2h-.2v.1l-.1.1h-.1v.1l-.1.1h-.1v.1l-.1.1h-.1l-.1.1-.2.1-.1.1v.1h-.1l-.1.1v.1h-.1v.1l-.2.1v.1l-.2.1-.2.1-.2.2-.2.2-.1.2h-.1l-.2.2h-.1v.2h-.3v.1l-.1.1h-.1v.1l-.1.1h-.1l-.1.1-.2.1-.1.1v.1h-.1l-.1.1v.1h-.1v.1l-.2.1v.1l-.2.1h-.2v.3h-.2l-.2.2-.1.2h-.1l-.2.2h-.1v.2h-.3v.1l-.1.1h-.1v.1l-.1.1h-.1v.1l-.1.1h-.3v.3h-.1l-.2.1v.1l-.2.1v.1l-.2.1v.1h-.2l-.2.2-.1.2h-.1l-.1.2h-.1l-.1.2h-.2l-.2.1v.1h-.1v.1l-.1.1h-.1v.1l-.1.1h-.1v.1l-.1.1h-.1v.1l-.1.1h-.1l-.1.1-.2.1v.1l-.2.1v.1l-.2.1-.2.1-.1.2h-.1l-.1.2h-.1l-.1.2h-.1l-.2.2h-.2v.1l-.1.1h-.1l-.1.1h-.2v.3h-.2l-.1.1v.1h-.1v.1l-.2.1v.1l-.2.1v.1l-.2.1h-.2v.2h-.2v.1l-.1.2h-.1l-.1.2h-.1l-.1.2h-.3v.2h-.2v.1l-.1.1h-.1v.1l-.1.1h-.1v.1l-.2.1h-.1l-.1.1v.1h-.1v.1l-.2.1v.1l-.2.1-.2.1v.1h-.2v.2h-.2v.1h-.3v.4h-.3v.2h-.2v.2h-.4v.3h-.1l-.2.1-.1.1v.1h-.1l-.1.1v.1h-.1v.1l-.2.1h-.2v.3h-.2v.1h-.2v.2h-.1l-.1.1-.1.2h-.1l-.2.2h-.2v.2h-.2v.2h-.2v.1l-.1.1h-.1v.1l-.1.1h-.2l-.1.1v.1h-.1v.1l-.2.1v.1l-.2.1v.1l-.2.1v.1l-.2.1v.1l-.2.1v.2l-.1.1h-.1v.2l-.1.5v.6q0 .3.2.2v.2l.1.1h.1v.1l.2.1h.1l.2.1.1.1h1.8l1.8.1.1 7.4v7.3l-.1 2v2l.1 12.1v12.2h-.1l-.1.1c0 .2 0 .2-11.6.2H85.1v-.2l.1-.1.1-.1.1-.1h.1l.2-.1v-.1h.1l.1-.1.2-.1.1-.1V87h.1l.1-.1v-.1h.1l.1-.1v-.1h.1l.1-.1.1-.2h.2V86h.2v-.2h.2v-.2h.2v-.2h.1l.1-.2v-.1l.1-.1h.1v-.2l.1-.1.1-.1.1-.2.1-.1v-.1h.1l.1-.2h.1l.1-.2.1-.2.1-.2.1-.2.1-.1v-.2l.1-.1.1-.1v-.2l.1-.2v-.2h.2v-.3q0-.3.2-.2v-.3q.2 0 .2-.2V81q0-.2.2-.2V80l.2-.1v-.4l.1-.3.1-.2v-.3l.1-.3.1-.2v-.3l.1-.4.1-.2V77l.1-.5.1-.6v-.2l.1-.3.1-.7V74l.1-.4.1-.4V62.3l-.1-1.2-.1-1.5v-1.4l-.1-.4v-.4q-.3.1-.2-.5v-.7q0-.3-.2-.3v-.6q-.3 0-.2-.3v-.6q0-.2-.2-.2v-.6l-.1-.2-.1-.2v-.3l-.1-.2-.1-.2v-.1l-.1-.6v-.6h.2V51h.2v-.2h.1l.1-.1v-.1h.1l.1-.1v-.1h.1l.1-.1v-.1h.1l.1-.1V50h.1l.1-.1v-.1h.1l.1-.1v-.2l.1-.1h.1v-.1l.1-.1h.1v-.1l.1-.1.2-.2.2-.2v-.2q0-.2.2-.2v-.3l.2-.1v-.3l.2-.1v-.5l.1-.2.1-.1v-.3l.1-.4.1-.1v-.2l.1-1.9v-2.1q0-.3-.2-.3v-.6l-.2-.1v-.4l-.1-.2-.1-.1v-.1l-.1-.2-.1-.2v-.2l-.1-.1h-.1V39l-.1-.2h-.1v-.2l-.1-.2h-.1v-.2H92v-.4l-.1-.1-.1-.2-.1-.1h-.1v-.1l-.1-.1q-.2 0-.2-.2v-.1l-.2-.1-.2-.1v-.1l-.2-.1v-.2h-.2V36h-.2l-.1-.2H90l-.1-.1-.1-.1h-.2l-.1-.1-.1-.1h-.2l-.1-.1v-.1H89l-.2-.1-.2-.1h-.2l-.3-.1H88l-.1-.1-.1-.1h-.3l-.3-.1-.5-.1h-.5l-.2.1-.2.1h-.2v.1h-.2l-.2.2-.2.2-.1.2h-.3v.2h-.2v.1l-.1.1H84l-.1.1-.2.1-.1.1-.1.1h-.2l-.1.1-.1.1H83v.1l-.2.1h-.2l-.2.1-.2.1h-.1l-.2.1-.3.1h-.3l-.5.1-.5.1h-4.1l-.7-.1-.2-.1H75l-.6-.1-.6-.1h-.4l-.4-.1-.4-.1h-.4l-1.6-.1h-1.7q0-.2-.2-.2l-.3.1h-1.2l-1.3.1-.4.1h-.4l-.3.1-.3.1H64l-.3.1-.2.1h-.2l-.3.1-.2.1h-.2v.1h-.3q-.4 0-.3.2 0 .3-.3.2h-.3l-.1.2h-.4v.2h-.3l-.2.1v.1h-.2v.1l-.2.1h-.2v.1l-.1.1h-.1v.1l-.1.1h-.2l-.1.1v.1H59l-.2.1-.1.1-.1.1-.1.1-.2.1h-.1v.3H58v.1h-.1v.2h-.2v.2h-.2v.2h-.2v.2l-.2.1v.1l-.2.1v.2l-.1.2h-.1v.1l-.1.1-.1.2-.1.1-.1.1v.2H56v.3l-.1.2-.1.1v.2h-.1l-.1.2v.2l-.1.2-.1.1v.2l-.1.2-.1.2-.1.1H55v.1l-.1.1h-.2v.1h-.2v.2h-.2l-.2.2H54q-.3 0-.2.2h-.1q0 .2-.2.2h-.1l-.1.1-.2.1H53v.1l-.1.1h-.1v.1l-.1.1h-.1l-.1.1h-.2v.3h-.2v.3h-.2v.1l-.2.1v.1l-.2.1v.2l-.2.2-.1.2-.1.2-.1.2-.1.2v.2h-.1l-.1.1v.2l-.1.2-.1.2v.1l-.1.3-.1.2v.2h-.1l-.1.5v.4l-.1.2-.1.2v.7l-.1.7-.1.7v.8l.1.8.1.9v.2l.1.3.1.5v.6l.1.2v.2q.3 0 .2.3v.6q0 .3.2.2v.7l.2.1v.5q0 .4.2.3v.3q.2 0 .2.2v.5l.1.2.1.3v.2l.1.2.1.2v.2h.1l.1.3v.2h.1l.1.1v.3l.1.2.1.2v.1l-.1.1v.2h-.2v.2l-.2.2-.2.2v.2h-.2v.3l-.1.2-.1.1v.1l-.1.2-.1.2v.2l-.1.2-.1.2v.6l-.1.5-.1.3v.3l.1.7v.7q.2 0 .2.2v.5q0 .3.2.2v.3l.2.1v.3l.1.1.1.2.1.2.1.2h.1l.1.2v.2h.2v.3h.3v.2l.1.1.1.1.1.1.1.1.1.1.1.1.1.1.1.1v.1h.2v.2h.2v.1h.2v.2h.2l.1.2h.2l.1.2h.3v.2h.3q.3 0 .2.2h.1l.2.1.2.1h.2l.2.1.2.1h.2l.3.1.2.1h.2l.1.1v.1h.1l.1.1v.1h.1l.1.2v.1l.1.2h.1v.2h.1l.1.2v.2h.1l.1.2v.2l.1.1.1.1.1.3.1.2.1.1v.2q0 .3.2.2v.1q.3 0 .2.2v.4h.2v.4h.2v.4q0 .3.2.2v.5l.1.2.1.2V85l-.1.7v.4l-.1.5h-.1v.1h-.1l-.1.1v.1h-.1l-.1.1v.1H59l-.1.1v.1h-.2l-.1.1h-.1v.2h-.2v.2H58l-.1.2h-.1v.2H46a150 150 0 0 0-12.6.4l-.1.1-.1.1-.1.1-.1.2v.1l-.1.1v.2l-.1.1h-.1v.1l-.1.2h-.1v.2h-.1v.2h-.2v.2q-.2 0-.2.2v.2l-.2.1v.1l-.2.2v.3l-.1.1-.1.1v.2h-.1l-.1.1v.1l-.1.2H31l-.1.3-.1.2-.1.1-.1.2v.2h-.1l-.1.1v.2l-.1.1h-.1v.1l-.1.2-.1.1v.1l-.1.2-.1.1v.1l-.1.2-.2.2v.2h-.2v.4H29v.2l-.2.1v.3h-.2v.3l-.1.2-.1.1-.1.2-.1.1v.2h-.1l-.1.2-.1.2h-.1v.2l-.1.2h-.1v.2l-.1.1-.1.2v.1l-.1.1-.1.1-.1.2-.1.1v.4l-.2.2-.2.2v.2h-.2v.4h-.2v.3q0 .3-.2.2v.1l-.1.1-.1.2v.1l-.1.1-.1.2v.1l-.1.1-.1.2h-.1l-.1.2v.2H25l-.1.2v.2h-.1l-.1.2-.1.1-.1.2-.1.1-.1.2v.2h-.1l-.1.1v.2l-.1.1-.2.1v.2l-.2.2v.2q0 .3-.2.2v.2l-.2.2v.1q0 .3-.2.2v.2l-.1.2-.1.1-.1.1-.1.2v.2l-.1.1h-.1v.2l-.1.1h-.1v.2h-.1l-.1.2v.2l-.1.2v.1l-.1.2-.1.1-.1.1-.1.2v.1h-.1l-.1.1v.2l-.1.2v.1H21v.3h-.2v.4q0 .2-.2.2l-.2.2v.2h-.1l-.1.3v.2H20l-.1.1v.1l-.1.2-.1.1v.1l-.1.1h-.1v.2l-.1.1-.1.2-.1.2-.1.2H19l-.1.2v.1l-.1.1h-.1v.3l-.1.2h-.1v.1l-.1.1v.2h-.2v.2l-.2.2v.2q-.2 0-.2.2v.2h-.2v.2l-.2.2v.3l-.1.1-.1.1v.2h-.1l-.1.1v.2l-.1.2h-.1v.1l-.1.2-.1.2v1.2l.1.1v.1h.2v.2h.2v.1l.2.1h.2l.2.1 2.7.1h2.7v.1l.1.1h.1v55.4a218 218 0 0 0 .2 16v2l-.1.4v.3h-.2v.1H23l-.2.1-.4.1h-.5l-.2.1-.2.1h-.4l-.4.1-.3.1H20l-.3.1-.3.1H19l-.4.1h-.2q-.4 0-.3.2h-.7q0 .2-.2.2h-.7q-.4 0-.4.2H16q.1.2-.5.2h-.7l-.1.1-.4.1h-.4l-.2.1-.1.1h-.4l-.4.1-.3.1h-.2l-.4.1-.3.1h-.2l-.3.1-.3.1h-.2l-.4.1-.3.1h-.2l-.2.1-.3.1h-.3l-.2.1-.1.1h-.4l-.4.1h-.2q-.3 0-.2.2h-.8l-.1.2H6q-.4 0-.3.2h-.4q0 .2-.3.2h-.5l-.1.1-.4.1h-.3l-.2.1-.2.1h-.1l-.1.1-.2.1h-.1v.1l-.1.1h-.2l-.1.1v.1l-.1.1v.2H2v1.3h.3v.1h.1v.1l.1.1.2.1.2.1H3l.4.1h.8q.4 0 .3-.2H5q-.1-.2.4-.2h.5q.3 0 .2-.2h.5l.3-.1.4-.1h.2l.2-.1.3-.1h.3l.2-.1.2-.1h.4l.4-.1.1-.1h.2l.4-.1.4-.1h.2l.2-.1.4-.1h.4l.1-.1.2-.1h.4l.4-.1h.2q.2 0 .2-.2h.7q0-.2.3-.2h.5q.5 0 .4-.2h.6q0-.2.3-.2h.6q.4 0 .3-.2h.5l.4-.1.4-.1h.2l.2-.1.4-.1h.4l.2-.1.2-.1h.4l.4-.1.3-.1h.2l.4-.1.4-.1h.3l.3-.1.3-.1h.3l.3-.1.4-.1h.2l.3-.1h.4q.5 0 .4-.2h.4q-.1-.2.4-.2h.7q.2 0 .2-.2h.9q0-.2.3-.2h.8q.6 0 .5-.2h.4l.5-.1.6-.1h.2l.3-.1.4-.1h.5l.3-.1.2-.1h.6l.5-.1.4-.1h.4l.4-.1.4-.1h.4l.4-.1.3-.1h.3l.5-.1.4-.1h.4l.3-.1h.6q.8 0 .6-.2h.5q-.1-.2.6-.2h.9q.3 0 .2-.2h1.3q0-.2.3-.2h.8q.6 0 .5-.2h.4v.1c.2 0 .2 0 .2 5.3l-.1 5.2v2.6l-.1 2.6-.1 1.7v1.8l-.1 4.1-.1 4v2.5l-.1 2.5-.1 3v3l.1 1v1.1q.3-.2.2.6v.6l.2.1v.4h.2v.2h.2v.3l.1.1h.2l.1.1v.1l.1 1.5v4.4l.1.4v.2h.1l.1.2v.2h.2v.3h.3v.3h.3l.1.1.2.1.2.1.2.1h.2l.2.1.2.1h.3l.2.1.2.1h.2l.4.1.4.1h.2l.2.1h.4q.5 0 .4.2h.4q0 .2.3.2h.5l.1.2h.7q0 .2.2.2h.5l.3.1.2.1h.2l.4.1.3.1h.3l.2.1.3.1h.3l.3.1.3.1h.3l.2.1.4.1h.4l4.4.1h4.9q.4 0 .3-.2h.4q0-.2.2-.2h.4l.1-.2h.1q0-.2.2-.2h.1l.1-.2h.1l.1-.1v-.1h.2v-.3l.2-.1v-2.4l-.1-.2v-.2l-.1-.2H70v-.1l-.1-.1-.1-.2h-.1l-.1-.2v-.2h-.2v-.2h-.2v-.2H69q-.3 0-.2-.2v-.2h-.2v-.1l-.2-.1-.2-.1v-.1l-.2-.1v-.1l-.1-.1-.1-.1-.1-.1-.2-.1h-.1v-.1l-.1-.1h-.2l-.1-.1-.1-.2h-.1q0-.2-.2-.2h-.2v-.2h-.2l-.1-.2H66q-.3 0-.2-.2h-.2v-.1l-.2-.1-.2-.1v-.1H65v-.1l-.1-.1h-.2l-.1-.1v-.1h-.1l-.2-.1-.1-.1h-.1l-.2-.1-.1-.1h-.1l-.1-.1v-.1h-.1v-.1h-.2v-.2H63v-.2q0-.2-.2-.2v-.2h.1l.1-.2.1-.1v-.1h.1l.1-.2v-.1l.1-.2.1-.1v-.3l.1-.2.1-.2v-.2l.1-.4.1-.4v-.3l.1-.4.1-.6v-.7l.1-.3v-.3c.2 0 .2 0 .2-1v-1.3q0-.5.2-.4v-1.6q.3.1.2-.5v-1.2q0-.7.2-.6v-.9q.2.1.2-.6v-1l.1-.6.1-.4v-.5l.1-.6.1-.7v-.3l.1-.3.1-.6v-.6l.1-.4.1-.3v-.6l.1-.7.1-.3v-.4l.1-.6.1-.7v-.2l.1-.3.1-.7v-.6l.1-.4.1-.3v-.6l.1-.6v-.4q0-.4.2-.4v-.9q.3.1.2-.4v-1q0-.5.2-.4v-1.1q.3 0 .2-.3v-.9q0-.7.2-.6v-.5l.1-.6.1-.6v-.3l.1-.2.1-.6v-.6l.1-.3.1-.3v-.6l.1-.5.1-.4v-.3l.1-.5.1-.4v-.4l.1-.3.1-.4v-.5l.1-.5.1-.4v-.4l.1-.3.1-.3v-.3h.1l.1.2v.8l.1.8v.5q0 .7.2.6v2.3q.3-.1.2.6v1.7c0 1.3 0 1.3.2 1.3v1.2c.2 0 .2 0 .2 1.5v2.5l.1 1 .1 3v2.9l.1 1.4.1 1.5v2.5l.1 2.6.1 2.7v2.7l.1.9.1.8v1.6l.1 1.6.1.6v.6l.1.5.1.5v.1l.1.2.1.2v.2h.1l.1.1v.3h.3v.2h.2l.2.2q.3 0 .2.6l-.1.5v.8l-.1.8-.1.3v.2l.1 1.2v1q.3 0 .2.3v.4q0 .2.2.2v.1l.2.1v.2l.2.1h.1l.1.1v.1h.2l.1.1h.2q.3 0 .2.2h.3q-.1.2.4.2h.7q.3 0 .2.2h1.1q0 .2.3.2h.9l.6.1.2.1h.2l.7.1.8.1h.4l.4.1.9.1h.9l.6.1.6.1h.8l.9.1 1.1.1h1.1l3.7.1h4.2q.7 0 .6-.2h.6q0-.2.3-.2h.5l.2-.2h.2l.1-.2h.2l.1-.2h.1l.1-.1v-.2l.1-.1h.1v-.1l.1-.4.1-.4v-1.2l-.1-.4v-.1q0-.2-.2-.2v-.2l-.2-.1v-.2l-.2-.1v-.1q-.2 0-.2-.2v-.1l-.2-.2-.1-.2h-.1l-.2-.2h-.2v-.2h-.2v-.1l-.1-.1v-.1l-.2-.1h-.1l-.1-.1v-.1h-.2l-.1-.1-.1-.1-.3-.1-.2-.1v-.1l-.3-.1h-.2v-.1l-.1-.1h-.2l-.2-.1-.1-.2h-.3l-.1-.2h-.4l-.2-.2h-.2q0-.2-.2-.2h-.3q-.3 0-.2-.2h-.3l-.1-.1-.2-.1H93v-.1l-.3-.1h-.3v-.1l-.1-.1H92l-.3-.1v-.1h-.1l-.2-.1-.2-.1h-.1l-.2-.1v-.1h-.2v-.1l-.1-.1h-.2l-.1-.1-.1-.2H90l-.1-.2-.1-.2v-.3h.1v-.1q.2 0 .2-.3v-.4q0-.2.2-.2v-3.6c.2 0 .2 0 .2-1.4V223l.1-2.8.1-1.4v-1.4l.1-1.9.1-1.9V212l.1-1.7.1-1.2v-1.2l.1-1.5.1-1.5v-1.4l.1-1.3.1-2v-2l.1-.9.1-1v-2l.1-2 .1-.9v-.7l.1-.2v-.1h.8l1-.1 1.1-.1h.7l.6-.1 1.8-.1h1.8l1-.1.9-.1h2.5l2.6-.1 1.2-.1h1.3l3.7-.1 3.7-.1h2.9l2.9-.1h17.2l4.6.1h4l3.8.1 1 .1h1.1l2 .1 1.8.1h.3v2l.1 2.3.1 2.2v1.4l.1 1.4.1 2.3v2.4l.1 1.1.1 1.1v2l.1 2.1.1 1v1.1l.1 2.7.1 2.6v1l.1 1 .1 3v2.9l.1 2 .1 2.2v1.4l.1 1.4v.2l.2.2v.2q.3 0 .2.2v.2l.2.1v.3h-.1v.1l-.1.1h-.1v.1l-.2.1h-.1l-.1.1v.1h-.2l-.1.1-.2.1h-.1v.1l-.1.1h-.3l-.3.1v.2h-.5v.2h-.4q-.2 0-.2.2h-.1q0 .2-.3.2h-.3l-.1.1-.2.1h-.1l-.2.1-.2.1h-.1l-.2.1-.2.1h-.2v.1l-.2.1h-.1l-.2.1-.1.1h-.1l-.2.1-.1.1h-.1l-.2.1-.1.1h-.1l-.1.1v.1h-.2l-.1.1-.2.2h-.2q0 .2-.2.2h-.2v.2h-.1q0 .2-.2.2h-.1l-.1.1-.1.1-.1.1-.1.1-.1.1-.1.1-.1.1-.1.1-.1.1-.1.1-.1.1-.1.1-.1.2-.1.1v.1h-.1v.2l-.2.1v.4q-.2 0-.2.3v1.2l.1.4v.2l.1.2h.1l.1.2.1.2h.2l.1.1.1.1.3.1.2.1v.1l.4.1h.2l.2.1.2.1h.3l.2.1.6.1h.6l3.8.1h4.7c.9 0 .9-.1.9-.2h1.7q-.2-.2.7-.2h1.5q.9 0 .7-.2h.8c0-.1 0-.2.8-.2h1.1q.4 0 .3-.2h1.1l.3-.1.3-.1h.6l.6-.1.2-.1h.2l.4-.1.4-.1h.1l.2-.1.2-.1h.2v-.1l.1-.1h.1l.2-.1v-.1h.1v-.1l.1-.1q.3 0 .2-.2v-.1l.2-.2v-.6c.2 0 .2 0 .2-2l-.1-2v-1.4l.1-.1v-.1h.2v-.2h.2v-.1h.2v-.3h.1l.1-.1v-.1h.1l.1-.3v-.3l.1-.4.1-.4v-1.3l.1-1.3.1-.7v-.6l.1-1.9.1-1.8v-1l.1-.9.1-2.7v-2.6l.1-1 .1-1v-2.8l.1-2.7v-1.1c0-1 0-1 .2-1V205c.2 0 .2 0 .2-1.2v-2.4c0-1.2 0-1.2.2-1.2v-2c.2 0 .2 0 .2-1v-1.9c0-1 0-1 .2-1V193l.1-.4v-.3h.3v1.2l.1.2.1.2v.5l.1.5.1.3v.3l.1.5.1.5v.3l.1.4.1.4v.5l.1.4.1.4v.4l.1.4.1.4v.4l.1.3.1.4v.5l.1.5v.3q0 .4.2.3v1.2q.3 0 .2.3v1q0 .6.2.5v.6q.3-.2.2.7v1q0 .2.2.2v1.5l.1.3.1.2v.5l.1.6.1.4v.5l.1.6.1.6v.4l.1.5.1.5v.4l.1.7.1.6v.4l.1.3.1.8v.8l.1.3.1.3v.8l.1.7.1.3v.3l.1.8.1.8v.4l.1.4v.8q0 1 .2.8v.8q.2-.2.2.7v1.2q0 .5.2.4v1.2q.2-.1.2.6v.9l.1.4.1.5v.5l.1.3.1.4v.3l.1.3.1.2v.1l.1.3.1.2.1.2.1.2v.2h.2v.1l.1.1.1.3v.2l-.1.1h-.2v.1l-.2.1v.1l-.2.1-.2.1-.2.1v.3h-.5l-.1.2h-.3v.2h-.1l-.1.2h-.3v.2h-.3l-.1.1v.1h-.1l-.2.1v.1h-.2v.1l-.2.1-.2.1v.1h-.2v.1l-.2.1h-.1l-.1.1v.1h-.1l-.1.1-.1.1h-.2v.1l-.1.1-.1.1h-.2l-.1.2h-.1l-.1.2h-.1l-.1.2h-.1v.2h-.2v.1l-.2.1v.1l-.2.1v.2l-.2.1v.1l-.2.2v.2h-.1l-.1.3v.2h-.1l-.1.2v.2l-.1.2-.1.4v.4l-.1.3v.6q0 .4.2.3v.3h.2v.2l.2.2.1.1.1.1.1.1.1.1h.1l.2.1.1.1h.1l.2.1.2.1h.2l.2.1.5.1h.5l4.2.1h5q.8 0 .6-.2h.4q-.1-.2.4-.2h.6q.3 0 .2-.2h.4q0-.2.3-.2h.6q.2 0 .2-.2h.6l.2-.1.2-.1h.4l.3-.1.1-.1h.1l.4-.1.4-.1h.2l.2-.1.4-.1h.4l.2-.1.2-.1h.3l.4-.1.2-.1h.2l.2-.1.3-.1h.2l.2-.1h.2q.3 0 .2-.2h.3v-.2h.2l.1-.2h.1l.1-.2h.1l.1-.2h.1l.1-.1.1-.2v-.1l.1-.2.1-.2v-.7l.1-.8.1-.4v-.5l-.1-1.3-.1-1.3v-1.1h.1l.1-.2.1-.2h.3v-.3l.1-.1q.3 0 .2-.3v-.4l.2-.2v-1.3c.2 0 .2 0 .2-6l-.1-6v-4l-.1-4.1-.1-1.5v-1.4l-.1-3-.1-3v-11.9h1.1l.5.1h.6q-.1.2.5.2h1q.8 0 .6.2h.9q-.1.2.5.2h.9l.3.1.7.1h.6l.3.1.3.1h.7l.7.1.3.1h.2l.7.1.7.1h.2l.3.1.5.1h.5l.4.1.3.1h.5l.5.1.4.1h.3l.4.1.4.1h.4l.4.1h.4q.5 0 .4.2h.8q0 .2.2.2h.8q.6 0 .5.2h.6q-.1.2.5.2h.7l.2.1.6.1h.5l.2.1.2.1h.4l.5.1.3.1h.2l.4.1.4.1h.3l.2.1.4.1h.4l.4.1.3.1h.3l.3.1.4.1h.3l.3.1.2.1h.4l.4.1h.2q.3 0 .2.2h.9q0 .2.2.2h.6q.5 0 .4.2h.4q-.1.2.4.2h.6l.2.1.4.1h.4l.2.1.2.1h.4l.4.1.3.1h.2l.3.1.2.1h.4l.3.1.2.1h.2l.3.1.4.1h.2l.1.1.4.1h.4l.2.1.2.1h.4l.3.1h.3q.3 0 .2.2h.7q0 .2.2.2h.5q.4 0 .3.2h.6q0 .2.2.2h.6l.2.1.2.1h.2l.4.1.4.1h.2l.2.1.3.1h.2l.2.1.2.1h.7l.1-.1h.1l.2-.2h.2l.1-.2h.1l.1-.9v-.8h-.2v-.2h-.3v-.2h-.2q-.2 0-.2-.2h-.4q0-.2-.3-.2h-.5q-.3 0-.3-.2h-.2l-.4-.1-.3-.1h-.2l-.2-.1-.3-.1h-.3l-.2-.1-.1-.1h-.3l-.4-.1-.2-.1h-.2l-.3-.1-.3-.1h-.2l-.2-.1-.3-.1h-.2l-.4-.1-.3-.1h-.3l-.2-.1h-.3q-.3 0-.3-.2h-.5q.1-.2-.4-.2h-.6l-.2-.2h-.8l-.1-.2h-.5q-.5 0-.4-.2h-.4l-.4-.1-.4-.1h-.2l-.2-.1-.4-.1h-.4l-.2-.1-.2-.1h-.4l-.4-.1-.2-.1h-.3l-.3-.1-.4-.1h-.3l-.3-.1-.3-.1h-.4l-.3-.1-.3-.1h-.3l-.3-.1h-.4q-.4 0-.4-.2h-.4l-.1-.2h-.2V144c0-24.3 0-24.4.2-24.4l2.7-.1h2.6l.3-.1.2-.1h.1l.2-.1v-.1h.1v-.1h.1l.1-.2h.1l.1-.3v-.2l.1-.2v-.4q0-.3-.2-.2v-.4h-.2v-.3q0-.3-.2-.2v-.1q-.2 0-.2-.2v-.2l-.2-.2v-.2l-.1-.1-.1-.2v-.1l-.1-.1-.1-.1-.1-.2-.1-.1v-.2l-.1-.1h-.1v-.1l-.1-.2-.1-.1v-.1l-.1-.2h-.1v-.2h-.1l-.1-.2v-.2l-.1-.1-.1-.1-.1-.2-.1-.1v-.1h-.1v-.2l-.2-.1v-.3h-.2v-.3l-.2-.1v-.3h-.2v-.2l-.2-.2v-.2l-.1-.1-.1-.2v-.1l-.1-.1-.1-.1-.1-.3-.1-.2-.1-.1-.1-.1v-.2l-.1-.1-.1-.1-.1-.2h-.1v-.2l-.1-.2h-.1v-.2h-.1l-.1-.1v-.2l-.1-.1-.1-.1v-.1h-.1v-.2l-.2-.1v-.3l-.2-.1v-.2l-.2-.1v-.4h-.2v-.3h-.1l-.1-.2v-.1l-.1-.2-.1-.1-.1-.1-.1-.2v-.1l-.1-.1-.1-.2-.1-.1-.1-.1v-.2l-.1-.1-.1-.1v-.2h-.1l-.1-.2v-.2h-.1l-.1-.2-.1-.1-.1-.2v-.2l-.1-.1q-.2 0-.2-.2v-.2h-.2v-.3q-.2 0-.2-.2v-.2l-.2-.2-.2-.2v-.2l-.1-.2h-.1v-.1l-.1-.2-.1-.1-.1-.1-.1-.2v-.2l-.1-.1h-.1v-.2l-.1-.1-.1-.1-.1-.2-.1-.1v-.2h-.1l-.1-.2v-.2h-.2v-.2l-.1-.1v-.2l-.2-.1v-.3l-.2-.1v-.2h-.2v-.5h-.2v-.2l-.2-.2-.1-.3-.1-.2-.1-.1-.1-.2v-.2h-.1l-.1-.1V95l-.1-.1-.1-.1v-.2h-.1l-.1-.1v-.1l-.1-.2-.1-.1V94l-.1-.2h-.1v-.2h-.1l-.1-.2-.1-.2h-.1V93l-.1-.2-.2-.1v-.3h-.2V92l-.2-.1v-.3l-.2-.1v-.1l-.2-.2V91l-.1-.2h-.1v-.2l-.1-.1-.1-.2v-.1h-.1l-.1-.1V90l-.1-.1h-.1v-.1l-.1-.2-.1-.1-.1-.1-.1-.2v-.1h-.1l-.1-.1v-.2h-.2l-.1-.2h-.1q0-.2-.2-.2h-.3q-.2 0-.2-.2h-33.8v-.7l.1-.2v-.1h.1l.1-.2v-.1l.1-.1h.1v-.2l.1-.1h.1v-.2h.1l.1-.2.1-.2h.1l.1-.3.1-.2.1-.1.1-.2v-.2h.1v-.1q.3 0 .2-.3v-.3h.2l.4-.1h.4l.3-.1h.2q-.1-.2.4-.2h.5q.3 0 .2-.2h.4v-.2h.3q.3 0 .2-.2h.1l.2-.1.2-.1h.1v-.1l.2-.1h.1l.1-.1v-.1h.1l.1-.1v-.1h.1l.1-.1v-.1h.1l.1-.1V82h.1l.1-.1v-.1h.1v-.1l.2-.1v-.1h.2v-.2q0-.2.2-.2v-.2h.2v-.2l.2-.1v-.3l.1-.1.1-.2.1-.1.1-.2v-.1l.1-.2.1-.2V79l.1-.2.1-.2v-.2l.1-.5.1-.5v-2.1l-.1-.4v-.2l-.2-.1v-.4l-.2-.1v-.2q0-.2-.2-.2v-.2h-.2V73l-.1-.2-.1-.1v-.1l-.1-.2V72q0-.2.2-.2v-.4l.1-.2.1-.2v-.2l.1-.2.1-.2v-.2l.1-.1.1-.2v-.2l.1-.3.1-.1v-.2l.1-.3.1-.3v-.2h.1l.1-.3v-.3l.1-.2.1-.2V67l.1-.2.1-.2v-.2l.1-.4v-.3q.3 0 .2-.2V65q0-.4.2-.4V64q.3.2.2-.6v-1.1q0-.7.2-.6V58l-.1-.4v-.4l-.1-.3-.1-.3v-.2l-.1-.2-.1-.2v-.2l-.1-.1-.1-.2v-.2l-.1-.2h-.1V55l-.1-.1-.1-.2-.1-.1-.1-.1v-.2h-.1l-.1-.1V54l-.1-.2h-.2v-.2q-.2 0-.2-.2v-.1l-.2-.1V53l-.2-.1v-.2l-.1-.1-.1-.1-.1-.1-.1-.1-.1-.1-.1-.2h-.3v-.1l-.1-.1-.1-.1-.1-.1-.1-.1h-.1v-.2h-.3l-.1-.2h-.1v-.2h-.2l-.2-.1v-.1h-.2v-.2h-.2l-.2-.1v-.1h-.2v-.1l-.1-.1h-.2l-.1-.1v-.1h-.1l-.2-.1-.1-.1-.1-.1-.2-.1h-.1l-.1-.1-.2-.1h-.1l-.1-.1V49h-.4q0-.2-.2-.2h-.2v-.2h-.2l-.2-.2h-.3l-.1-.1v-.1h-.1l-.2-.1-.1-.1h-.1l-.2-.1-.1-.1h-.1l-.1-.1v-.1h-.3l-.2-.1v-.1l-.3-.1-.2-.1-.1-.1-.1-.1h-.2l-.1-.1-.1-.1h-.2l-.1-.1-.1-.1h-.2l-.1-.1h-.1q0-.2-.2-.2h-.3V46h-.5v-.2h-.4l-.2-.1-.1-.1h-.2l-.2-.1-.3-.1-.1-.1-.3-.1h-.3l-.1-.1-.1-.1h-.2l-.2-.1-.2-.1-.3-.1-.2-.1h-.2l-.2-.1-.2-.1h-.2l-.2-.1-.3-.1h-.1l-.2-.1-.4-.1h-.6q0-.2-.3-.2h-.6q-.2 0-.2-.2h-.8q0-.2-.3-.2h-.9l-.6-.1-.5-.1h-.6l-1.3-.1h-1.8l-.6.1-.5.1h-.5l-.2.1-.2.1h-.3l-.4.1v.1h-.2l-.3.1-.3.1-.2.1-.2.1h-.2l-.1.1-.2.1h-.1l-.1.1-.2.1h-.1l-.1.1-.2.1h-.1l-.1.1-.2.2h-.2v.2h-.2v.2h-.2q0 .2-.2.2h-.1l-.1.1v.1h-.1l-.1.1v.1h-.1l-.1.2v.1h-.3v.3h-.1v.1l-.1.1h-.1v.1l-.1.1-.1.1v.2h-.2v.2l-.1.2h-.2v.2q-.2 0-.2.2v.2l-.2.1v.1l-.2.2v.3l-.2.1v.3l-.1.1-.1.1v.2h-.1l-.1.3v.2h-.1l-.1.1v.3l-.1.2-.1.2v.1l-.1.5v.6h1.1q.9 0 .7.2h.9q-.1.3.5.2h.7q.4 0 .3.2h.9q0 .2.2.2h.6l.4.1.2.1h.2l.3.1.3.1h.2l.1.1.3.1h.4v.1l.2.1h.3l.3.1v.1h.2l.3.1.2.1h.2l.1.1.1.1h.2l.2.1.3.1h.2l.2.1h.2q.3 0 .2.2h.3l.1.2h.3v.2h.6v.2h.3l.2.1.2.1h.1l.1.1.2.1.2.1.2.1.2.1.2.1.2.1.1.1h.2l.1.1.1.1h.2l.1.1v.1h.1l.2.1.1.1.1.1h.1v.2h.1l.2.2.2.2v.7l-.1.1-.5.1h-.5l-.1-.2h-.2q0-.2-.3-.2h-.2l-.1-.1-.2-.1h-.2l-.1-.1-.2-.1h-.2l-.2-.1v-.1h-.1l-.2-.1-.2-.1h-.1l-.2-.1-.2-.1h-.2v-.1l-.2-.1h-.2l-.2-.1-.1-.1h-.2l-.2-.1-.2-.1h-.1l-.1-.1-.2-.1h-.2l-.2-.1h-.2q0-.2-.2-.2h-.4q-.2 0-.2-.2h-.2q0-.2-.3-.2h-.4l-.2-.1-.3-.1h-.3l-.2-.1-.1-.1h-.4l-.4-.1-.1-.1h-.2l-.3-.1-.4-.1h-.2l-.2-.1-.4-.1h-.3l-.3-.1-.4-.1h-.4l-.3-.1-.5-.1h-.5l-.5-.1-.5-.1h-.6l-.6-.1-.5-.1h-.6l-2.2-.1h-2.2l-.5.1h-.5l-.4.1-.5.1h-.3l-.2.1-.3.1h-.2l-.3.1-.3.1h-.2l-.2.1h-.2l-.2.2h-.2q0 .2-.2.2h-.2l-.1.2h-.3v.2h-.3l-.1.1v.1h-.1l-.1.1v.1h-.1l-.1.1v.1h-.1l-.1.1v.1h-.1l-.1.2v.1l-.1.1h-.1v.2l-.1.1v.2q0 .3-.2.2v.8q-.2 0-.2.2l.1.2v.4l.1.4.1.1v.2h.1l.1.2v.2h.1l.1.2h.1l.1.2.1.2h.1v.1l.1.2v.1h.2v.2h.2v.2h.2v.2h.2v.2h.2v.1l.2.1.1.1h.1v.2h.3l.1.2h.2l.1.2h.3l.1.2h.2v.1l.2.1h.2v.1l.2.1h.2v.1l.2.1h.1l.2.1.2.1h.2l.1.1.2.1h.2l.1.1.2.1h.1l.1.1.2.1h.2l.2.1v.1h.4l.3.1h.2l.1.2h.4v.2l.1.4v1q0 1-.2.8v.5q-.2-.2-.2.7v1.6c0 .9 0 .9-.2.9v2.3c-.2 0-.2 0-.2 2.7l.1 2.7v.8l.1.8.1.5v.4l.1.5.1.5v.2l.1.3.1.5v.4l.1.1.1.2v.4l.1.4h.1v.2l.1.4.1.3v.1l.1.1.1.3v.3l.1.1.1.1v.2l.1.2v.2h.2v.4h.2v.4h-11.7l-.2-.1-.1-.1-.1-.1v-43h1.6l1.8-.1h.2l.3-.1v-.1h.1l.2-.1v-.2l.1-.1.1-.1v-.2h.2v-1.3l-.1-.1-.2-.1v-.1l-.1-.2v-.1h-.2l-.1-.1-.1-.1-.1-.1-.1-.1h-.1v-.2h-.2V41h-.2v-.2h-.3l-.1-.1v-.1h-.1l-.1-.1v-.1h-.1v-.1l-.2-.1-.2-.1v-.3h-.4v-.2h-.2v-.2h-.1l-.1-.1v-.1h-.1l-.1-.1-.1-.1h-.3v-.2h-.2v-.2h-.2v-.2h-.2v-.1l-.2-.1h-.1l-.1-.1V38h-.1v-.1l-.2-.1v-.1l-.2-.1v-.1l-.2-.1h-.2v-.2h-.2V37h-.1l-.1-.1v-.1h-.1l-.1-.1v-.1h-.1l-.2-.1h-.1v-.2h-.2V36h-.2v-.2h-.2v-.1l-.2-.1h-.1l-.1-.1v-.1h-.1v-.1l-.2-.1v-.1l-.2-.1-.2-.1-.2-.1v-.1h-.1l-.1-.1v-.1h-.1l-.1-.1v-.1h-.1l-.1-.1V34h-.1l-.2-.1h-.1v-.2h-.2v-.2h-.2v-.2h-.2v-.1l-.1-.1h-.1l-.1-.1-.2-.1v-.1l-.2-.1v-.1l-.2-.1h-.2v-.3h-.2v-.1h-.1l-.1-.1h-.1l-.1-.1v-.1h-.2l-.1-.1-.1-.1-.1-.1h-.1v-.2h-.2V31h-.2l-.1-.2h-.2v-.1l-.2-.1v-.1l-.2-.1v-.1l-.2-.1h-.2V30h-.2v-.2h-.1l-.1-.1v-.1h-.1l-.1-.1-.1-.1h-.2v-.3h-.2l-.1-.1-.1-.1h-.1v-.2h-.2v-.2h-.3l-.1-.2h-.1v-.1l-.2-.1V28l-.2-.1v-.1l-.2-.1h-.2v-.2h-.1l-.1-.1v-.1h-.1l-.1-.1v-.1h-.2l-.1-.1-.1-.1-.1-.1-.1-.1-.1-.1-.1-.1-.1-.1h-.1l-.1-.2h-.2l-.1-.2h-.1l-.1-.2h-.1v-.1l-.2-.1-.2-.1v-.3h-.4V25h-.1l-.1-.1v-.1h-.1l-.1-.1v-.1h-.2l-.1-.1-.1-.1-.1-.1-.1-.1-.1-.1-.1-.1-.1-.1h-.1l-.1-.2h-.2l-.1-.2h-.1v-.2h-.2v-.1l-.2-.1-.2-.1v-.2l-.2-.1v-.1c-.2 0-.2 0-.2-1.9l.1-1.8v-.2l.1-.2h.1q0-.2.3-.2h.4l.1-.1.5-.1h.6l.2-.1.3-.1h2.1l.3.1h.3l.3.1.1.1h.2l.3.1.3.1h.2l.1.1.2.1h.2l.1.1.2.1.2.1.2.1h.2l.2.1v.1h.2l.1.1.2.1h.1l.2.1.2.1.1.1h.3q.3 0 .3.2h.2q0 .2.3.2h.3v.2h.7q0 .2.2.2h.6l.4.1.6.1h.5l.8.1h1.2l.4-.1.5-.1h.5l.1-.1.2-.1h.4l.4-.1.1-.1h.1l.3-.1.3-.1.2-.1.2-.1h.2l.1-.1.2-.1.1-.1v-.1h.1l.1-.1v-.1h.1l.1-.2.1-.4.1-.3V7l-.1-.4v-.2h-.2V6h-.2q-.2 0-.2-.2h-.2l-.2-.1-.1-.1h-.7l-.3.1h-.1l-.1.2h-.6V6l-.2.1h-.3l-.3.1v.1h-.2l-.5.1-.4.1h-.3l-.3.1-.8.1h-.9l-.2-.1h-.3q.1-.3-.4-.2h-.5l-.2-.2h-.6q0-.2-.2-.2h-.3q-.2 0-.2-.2h-.2l-.2-.1-.2-.1h-.2l-.1-.1-.1-.1h-.2v-.1l-.2-.1h-.2V5l-.3-.1h-.2l-.1-.1-.1-.1h-.2l-.2-.1-.2-.1h-.1l-.2-.1-.2-.1h-.1l-.2-.1-.3-.1h-.3L136 4h-.2q.1-.3-.5-.2h-3.6l-.7.1h-.2l-.3.1-.3.1h-.4v-1l-.1-.2-.1-.1v-.1l-.1-.1h-.1v-.1l-.1-.1h-.1v-.1l-.1-.1h-.2l.1-.2-.3-.1zm6.9 4.7h.3l.2.1h.3l.2.1.2.1h.1l.2.1.2.1h.2l.2.1h.1l.2.2h.4v.2h.4V8h.3q0 .2.2.2h.3v.2h.5l.1.1.1.1h.2l.2.1.2.1.4.1.2.1h.2l.2.1.3.1h.2l.4.1.4.1h.6l.5.1.7.1h.7l.5-.1.5-.1h.3l.3-.1.3-.1h.4l.1-.1h.1v4a18 18 0 0 0 .1 4.3h-.1v.2h-.2q.1.2-.4.2h-.5q-.2 0-.2.2h-.9c0 .2 0 .2-1 .2l-1-.1h-.5l-.5-.1-.2-.1h-.2l-.3-.1-.3-.1-.2-.1-.2-.1h-.2l-.1-.1-.2-.1h-.2l-.2-.1-.1-.1h-.1l-.2-.1-.1-.1h-.2l-.2-.1v-.1h-.1l-.2-.1h-.2v-.2h-.4l-.1-.2h-.3q0-.2-.3-.2h-.3v-.2h-.7l-.2-.1v-.1h-.4l-.2-.1-.3-.1h-.4l-1.8-.1h-2.1q-.4 0-.3.2h-.9v-4.1a19 19 0 0 1 .1-4.2l.2-.1h.2l.4-.1.4-.1h.3l.2-.1 1.6-.1zm-6.2 19.1h.3v.2h.2v.2h.2v.2h.2v.1l.1.1h.2v.1l.1.1.1.1.1.1.1.1.1.1.1.1h.1v.2h.3l.1.2h.1l.1.2h.1l.1.2h.1v.1l.2.1h.2v.2h.2v.2h.2v.2h.3v.3h.2l.1.1.1.1.1.1.1.1.1.1.1.1h.1v.2h.3l.1.2h.1l.1.2h.1l.1.2h.1v.1l.2.1.2.1v.1h.2v.2h.2v.2h.2v.2h.1l.2.1h.1v.3h.3v.1l.1.1.1.1h.1v.2h.3l.1.2h.1l.1.2h.1v.2h.2l.2.1v.1h.2v.2h.2v.1l.2.1.1.1.1.1.1.1.1.1.1.1.1.1.1.1.2.1h.1v.3h.3l.1.2h.1l.1.2h.1l.1.2h.1v.2h.2l.2.1v.1h.2v.2h.2v.2h.1l.1.1v.1h.2l.1.1.1.1.1.1.1.1.1.1.2.1h.1v.1l.1.1h.1v.1h.1l.1.2h.1l.1.2h.1v.2h.4v.2h.2v.2h.2v.2h.2v.2h.1l.2.1.1.1.1.1.1.1.1.1.1.1.1.1.1.1.1.1.1.1.1.1h.3v.4h.3v.2h.2v.2h.2l.2.1v.1h.2v.2h.2v.2h.1l.2.1h.1v.4h-37.1l-.1-.1v-.1l.1-.2h.2V41h.1q0-.2.2-.2h.1l.1-.1.1-.1.1-.1.1-.1.1-.1.1-.1.2-.1h.1v-.3h.3v-.1l.1-.1h.1v-.1l.1-.1.2-.1v-.1l.2-.1V39h.4v-.2h.1l.1-.2h.1l.1-.2h.1l.1-.1.1-.1h.2v-.3h.2l.1-.1.1-.1.1-.1.1-.1.1-.1.1-.1.1-.1h.1l.2-.1V37l.2-.1v-.1l.2-.1v-.1l.2-.1h.2v-.2h.1l.1-.2h.1l.1-.2h.1l.1-.1.1-.1h.2v-.1l.1-.1.1-.1.1-.1.1-.1.1-.1h.3v-.3l.2-.1.2-.1v-.1l.2-.1v-.1l.2-.1V34l.2-.1h.1v-.3h.3v-.1h.1l.1-.2h.1l.1-.1.1-.1h.2V33l.1-.1.1-.1.1-.1.1-.1.1-.1h.1l.2-.1v-.1l.2-.1v-.1l.2-.1.2-.1.2-.1v-.1l.1-.1h.1v-.1h.1l.1-.2h.1l.1-.2h.1q0-.2.2-.2h.1l.1-.1.1-.1.1-.1.1-.1.1-.1.1-.1.1-.1.1-.1h.1l.2-.1v-.1l.2-.1v-.1l.2-.1v-.1l.2-.1v-.1h.2v-.1l.1-.1h.1V29h.1l.1-.2h.1l.1-.2h.1l.1-.2h.2l.1-.1.1-.1.1-.1.1-.1.1-.1.1-.1.1-.1.1-.1h.1l.2-.1v-.1l.2-.1v-.1l.2-.1V27l.2-.1v-.1h.2v-.1l.1-.1h.1v-.1h.1l.1-.2h.1l.1-.2h.3v-.3h.2l.1-.1.3-.1h.3zm-42 11.5h.3q.3 0 .2.2h.1q0 .3.2.2h.2l.1.2h.3v.2h.3l.1.1v.1h.1l.1.1v.1h.1l.1.1v.1h.1l.1.1v.1h.1l.1.1v.1l.1.1v.2h.2v.2l.2.2.2.2v.2h.2v.5l.2.1v.3l.1.2.1.2v.2l.1.3.1.3v3l-.1.3v.1q0 .3-.2.2v.4l-.1.1h-.1v.3l-.1.2h-.1v.1l-.1.1-.1.2H90l-.1.2v.2h-.2v.2h-.2v.2h-.2v.1l-.1.1H89v.1l-.1.1h-.1v.1l-.1.1h-.1l-.1.1-.2.1v.1l-.2.1-.2.1-.2.1-.1.1-.2.1h-.1l-.1.1-.2.1-.2.1h-.1l-.1.2H86q0 .3-.2.2h-.4q-.4 0-.3.2h-.5q0 .2-.3.2h-.6l-.4.1-.6.1H82l-2.4.1h-2.8l-.5-.1-.5-.1h-.5l-.5-.1-.5-.1H74l-.3-.1-.4-.1h-.4l-.3-.1-.2-.1h-.5l-.5-.1-.2-.1H71l-.5-.1-.5-.1h-.3l-.2-.1-.8-.1h-.8l-.4-.1-.4-.1h-.9l-.4.1-.4.1H65l-.1.1-.2.1h-.2l-.3.1-.1.2h-.4l-.1.2h-.2l-.1.2H63v.2h-.2v.2h-.2v.2h-.2v.3l-.1.1h-.1v.2l-.1.1-.1.2v.1l-.1.2-.1.2v.2l-.1.2-.1.5v.4l-.1.3v1.2c0 1 0 1 .2 1v1.5l-.1.2v.2h-.2v.2l-.1.1-.1.2v.1l-.1.1-.1.2-.1.1-.1.1v.2h-.1l-.1.1v.1l-.1.2q0 .3-.2.2v.2q-.2 0-.2.3v.2l-.2.1v.5q-.2 0-.2.2v.5l-.1.3-.1.2v.3l-.1.3-.1.3v.4l-.1.3-.1.3v.2h-.4v-.1h-.1l-.1-.1v-.1h-.2l-.1-.1-.1-.1-.2-.1h-.1q0-.2-.2-.2h-.2l-.2-.2h-.6q0-.2-.2-.2h-.9l-.8-.1V63q0-.3-.2-.2v-.4q-.2 0-.2-.2V62q0-.4-.2-.3v-.3q-.2 0-.2-.2v-.4l-.1-.1-.1-.3V60l-.1-.2-.1-.2v-.2l-.1-.3-.1-.3v-.2l-.1-.2-.1-.2v-.4l-.1-.4-.1-.2V57l-.1-.5-.1-.4v-.3l-.1-.2-.1-1.8v-1.7l.1-.2.1-.3v-.4l.1-.4.1-.1v-.1l.1-.2v-.2q.2 0 .2-.2v-.2l.2-.2v-.1l.2-.1v-.2l.2-.1v-.3h.2v-.2h.2v-.2h.2v-.1l.1-.1h.1V48l.1-.1h.1v-.1l.2-.1h.1l.1-.1v-.1h.2l.1-.1.1-.1.3-.1.3-.1h.2l.2-.1.2-.1h.2l.1-.1h.1v-.2l.1-.1.1-.1.1-.2.1-.4.1-.2v-.1l.1-.2.1-.2v-.3l.1-.1.1-.2v-.2l.1-.2h.1V44l.1-.2.1-.2.1-.1v-.2h.2v-.2l.2-.1v-.2l.2-.1v-.1l.2-.1v-.1l.2-.1v-.1l.1-.1h.1V42l.1-.1h.1v-.1l.1-.1h.1v-.1l.2-.1h.1l.1-.1.1-.2h.1l.1-.2h.3l.1-.2h.2v-.1l.2-.1h.2v-.1l.2-.1h.2v-.1l.1-.1h.1l.3-.1.2-.1h.1l.4-.1h.3l.2-.1.1-.1h.3l.2-.1.3-.1h.3l.5-.1.5-.1h.5l.4-.1L69 39h1.8l.4.1.5.1h.5l.5.1.3.1h.3l.5.1.5.1h.2l.2.1h.6q.8 0 .6.2h.8c0 .2 0 .2 2 .2l2.2-.1h.3l.4-.1.3-.1h.3l.2-.1.2-.1h.3l.2-.1.2-.1h.1l.2-.1.2-.1h.1l.2-.1.2-.1h.2l.2-.2h.2q.3 0 .2-.2h.1q0-.2.2-.2h.1l.1-.1.1-.1.1-.1.1-.1.1-.1.1-.1.1-.1.1-.1.1-.1.2-.1h.1zm58.2 7.7v.2h.1l-.1 1.3v1.2l.1 19.5v19.5h-.5v-.1h-.1l-.2-.1-.2-.2h-.2q-.2 0-.2-.2h-.1q0-.2-.2-.2h-.2q-.2 0-.2-.2h-.1l-.1-.1-.2-.1h-.1l-.1-.1-.2-.1h-.1v-.1l-.1-.1h-.2V85l-.2-.1h-.2v-.1l-.2-.1-.2-.1v-.1h-.2v-.1l-.1-.1h-.2l-.1-.1-.1-.1h-.2V84h-.1l-.1-.2h-.3l-.1-.2h-.2l-.2-.2h-.2v-.2h-.2l-.2-.1-.2-.1-.1-.1-.2-.1h-.1v-.1l-.1-.1h-.2l-.2-.1-.1-.1-.2-.1-.1-.1h-.2l-.1-.1-.1-.1h-.2v-.1l-.2-.1-.2-.1-.2-.1h-.2v-.1l-.2-.2h-.3l-.1-.2h-.3v-.2h-.2q-.2 0-.2-.2h-.2l-.2-.1-.1-.1h-.1l-.2-.1v-.1l-.2-.1-.2-.1-.2-.1-.2-.1-.1-.1-.1-.1h-.1l-.2-.1v-.1h-.1l-.2-.1-.2-.1-.1-.1-.2-.1h-.1l-.1-.1h-.2l-.1-.2h-.1l-.2-.2h-.2q0-.2-.2-.2h-.2q-.2 0-.2-.2h-.2l-.1-.1-.2-.1h-.1l-.1-.1-.2-.1h-.2l-.3-.1h-.3q-.3 0-.2.2h-.2l-.2.2h-.2q-.3 0-.2.2h-.3l-.1.1-.1.1h-.2l-.1.1v.1h-.1l-.2.1-.2.1h-.1v.1l-.2.1h-.1l-.1.1v.1h-.3l-.2.1v.1l-.2.1-.2.1v.1h-.2l-.1.2h-.3v.2h-.3l-.1.2h-.3l-.1.2h-.2v.2h-.3l-.2.1v.1h-.2l-.2.1v.1l-.2.1-.2.1-.2.1-.1.1h-.2v.1l-.1.1h-.1l-.2.1-.1.1h-.1l-.1.1v.1h-.2l-.1.1h-.2l-.1.2h-.3v.2h-.4v.2h-.2q0 .2-.2.2h-.2l-.1.2h-.3v.1l-.1.1h-.2l-.2.1-.1.1-.2.1-.1.1h-.1v.1l-.2.1h-.1l-.2.1v.1h-.2v.1l-.2.1-.2.1-.1.1h-.2l-.1.1-.1.2h-.3l-.1.2h-.3l-.1.2h-.1q0 .2-.3.2h-.2v.2h-.4v.2h-.2l-.2.1v.1h-.2v.1l-.1.1h-.2l-.2.1-.1.1-.2.1-.1.1h-.2l-.1-20.5V46l.1-.5v-.6h33.1zm-76.8 7 .2.1.3.1h.5l.4.1h.3q.3 0 .3.2h.7q-.1.3.4.2h.6q.4 0 .4.2h.6q0 .2.3.2h.7l.5.1.2.1h.3l.5.1.6.1h.3l.3.1 1.5.1h1.5l.6.1h1.5c1 0 1 0 1-.2h.5q-.2-.2.6-.2h.7l.2-.1.3-.1h.4l.2-.1.1-.1h.3l.4-.1.2-.1h.2l.2-.1h.3l.1.2q.2 0 .2.2v.3l.1.2.1.2v.3l.1.2.1.2v.4l.1.4.1.3v.2l.1.4.1.4v.3l.1.2.1.6v.5l.1.8.1.9v1.4l.1 1.5.1 1.2v1.3l.1 2.9V71l-.1 1.1v1.1l-.1.7-.1.6v.4l-.1.4-.1.5v.6l-.1.2v.3q-.3-.1-.2.4v.6q0 .3-.2.2v.6q-.2 0-.2.2v.4q0 .3-.2.2v.2l-.1.4-.1.2v.2h-.1l-.1.3v.2h-.1l-.1.1v.2l-.1.2-.1.1v.2h-.1l-.1.1v.1l-.1.2h-.1l-.1.2-.1.2h-.1l-.1.2v.2H86v.2l-.1.1v.1h-.2v.3h-.3v.3h-.1v.1l-.2.1v.1l-.2.1v.1l-.1.1h-.1v.1h-.1l-.1.2h-.3v.3H84l-.1.1q0 .2-.2.2h-.2v.2h-.3v.1l-.2.1-.2.1v.1h-.2v.1l-.2.1h-.2v.1l-.1.1H82l-.2.1-.2.1h-.1l-.2.1-.2.1h-.3v.1l-.1.1h-.4l-.4.1h-.3q-.3 0-.3.2h-4l-.3-.1h-.3l-.4-.1-.4-.1-.2-.1-.3-.1H73l-.1-.1-.1-.1h-.3l-.3-.1-.1-.1H72l-.2-.1-.2-.2h-.4L71 86h-.2l-.1-.2h-.3l-.1-.2h-.1l-.2-.1-.1-.1h-.1v-.1l-.3-.1h-.2v-.1l-.1-.1h-.8l-.1.1-.2.2-.1.2h-.1v.2l-.1.3v.5l.2.1v.1l.1.1.1.1.1.1.1.1.1.1h.1v.2h.2v.2h.3l.1.2h.1q0 .2.2.2h.2q.2 0 .2.2l.3.1.2.1.1.1.2.1h.2v.1l.1.1h.2l.2.1.2.1h.1l.2.1.2.1h.1l.2.1.2.1h.3l.1.1.2.1h.2l.3.1h.3q.4 0 .3.2h1q-.1.3.4.2h.8v.3l-.1.2-.1.1h-.1v.1l-.1.1H76v.1l-.1.1-.1.1v.2h-.3v.1h-.1v.1l-.1.1h-.1v.1l-.1.1H75v.1l-.1.1h-.1v.1h-.2l-.1.2h-.2v.2H74l-.2.2h-.2v.2h-.5q-.5 0-.4.2h-.1l-.6-.1h-.5l-.2-.1H71l-.2-.1v-.1h-.1l-.1-.1-.2-.1-.1-.1-.1-.1H70l-.1-.1-.1-.1h-.2l-.1-.1-.1-.1h-.2l-.1-.1-.1-.1-.2-.1v-.1h-.2l-.2-.1-.2-.2H68V91h-.3q0-.2-.2-.2h-.1l-.1-.2H67v-.1l-.1-.1h-.2l-.1-.1v-.1h-.1l-.2-.1-.1-.1-.1-.1v-.1H66v-.1l-.2-.1-.2-.1v-.1h-.2v-.1l-.2-.1H65V89h-.3v-.2h-.2l-.2-.2h-.1v-.2H64v-.2h-.2V88l-.1-.1h-.2v-.2l-.2-.1v-.1l-.2-.1v-.1l-.2-.1v-.1q-.2 0-.2-.2v-2.7c0-2.5 0-2.6-.2-2.6V81l-.1-.2h-.1v-.3l-.1-.3-.1-.1V80l-.1-.2-.1-.2v-.1l-.1-.1-.1-.2v-.1l-.1-.1-.1-.2v-.2l-.1-.2h-.1v-.2l-.1-.1-.1-.2v-.2l-.1-.2h-.1v-.1l-.1-.2-.1-.2-.1-.1v-.2q0-.3-.2-.2v-.2q-.2 0-.2-.3v-.2l-.2-.1v-.4l-.2-.1v-.3l-.1-.1-.1-.1-.1-.2-.1-.1v-.1h-.2l-.1-.1-.1-.1-.3-.1h-.3l-.1-.2h-.7q-.6 0-.5-.2h-.2q0-.2-.3-.2h-.2l-.1-.2h-.4V73l-.1-.1h-.2l-.1-.1v-.1h-.1l-.2-.1-.1-.1-.1-.1v-.1h-.2v-.2h-.2v-.3h-.3v-.3h-.1v-.1q-.2 0-.2-.2V71h-.1l-.1-.2-.1-.2-.1-.1v-.2l-.1-.2-.1-.3v-.3l-.1-.8v-1q0-.4.2-.3v-.2l.2-.1V67l.2-.1v-.1l.1-.1.1-.1.2-.1h.1l.1-.2h.2l.1-.2h1.6l.2.1.2.1.1.1h.1v.1l.1.1h.1v.1l.1.1h.1v.1l.1.1h.1v.1l.1.1h.1v.1h.1l.1.2h.1l.1.2h.1l.1.2.1.2h.1v.2h.3v.1l.2.1v.1l.7.1h.7v-.1h.1q0-.2.2-.2h.1l.1-.2.1-.1V68h.1l.1-.3v-.2l.1-.2.1-.3v-.3l.1-.4v-.5q0-.6.2-.5v-.5q.3.2.2-.6v-.7q0-.2.2-.2v-.6q.2 0 .2-.2v-.4l.1-.2.1-.2v-.1l.1-.2.1-.2.1-.1.1-.2.1-.1.1-.1v-.1l.1-.2h.1v-.1l.1-.1.1-.2.1-.1.1-.1v-.2l.1-.2.1-.2.1-.1.1-.4v-.4l.1-.2v-.3c.2 0 .2 0 .2-1l-.1-1v-.4l-.1-.5-.1-.7v-.8h.1v-.2q.3 0 .2-.2v-.2l.2-.1v-.1l.2-.1v-.1l.2-.1.2-.1.2-.1L67 52zm101.6 11.4h.7l.7.1h.8l.8.1.3.1h.4l.5.1.5.1h.3l.2.1.6.1h.5l.3.1.2.1h.4l.3.1.3.1h.2l.3.1.2.1h.4l.3.1h.1l.2.2h.6q0 .2.2.2h.4q.4 0 .3.2h.3q0 .2.3.2h.4l.1.2h.7v.1l.2.1h.2l.2.1.1.1h.2l.2.1.2.1h.2l.2.1.2.1h.2l.2.1.2.1.2.1.2.1h.2v.1l.2.1h.1l.2.1h.1v.2h.2v.2h.2v1.8l.1 1.7.1.8v.8l.1.2.1.2v.3l.1.3.1.2v.1l.1.2.1.2v.1l.1.2h.1v.2l.1.2.2.2v.2h.2v.2h.2v.2h.2v.1l.2.1.1.1.1.1h.1l.2.1.4.1h.5l.1-.1h.2v-.2h.1l.1-.2h.2v-.2h.2v-.2h.2v-.2h.2v-.2l.2-.1V75l.1-.1h.1v-.1l.1-.1h.2l.1-.1v-.1h.1l.2-.1.1-.1h.2l.2-.1.5-.1h.6l.2.1.1.1h.2l.1.1v.1h.1l.1.1v.2h.1l.1.2.1.2h.1v.3l.1.2.1 1v1l-.1.2v.3q-.2 0-.2.2v.3l-.2.1v.3h-.2v.3l-.2.1v.1q-.2 0-.2.2v.2h-.2v.2h-.2v.2h-.2l-.1.2h-.2l-.1.2h-.3v.1l-.1.1h-.2l-.2.1-.1.1h-.2l-1.2.1-1.3.1h-.1l-.1.1-.2.1-.2.1v.1l-.2.1v.1l-.2.1v.6h-.1l-.1.2v.2l-.1.2h-.1v.1l-.1.2-.1.2v.1h-.1l-.1.2v.1l-.1.2-.1.1-.1.1-.1.2-.1.2-.1.2h-.1l-.1.2-.1.2h-.1v.2l-.1.1v.2l-.2.1v.1q-.2 0-.2.2v.4l-.2.1v1.7c-.2 0-.2 0-.2 2.4l.1 2.3v1.4h-.1v.4h-.4v.2h-.2v.2h-.2v.2h-.2v.1l-.1.1h-.1v.1l-.1.1h-.1v.1l-.1.1h-.1v.1l-.1.1h-.1v.1l-.1.1h-.2v.1l-.2.1v.1l-.2.1v.1h-.2v.2h-.2v.2h-.1l-.1.2h-.3v.2h-.1l-.1.2h-.1l-.1.1-.1.1h-.1l-.2.1v.1h-.1v.1l-.1.1h-.1v.1l-.1.1h-.1v.1l-.1.1h-.2v.1l-.2.1v.1l-.2.1v.1h-.2v.2h-.2v.2h-.2l-.1.2h-.1l-.1.2h-.1l-.1.2h-.3v.1l-.1.1h-.1v.1l-.1.1h-.1l-.1.1-.2.1-.1.1-.1.1h-.2v.2h-.2v.1l-.2.1-.2.1v.1h-.1l-.2.1-.1.2h-.3v.2h-.2l-.2.2h-.1q0 .2-.3.2l-.4-.1v-.1l-.2-.1v-.3h-.2v-.2l-.2-.2v-.1l-.2-.1v-.2l-.2-.1v-.3h-.2v-.2l-.1-.2h-.1l-.1-.2-.1-.1v-.2l-.1-.1-.1-.1v-.2l-.1-.1-.1-.1v-.1h-.1l-.1-.3v-.2h-.1l-.1-.1v-.2l-.1-.2-.1-.1v-.2l-.1-.8v-.9h.1v-.1h.1l.3-.1h.3q-.1-.2.5-.2h.8q.5 0 .4-.2h.6q0-.2.3-.2h.5q.2 0 .2-.2h.5l.1-.1.1-.1h.3l.3-.1v-.1h.1l.2-.1.2-.1.1-.1.2-.1h.2v-.1l.2-.1.2-.1v-.1h.2v-.1l.2-.1.1-.1.2-.1h.1V94h.1l.1-.2h.3v-.4h.3v-.2l.1-.1.1-.2V92l-.1-.1-.1-.1-.1-.1-.2-.1-.4-.1h-.2v.1h-.2l-.1.1-.2.1h-.2l-.1.1-.1.1h-.2v.1l-.1.1h-.1l-.2.1h-.1l-.1.2h-.1q0 .3-.3.2h-.2v.2h-.6l-.1.2h-.4q-.4 0-.3.2h-.3l-.3.1-.3.1h-.2l-.2.1-.4.1h-.4l-.5.1-.4.1h-2.4l-.4-.1h-.4q-.5 0-.4-.2h-.3q0-.2-.2-.2h-.4q-.2 0-.2-.2h-.6V93l-.1-.1h-.3l-.3-.1v-.1h-.1l-.2-.1-.2-.1-.1-.1-.2-.1-.2-.1-.2-.1V92l-.2-.1h-.2v-.2h-.1l-.1-.1v-.1h-.1l-.2-.1h-.1v-.2h-.2V91h-.2v-.2h-.2v-.2h-.1l-.1-.1v-.2h-.1l-.1-.1-.1-.1V90h-.2v-.2l-.2-.1v-.2l-.2-.1v-.1q-.2 0-.2-.2V89l-.2-.1v-.2l-.1-.2-.1-.2h-.1l-.1-.2V88l-.1-.1h-.1v-.3l-.1-.2h-.1v-.1l-.1-.2-.1-.2-.1-.1-.1-.2v-.2l-.1-.2h-.1V86l-.1-.2-.1-.1v-.1l-.1-.2-.1-.2V85l-.1-.2v-.2l-.2-.1v-.7q-.2 0-.2-.2v-.5q0-.5-.2-.4V82q-.2.2-.2-.6v-1l-.1-.3-.1-1.2v-1.2l-.1-2.4v-3.7c0-1.1 0-1.1.2-1.1v-.8l.1-.8.1-.7V68l.1-.3.1-.6v-.6l.1-.3.1-.2v-.4l.1-.4.1-.1V65l.1-.1.1-.1v-.1h.1l.1-.1v-.1h.1l.2-.1.2-.1.2-.1.2-.1h.3l.2-.1h.2q-.1-.2.4-.2h.6l.2-.2h1q-.1-.2.5-.2zm-41 17.6h.1l.2.1v.1h.2l.2.1v.1h.2v.1l.1.1h.2l.1.1.1.1h.2l.1.1v.1h.1l.2.1.1.1h.1l.2.1.1.2h.3v.2h.4v.2h.2q0 .2.2.2h.2l.1.2h.3v.1l.1.1h.2l.2.1.1.1.2.1.1.1h.2l.1.1.1.1h.2v.2h.2v.1l.2.1.2.1.2.1.2.1.1.2h.3l.1.2h.3l.1.2h.1q0 .2.2.2h.3l.1.2h.3v.2h.3l.2.1v.1h.1l.2.1v.1h.2l.1.1.1.1.2.1.1.1h.2l.1.1.1.1h.2v.1l.1.1h.1l.2.1.1.2h.4v.2h.3v.2h.3l.1.2h.2l.1.2h.3l.1.1.2.1.1.1.1.1h.2l.1.1.1.1h.2v.1l.2.1.2.1v.1h.2v.1l.2.1h.2v.1l.1.1h.2l.1.1h.1q.3 0 .2.2h.1l.1.2h.3l.1.2h.3v.2h.3v.2h.2l.2.1.2.1.2.1.2.1h.1l.1.1v.1h.2l.1.1.1.1.3.1.2.1.1.1.1.1h.2l.1.1.1.1h.1v.1h.2l.1.2h.2q0 .3.2.2h.2v.2h.3l.1.2h.3q.3 0 .2.2h.1l.1.1.2.1.1.1.1.1h.2l.1.1.1.1h.2v.1l.2.1h.2v.2h.2l.2.1v.1l.3.1.2.1.1.1h.1q.3 0 .2.2h.1l.1.2h.3l.1.2h.2l.2.2h.2v.2h.4v.1l.2.1h.1l.2.1v.1h.1l.2.1.2.1.1.1.2.1h.1v.1l.1.1h.2l.2.1.1.1.2.1.1.1.2.1q.3 0 .2.2h.2l.2.2h.1q.3 0 .2.2h.2l.1.2h.2l.1.2h.3v.1l.1.1h.2l.1.1.1.1h.2v.1l.2.1.2.1.2.1h.2v.2h.2l.1.1.2.1h.1l.1.1.2.1.1.1h.1l.2.2h.2l.1.2h.1l.1.2v.2h-.4l-.1.2h-.2l-.2.1v.1h-.2v.1l-.2.1-.2.1v.1h-.1l-.1.1-.1.1h-.2l-.1.1-.1.1h-.1v.1l-.2.1h-.1l-.1.1v.1h-.2l-.1.1h-.1v.2h-.3v.3h-.2l-.2.1q0 .2-.2.2h-.2v.2h-.2v.2h-.1l-.1.1v.1h-.1l-.1.1v.1h-.1l-.1.1v.1h-.1l-.1.1v.1h-.1l-.1.1v.1h-.1l-.1.1v.1h-.1l-.1.1-.1.2-.1.2h-.1l-.1.2h-.1v.2h-.2v.2l-.2.1v.1l-.2.1v.2q0 .3-.2.2v.1h-.2v.3l-.1.1h-.1v.1l-.1.2h-.1v.2h-.1l-.1.2-.1.2h-.1v.2h-.1l-.1.2h-.1l-.1.1v.2l-.1.1h-.1v.1l-.1.2-.1.1-.1.1-.1.2v.1h-.1v.1q-.2 0-.2.2v.2h-.2v.2l-.2.2c0 .2-.1.2-26.7.2l-26.6-.1-.2-.1v-.5q0-.5-.2-.4v-.8l-.1-.3-.1-.3v-.3l-.1-.3-.1-.4v-.4l-.1-.1-.1-.1v-.4l-.1-.4-.1-.1v-.2l-.1-.3-.1-.3v-.2l-.1-.1-.1-.3v-.2l-.1-.2h-.1v-.4l-.1-.2-.1-.1v-.2l-.1-.2-.1-.2v-.1l-.1-.1v-.2q0-.2-.2-.2v-.3l-.2-.1v-.2q0-.2-.2-.2v-.2h-.2v-.2l-.2-.1v-.3H96l-.1-.1v-.6l.1-.1.2-.1.1-.1h.2l.1-.1.1-.1h.2V99h.1q0-.2.2-.2h.2l.1-.2h.3v-.2h.3v-.2h.4V98l.2-.1.2-.1v-.1h.2l.1-.1.2-.1.1-.1.1-.1h.2l.1-.1.1-.1h.2l.1-.1h.1l.2-.1.2-.1.2-.1v-.1h.2v-.1h.2v-.2h.4V96h.2l.1-.2h.3l.1-.2h.3v-.1l.1-.1h.2l.1-.1v-.1h.1l.2-.1.2-.1.2-.1v-.1h.2v-.1l.2-.1.2-.1.1-.1h.2l.1-.1.1-.1h.1v-.1l.2-.1h.1l.2-.1h.1v-.2h.3l.1-.2h.3v-.2h.2l.2-.2h.2V93l.2-.1h.2l.1-.1.1-.1.2-.1.1-.1h.1v-.1l.3-.1h.2v-.1l.1-.1h.1l.2-.1.1-.1h.1l.1-.1v-.1h.2l.1-.1.2-.1.2-.1h.2v-.2h.3q.3 0 .2-.2h.1l.1-.2h.2l.1-.2h.4v-.1l.1-.1h.2l.1-.1.1-.1h.2V90h.2l.2-.1v-.1h.2l.2-.1v-.1h.1l.1-.1.2-.1h.2v-.1l.1-.1h.2l.1-.1V89h.1l.2-.1h.2l.1-.2h.2l.1-.2h.2v-.2h.4v-.2h.2l.2-.1h.2l.1-.1.2-.1h.1v-.1l.1-.1h.2l.1-.1.1-.1h.2l.1-.1.1-.1h.1V87l.3-.1h.2v-.2h.2l.2-.1v-.1h.2l.1-.1h.2v-.2h.2q.3 0 .2-.2h.2q0-.2.2-.2h.2q.2 0 .2-.2h.1l.1-.1.2-.1v-.1l.2-.1h.2v-.1l.2-.1h.2l.1-.1h.1l.1-.1.2-.1h.1l.1-.1.2-.1h.1v-.1l.1-.1h.2l.1-.1.1-.1h.2V84h.1l.1-.2h.2v-.2h.5v-.2h.3v-.2h.3l.2-.1.1-.1.1-.1.2-.1h.1l.1-.1.2-.1h.1l.1-.1.1-.1.2-.1.1-.1h.2V82l.2-.1.2-.1.2-.1.2-.1v-.1h.2v-.1h.1q0-.2.2-.2h.3V81h.5q0-.2.2-.2zm-67.3 8.6h.2l.2.1v.2h.2q0 .2.2.2h.1l.1.2h.3v.2h.1l.1.2h.1l.2.1.1.1h.1v.1l.2.1h.1l.1.1v.1h.2l.1.1v.1h.2v.1l.2.1.2.1v.1h.2l.2.1v.1h.1l.1.1h.1q.3 0 .2.2h.1l.1.2h.2l.1.2h.3v.2h.2q.2 0 .2.2l.2.1.2.1v.1l.2.1h.2v.1l.2.1h.1l.2.1v.1h.1l.1.1.2.1h.1l.1.1.2.1h.1l.1.1.2.1.1.1h.2q.3 0 .2.2h.1q0 .2.2.2h.2v.2q.2 0 .2.2h-.1v.2h-.2v.1l-.1.1h-.1v.2l-.1.1-.1.1-.1.2-.1.1v.1h-.1l-.1.1v.1h-.1l-.1.1v.2h-.1l-.1.2-.1.2q-.3 0-.2.2v.2h-.2v.3l-.2.1v.1l-.2.1v.1q-.2 0-.2.2v.1l-.1.1-.1.1-.1.1-.1.1-.3.1H67v-.1l-.1-.1v-.1h-.1l-.1-.1V99h-.1l-.1-.1-.1-.2h-.1l-.1-.2H66v-.2h-.2v-.2h-.2V98h-.2v-.2h-.2v-.2H65l-.1-.1v-.1h-.1l-.1-.1v-.1h-.1l-.1-.1V97l-.1-.2-.1-.2-.1-.1-.1-.2-.1-.2-.1-.2-.1-.2-.1-.1v-.2l-.1-.1-.1-.1V95l-.1-.1v-.1l-.2-.2v-.2q-.2 0-.2-.2V94q0-.2-.2-.2v-.1q-.2 0-.2-.2v-.2l-.2-.1v-.6h-.1l-.1-.1v-.2l-.1-.2-.1-.1v-.2l-.1-.2-.1-.2-.1-.2-.1-.2v-.2l-.1-.1-.1-.2v-.2l-.1-.2-.1-.1v-.1l-.1-.2v-.1zM59.2 91l.1.1v.2l.2.1v.3l.2.1v.4h.1l.1.1v.2l.1.2.1.2.1.3.1.2v.1l.1.1.1.2v.2l.1.1h.1v.3l.1.2h.1l.1.3.1.2v.1l.1.2.1.2v.1l.1.2.1.1v.1l.1.2v.2l.2.2v.2q.2 0 .2.2v.2l.2.2v.4h.2v.4l.1.2.1.1v.2l.1.2.1.2.1.1.1.2v.2l.1.1.1.2.1.2.1.2.1.2.1.1v.2l.1.2.1.1.1.3.1.2.1.1.1.2v.2l.1.1v.2q.3 0 .2.2v.2q0 .3.2.2v.4l.2.1v.3l.2.1v.3q.2 0 .2.2v.3l.1.2h.1v.2l.1.2.1.2v.1l.1.2.1.2v.2h.1l.1.1v.2l.1.2.1.1v.2l.1.2.1.2.1.2.1.2v.2h.1l.1.1v.2l.1.2v.2q0 .3.2.2v.3q.3 0 .2.2v.3l.2.2v.4h.2v.4q0 .3.2.2v.3l.1.2.1.2v.1l.1.1.1.2v.2l.1.2h.1v.3l.1.2h.1v.1l.1.2.1.2v.1l.1.2.1.1v.1l.1.2.1.2v.2h.1l.1.3v.2l.1.1.1.2v.2l.1.1v.1h.2v.6l.2.1v.4q0 .4.2.3v.3q.2 0 .2.2v.2l.1.2.1.2v.2l.1.1.1.2v.2l.1.2.1.1v.1l.1.2h.1v.4l.1.2h.1v.2l.1.2.1.3v.1l.1.1.1.2v.2l.1.1h.1v.3l.1.2h.1v.2l.1.2h-.3v-.1h-.1l-.1-.1v-.1H72l-.1-.1v-.1h-.1v-.1l-.2-.1v-.3h-.2v-.1l-.2-.1v-.2l-.2-.2-.2-.2-.1-.2-.1-.1v-.1h-.1l-.1-.2v-.1l-.1-.1h-.1v-.1l-.1-.1H70v-.1l-.1-.2-.1-.1-.1-.1-.1-.1-.1-.1-.1-.1v-.1l-.1-.2h-.1l-.1-.2q-.3 0-.2-.2v-.2h-.2v-.1l-.2-.1v-.2l-.2-.1v-.1l-.2-.1v-.1l-.1-.1-.1-.2v-.1h-.1l-.1-.1v-.1h-.1l-.1-.1v-.1l-.1-.1-.1-.2h-.1l-.1-.2v-.2h-.2v-.2h-.1l-.1-.1v-.2h-.1l-.1-.1v-.3h-.3v-.2l-.2-.1v-.2l-.2-.1v-.1l-.2-.1v-.2l-.2-.2-.2-.2-.1-.2H65v-.2h-.1l-.1-.1v-.1h-.1l-.1-.1v-.1h-.1l-.1-.1v-.2l-.1-.1h-.1v-.1l-.1-.1H64v-.1l-.1-.1h-.1v-.1l-.1-.2-.1-.1-.1-.1-.2-.2-.2-.2-.2-.2v-.2h-.2v-.2h-.2v-.2h-.1l-.1-.1v-.1h-.1l-.1-.1v-.1l-.1-.1-.1-.2-.1-.1h-.1v-.1l-.1-.1h-.1v-.1l-.1-.1-.1-.1v-.2H61v-.2h-.2v-.2h-.1l-.1-.2-.1-.1v-.1h-.2v-.2q-.2 0-.2-.3l.1-.4.1-.1.1-.1v-.2h.1l.1-.1v-.1l.1-.2h.1v-.2l.1-.2h.1v-.2h.1l.1-.1v-.2l.1-.1.1-.1v-.1h.1v-.3l.2-.2v-.2q.2 0 .2-.2v-.4h.2v-1.1l-.1-.1-.1-.2-.1-.1v-.1h-.1l-.1-.1-.1-.1h-.2v-.1l-.1-.1h-.1l-.2-.1-.2-.1h-.2v-.1h-.2q0-.2-.2-.2h-.4v-.2H59l-.1-.2h-.4q-.4 0-.3-.2H58l-.3-.1-.2-.1h-.2v-.1l-.2-.1h-.2v-1.9l.1-.3v-.8l.1-.7.1-.5v-.5l.1-.7.1-.7v-.6l.1-.5.1-.6V92l.1-.2.1-.2.2-.1h.1l.1-.2h.2l.1-.2h.1q0-.2.3-.2h.3zm45.4 0-.2.1h-.1l-.2.1-.1.1h-.1l-.2.1v.1h-.1l-.1.1-.2.1-.1.1-.1.1h-.2v.1l-.2.1-.2.1q-.3 0-.2.2h-.2l-.2.2h-.2v.2h-.3l-.1.2h-.2l-.1.2h-.3l-.1.1-.2.1-.1.1-.1.1h-.2v.2h-.2l-.2.1v.1h-.2v.1l-.2.1-.2.1v.1h-.1l-.2.1-.2.1h-.1v.1h-.2l-.1.2H98q0 .3-.3.2h-.2l-.1.2h-.3v.2h-.4v.2h-.2l-.2.1v.1H96l-.1.1-.1.1-.2.1-.1.1h-.1v.1l-.3.1H95v.1l-.1.1h-.1l-.2.1-.1.1h-.1l-.2.1v.1H94v.1h-.2v.2h-.5l-.1-.1H93l-.1-.1v-.1h-.1l-.1-.1h-.1l-.2-.1-.1-.1-.1-.1-.2-.1v-.1h-.1q0-.2-.2-.2h-.1l-.1-.2h-.2l-.2-.2h-.2v-.2h-.3l-.1-.1v-.1h-.2l-.1-.1-.1-.1-.3-.1-.2-.1-.1-.1-.1-.1h-.2l-.1-.1-.1-.1h-.2l-.1-.1v-.1h-.1l-.2-.1-.2-.1-.2-.1V94h-.2l-.1-.1h-.2l-.1-.2H87l-.1-.2h-.1q0-.2-.2-.2h-.1l-.1-.2H86V93h-.2l-.1-.1v-.1h-.2v-.1l-.2-.1-.2-.1v-.1h-.2v-.1l-.1-.1h-.2l-.1-.1V92h-.1l-.1-.1v-.1H84l-.1-.1-.1-.1-.2-.1h-.1l-.1-.2h-.1l-.1-.2v-.2H94zm57.5 0 .1.2h.1v.1h.1v.1q.3 0 .2.2v.1l.2.1v.1l.2.1v.2h.2v.2h.2v.2h.2v.2h.2v.2h.2l.1.1.2.1.1.1v.1h.1l.2.1.1.1.1.1.1.1.2.1.1.1h.2v.1l.2.1.2.1v.1h.2v.1h.1q.3 0 .2.2h.2q0 .2.2.2h.2l.2.2h.4v.2h.3q.3 0 .2.2h.4v.1l.1.1.2.1-.1.1-.1.1-.1.1-.1.1-.1.1v.1l-.1.2h-.1v.1l-.1.1-.1.2h-.1l-.1.2h-.1l-.1.2h-.2l-.1.2h-.2v.2h-.2v.2h-.2l-.2.1v.1h-.2l-.2.1v.1h-.1l-.2.1h-.3v-.2h-.3l-.1-.2h-.3q-.2 0-.2-.2l-.2-.1-.2-.1-.2-.1v-.1h-.2v-.1l-.2-.1h-.1l-.2-.1-.1-.1h-.1l-.1-.1h-.2l-.1-.1-.2-.1h-.1l-.1-.1-.2-.1-.1-.1-.1-.1h-.2v-.1l-.2-.2h-.2q-.2 0-.2-.2h-.2l-.1-.2h-.2q-.2 0-.2-.2h-.2l-.1-.1v-.1h-.2l-.1-.1-.2-.1h-.1l-.1-.1-.2-.1-.1-.1-.1-.1h-.2v-.1l-.2-.1h-.2v-.1l-.2-.1-.2-.1v-.1h-.2l-.1-.1-.2-.1h-.2q0-.2-.2-.2h-.2l-.2-.2h-.1l-.1-.2h-.2l-.1-.2h-.4V93l-.1-.1h-.2v-.1l-.2-.1-.2-.1-.2-.1-.1-.1-.2-.1h-.1v-.1l-.1-.1h-.2l-.1-.1-.1-.1h-.2l-.1-.1-.1-.1h-.2l-.1-.1-.1-.1h-.2v-.1h-.2v-.2h-.2V91c0-.2 0-.2 4.7-.2zm59.7 0h.2v.2h.2v.3l.2.1v.2l.1.1.1.2.1.2.1.2h.1l.1.2v.2h.1l.1.2v.1l.1.2.1.1v.1l.1.1h.1v.2l.1.1.1.2v.1l.1.1.1.2h.1l.1.2v.2h.1v.2q.3 0 .2.2v.2h.2v.4h.2v.3l.2.1v.3h.2v.2l.1.2h.1v.2l.1.2h.1v.2h.1l.1.2v.2h.1l.1.1v.2l.1.1h.1v.1l.1.2.1.1v.1l.1.2.1.1v.1l.1.1h.1v.2l.1.1h.1v.2h.1v.2q.2 0 .2.2v.2h.2v.3l.2.1v.3l.2.1v.1q.2 0 .2.2v.1l.1.1.1.2v.2h.1l.1.2v.2l.1.2h.1l.1.2.1.1v.2l.1.1.1.1v.2h.1l.1.1v.1l.1.2.1.1v.1l.1.1h.1v.3l.1.2h.1l.1.2v.2h.2v.3q0 .3.2.2v.1q.2 0 .2.2v.2l.2.1v.3l.1.1.1.2h.1l.1.2v.2h.1l.1.2v.2h.1l.1.2.1.1.1.2.1.1.1.2v.2h.1l.1.1v.2l.1.1h.1v.1l.1.2h.1v.2l.1.2q0 .3.2.2v.2h.2v.3q0 .3.2.2v.1l.2.1v.3l.2.1v.3h.1l.1.1v.2h.1l.1.2v.2h.1l.1.2.1.2h.1v.2l.1.1.1.2v.1l.1.1.1.1.1.2.1.1v.2l.1.1.1.1v.2h.1l.1.2.1.2q0 .3.2.2v.2q.2 0 .2.2v.2h.2v.3l.2.1h-.1v.1l-12 .1h-12v-.1l-.1-.2q0-.2-.2-.2v-.5q-.2 0-.2-.2v-.3q0-.3-.2-.2v-.4q-.2 0-.2-.2v-.4q0-.2-.2-.2v-.3l-.1-.2-.1-.1v-.2l-.1-.1-.1-.2v-.2l-.1-.1-.1-.2v-.2l-.1-.2h-.1v-.1l-.1-.2-.1-.2v-.1l-.1-.2-.1-.2v-.1l-.1-.2-.1-.1v-.1l-.1-.2-.1-.1v-.1l-.1-.2v-.1l-.2-.1v-.3l-.2-.1v-.2h-.2v-.4h-.2v-.2l-.2-.1v-.3l-.1-.1-.1-.1-.1-.2-.1-.1v-.1h-.1l-.1-.1v-.1l-.1-.1-.1-.2-.1-.1-.1-.1v-.2h-.2v-.2h-.1l-.1-.2-.1-.2h-.1l-.1-.1-.1-.1-.1-.1v-.1l-.2-.1v-.2l-.2-.1v-.1l-.2-.1v-.1l-.2-.1v-.1l-.2-.1v-.1l-.1-.1h-.1v-.1h-.1l-.1-.2h-.1l-.1-.2h-.1l-.1-.2h-.2l-.1-.2h-.1l-.1-.1-.1-.1-.1-.1-.1-.1-.2-.1-.1-.1-.2-.1v-.1l-.2-.1-.2-.1v-.1l-.2-.1h-.1l-.1-.1v-.1h-.1l-.1-.1-.1-.1h-.2v-.1h-.1l-.1-.2h-.2l-.1-.2h-.3v-.2h-.2q-.2 0-.2-.2h-.2l-.2-.1v-.1h-.2v-.1l-.2-.1-.2-.1-.1-.1h-.2l-.1-.1v-.1h-.1l-.2-.1-.1-.1h-.1l-.2-.1-.1-.1h-.1l-.2-.1-.1-.1h-.1l-.2-.1h-.2l-.2-.1q0-.2-.3-.2h-.2l-.1-.2h-.4v-.2h-.3q-.2 0-.2-.2h-.3l-.1-.1-.2-.1h-.1l-.1-.1-.2-.1-.3-.1-.2-.1-.1-.1-.2-.1h-.2l-.1-.1-.2-.1h-.1l-.1-.1-.2-.1h-.1v-.1l-.1-.1h-.1v-.1l-.1-.1h-.1v-.1h-.1l-.1-.2-.1-.2h-.1v-.2h-.1l-.2-.2v-.1q0-.3-.2-.2v-.1l-.2-.1V95l-.2-.1v-.1l-.2-.1v-.2l-.1-.1-.1-.1-.1-.1-.1-.1V94l-.1-.2h-.1l-.1-.2h-.1l-.1-.2h-.1l-.1-.2h-.1l-.1-.1-.1-.1-.1-.1-.1-.1-.2-.1-.1-.1-.2-.1v-.1h-.2v-.1l-.2-.1V92l-.2-.1v-.8h.1l16.4-.1zm-168.5.2H53l-.1.1-.2.1h-.1l-.2.1-.2.1-.1.1-.2.1-.3.1-.2.1-.1.1H51q-.2 0-.2.2h-.1q0 .2-.2.2h-.1l-.1.2H50l-.1.2h-.2l-.1.2h-.1l-.3.1-.2.1v.1l-.2.1h-.2v.1l-.2.1-.1.1-.2.1H48l-.1.1-.2.1h-.1l-.1.1-.1.1-.2.1-.1.1H47v.1h-.2l-.1.2h-.1q0 .2-.2.2h-.1l-.2.2h-.2v.2h-.2q-.2 0-.2.2h-.1l-.2.1-.1.1-.1.1-.1.1-.2.1-.1.1h-.1v.1l-.1.1h-.1v.1l-.1.1h-.3v.3h-.1l-.2.1v.1h-.2v.2h-.2v.2H43v.2h-.2v.2h-.1l-.1.2h-.1l-.1.1v.1h-.1l-.1.1v.1H42l-.1.1v.1h-.1l-.1.1v.1l-.1.1-.1.2-.1.1h-.1v.1l-.1.2h-.1v.2H41l-.1.2-.1.2q-.2 0-.2.2v.2h-.2v.4h-.2v.3q0 .3-.2.2v.1q-.2 0-.2.3v.2l-.1.2-.1.2-.1.3-.1.2v.2l-.1.2-.1.2v.2l-.1.2-.1.2v.4l-.1.4-.1.2v.3l-.1.8-.1.9v4.4l.1 1 .1.3v.2l.1.5v.4q.3 0 .2.2v.6q0 .4.2.3v.5q.2 0 .2.3v.4l-9.5.1h-9.4v-.4h.1l.1-.1v-.2l.1-.2h.1v-.1l.1-.2.1-.1v-.1l.1-.2.1-.1v-.1l.1-.1h.1v-.2l.1-.1.1-.2v-.1l.1-.1v-.2h.2v-.2l.2-.2v-.2h.2v-.3q0-.2.2-.2v-.1l.2-.2v-.2h.1l.1-.3v-.2h.1l.1-.1v-.1l.1-.2h.1v-.2h.1l.1-.2.1-.2.1-.1v-.2l.1-.1.1-.1v-.1h.1l.1-.2v-.1l.1-.2.1-.1v-.1l.1-.2h.1v-.1l.1-.1v-.2h.2v-.3q0-.2.2-.2v-.1l.2-.1v-.3l.2-.1v-.3l.2-.1v-.2l.1-.1.1-.1v-.2l.1-.1.1-.1v-.2h.1l.1-.2.1-.2.1-.2.1-.1.1-.2v-.1h.1l.1-.1v-.2l.1-.2.1-.1.1-.2.1-.1v-.1h.1v-.2l.2-.1v-.2l.2-.2v-.2q0-.2.2-.2v-.1q.2 0 .2-.2v-.1l.2-.1v-.4l.1-.1h.1v-.2l.1-.1.1-.1.1-.3.1-.2h.1l.1-.2v-.2h.2v-.2l.1-.1.1-.2v-.1l.1-.1.1-.2v-.1l.1-.1.1-.1.1-.2.1-.1v-.1h.1V99l.2-.2.2-.2v-.2h.2v-.5h.2v-.2q0-.2.2-.2v-.2l.1-.1h.1V97l.1-.1.1-.2v-.1l.1-.1.1-.2h.1l.1-.2v-.2h.1l.1-.2v-.1l.1-.2h.1v-.1l.1-.1.1-.2.1-.1.1-.2v-.2h.1l.1-.1v-.2l.1-.1.2-.1v-.2l.2-.2v-.2q0-.2.2-.2v-.3h.2v-.2l.1-.2.1-.1v-.1l.1-.2.1-.1.1-.1.1-.2v-.1h.1l.1-.1v-.2h18.2m25.8.3v.1l.1.4v.3l.1 2.2v3.1l-.1.9-.1.2v.2h-.4v-.2h-.2v-.2h-.1l-.1-.2H78V98l-.1-.1-.1-.1-.1-.1-.1-.1v-.1h-.2v-.2h-.2v-.2H77V97h-.2v-.2h-.2v-.2h-.1l-.1-.1-.1-.2h-.1L76 96l-.1-.2h-.1l-.1-.2h-.1l-.1-.1-.1-.1-.1-.3v-.3h.1v-.1l.1-.1h.2v-.1l.2-.1v-.1l.2-.1v-.1l.2-.1.2-.1.1-.2h.1l.1-.2h.1l.1-.2h.1l.1-.2h.1l.1-.1.1-.1.1-.1.1-.1.1-.1.1-.1.1-.2.1-.1v-.1h.1l.1-.1h.1v-.1l.2-.1v-.1l.2-.1zm-24.3 2.2h.1v.9l-.1.7v.5q0 .5-.2.4V98q-.2-.1-.2.4v3l.1.2v.1l.1.1.1.1.1.1.2.1h.1l.1.1.2.1h.1l.1.1h.1v.2h.6l.1.2h.4q.4 0 .3.2h.2q0 .2.3.2h.4l.1.2h.6v.1l.2.1h.2v.1l.2.1v.3H59v.1l-.1.1-.1.2v.1l-.1.1-.1.2-.1.2h-.1v.2h-.1l-.1.2-.1.2-.1.2-.1.1-.1.2v.1l-.1.1v.2l-.2.1v.3l-.2.1v1.3l.1.1v.2h.1l.1.1.1.1.1.2v.1h.1l.1.1v.1h.1l.1.1v.1h.1l.1.1v.1h.1v.1h.2v.2q.2 0 .2.2v.2h.2v.2h.2v.2h.2v.1l.1.2.1.1.1.1.1.1.1.1.1.1.1.1.1.2v.1h.1l.1.1v.1h.1l.1.1.1.2.1.2h.1l.1.2h.1l.1.2h.1v.2l.2.1v.1l.2.1v.1l.2.1v.3h.2v.2h.1l.1.1v.1l.1.1.1.2h.1l.1.2h.1l.1.2.1.2h.1v.2h.2v.3h.3v.2l.1.1.1.1.1.2v.1h.1v.1l.2.1v.1l.2.1v.3h.2v.2h.2v.2h.2v.2l.1.2h.1l.1.2h.1l.1.1.1.2v.1h.1l.1.1v.1h.1l.1.1v.1l.1.1.1.2.1.1h.1v.1l.1.1h.1v.2l.1.1.2.2.2.2v.2h.2v.2h.2v.2h.2v.2l.1.1.1.2.1.1.1.1v.2h.3v.2l.1.1.1.1h.1v.2l.1.2h.1l.1.2h.1l.1.2h.1v.2h.1l.1.1v.1h.1v.1l.2.1v.3h.2v.1l.2.1v.1q.2 0 .2.2v.2h.1l.1.1.1.2h.1v.2h.1l.1.2.1.2h.1v.2h.2v.1l.1.2.1.1.1.1.1.1.1.1.1.1v.1l.1.2h.1v.1l.1.1v.2h.2v.2h.2v.2h.2v.2l.2.2.2.2-.1.1v.1H73l-.2-.1h-.1v-.2h-.5l-.1-.1-.1-.1h-.2v-.1l-.2-.1h-.2v-.2h-.2l-.2-.1v-.1h-.2v-.1l-.1-.1h-.1v-.1l-.1-.1h-.1v-.1l-.1-.1h-.1v-.1l-.1-.1H70v-.1l-.1-.2h-.3v-.4h-.2v-.2h-.2v-.1l-.1-.1q-.3 0-.2-.2v-.2h-.2v-.2h-.2v-.3l-.2-.1v-.1l-.2-.1v-.1l-.1-.1-.1-.1v-.2h-.2v-.2h-.1l-.1-.2-.1-.2h-.1l-.1-.1-.1-.1-.1-.2-.1-.1v-.1h-.1l-.1-.1v-.1l-.1-.1-.1-.2-.1-.1h-.1v-.1l-.1-.2v-.1H66v-.1l-.2-.2-.2-.2v-.2h-.2v-.3l-.2-.1v-.1l-.1-.1-.1-.1v-.2h-.1l-.1-.1-.1-.1-.1-.1-.1-.2-.1-.1v-.1h-.1l-.1-.1v-.1l-.1-.1-.1-.2h-.1l-.1-.2-.1-.2h-.1v-.2h-.1l-.2-.1v-.1l-.2-.2v-.2h-.2v-.2h-.2v-.3l-.2-.1v-.1l-.1-.1h-.1v-.2l-.1-.1H62v-.2h-.2v-.2h-.1l-.1-.2-.1-.2h-.1l-.1-.1-.1-.1-.1-.2-.1-.1v-.1l-.1-.1v-.1l-.1-.1-.1-.2-.1-.1-.2-.1v-.1q-.2 0-.2-.2v-.1l-.2-.2-.2-.2v-.2h-.1l-.1-.2h-.1l-.1-.1v-.1h-.1l-.1-.2v-.1l-.1-.1H59v-.1l-.1-.1h-.1v-.1l-.1-.1h-.1v-.2l-.1-.1-.1-.1-.1-.1-.1-.1-.1-.1H58v-.2h-.1q-.3 0-.2-.2v-.2h-.2l-.2-.2-.2-.1v-.1h-1v.1H56l-.1.2-.1.5v.7l.2.1v.2l.2.2v.2h.2v.2q.2 0 .2.2v.2h.2v.3h.1l.1.1v.1l.1.2h.1v.1l.1.1.1.2.1.1.1.1v.2h.2v.2h.1l.1.2.1.2h.1v.2h.1l.1.2.1.1.1.2.1.1v.1q0 .3.2.2v.1h.2v.3l.2.1v.1l.2.1v.2l.2.1v.2h.2v.2l.1.2h.1l.1.2h.1l.1.1.1.2v.1h.1l.1.1v.3h.3v.1l.1.2.1.1.1.1v.2h.2v.2h.1v.2h.2v.2q.2 0 .2.2v.2h.2v.1l.2.1v.2l.1.1.1.1.1.2.1.1v.1h.1l.1.1v.1l.1.1.1.2h.1l.1.2.1.2h.1v.2h.2v.2h.1l.1.2.1.1.1.1.1.1v.1l.2.1v.2l.2.1v.1q.2 0 .2.2v.1l.2.1v.1q.2 0 .2.2v.1l.1.2h.1l.1.2h.1l.1.2h.1v.2h.1l.1.1v.2l.1.1h.1v.1l.1.1h.1v.1l.1.1.1.1v.2h.1l.1.1.1.1v.1h.2v.3h.2v.2h.2v.2h.2v.2q0 .2.2.2v.1l.1.1h.1v.1l.1.1h.1v.1l.1.1h.1v.1l.1.1h.1v.1l.1.1h.1v.1l.1.1h.1v.1l.1.1h.1v.1h.2l.1.2h.1q0 .2.3.2h.2v.2h.5v.2h.3l.2.1v.1h.1l.2.1.2.1h.2l.1.1.2.1h.2l.2.1.2.1h.2l.2.1.1.1h.2l.1.1.2.1h.4l.3.1.1.1h.2l.3.1.3.1h.2l.2.1h.4q.5 0 .4.2h.3q-.1.2.4.2h.5l.1.2h.7q0 .2.2.2h.5l.3.1.2.1h.2l.3.1.3.1h.2l.3.1.3.1h.2l.4.1.3.1h.2l.2.1.3.1h.3l.2.1.2.1h.4l.4.1.2.1h.2l.4.1.4.1h.2l.2.1h.5q.5 0 .4.2h.4q-.1.2.5.2h.6q.3 0 .2.2h.7q-.1.2.4.2h.7l.2.1.4.1h.4l.3.1.2.1h.6l.5.1.1.1h.1l.4.1.4.1h.2l.1.1.4.1h.4l.1.1.2.1.2.1v.1l.2.1v.9l-.1.3v.6l-.1.6-.1.3v.2l-.1.6-.1.5v.2l-.1.3-.1.4v.4l-.1.3-.1.4v.2l-.1.3-.1.3v.3l-.1.2-.1.2v.4l-.1.3-.1.1v.2l-.1.3v.3l-.2.1v.5q0 .4-.2.3v.4q-.3-.1-.2.4v.4l-.2.1v.4l-.2.1H92l-.3-.1h-.5q-.6 0-.5-.2H90q.1-.2-.5-.2h-.8q-.2 0-.2-.2h-1.3l-.2-.1-.2-.1h-.5l-.5-.1-.3-.1h-.3l-.4-.1-.5-.1H84l-.3-.1-.4-.1h-.4l-.3-.1-.4-.1H82l-.3-.1-.4-.1h-.4l-.3-.1-.2-.1h-.6l-.5-.1H79q-.3 0-.2-.2H78q0-.2-.3-.2H77q-.5 0-.4-.2h-.4q.1-.2-.4-.2h-.6q-.3 0-.2-.2h-.7l-.2-.1-.3-.1h-.3l-.3-.1-.3-.1h-.3l-.2-.1-.3-.1h-.3l-.2-.1-.2-.1h-.2l-.4-.1-.3-.1h-.2l-.2-.1-.3-.1h-.3l-.2-.1-.2-.1h-.3l-.3-.1h-.2l-.2-.2h-.5l-.1-.2H67q-.3 0-.3-.2h-.4q0-.2-.2-.2h-.4q-.2 0-.2-.2h-.2l-.2-.1-.2-.1h-.1l-.2-.1-.2-.1h-.3l-.1-.1-.2-.1h-.2l-.2-.1v-.1h-.2l-.2-.1-.2-.1-.2-.1-.2-.1h-.1l-.1-.1v-.1H62l-.2-.1-.1-.2h-.3v-.2h-.2l-.2-.2h-.2l-.1-.2h-.2l-.1-.2h-.2v-.2H60v-.1l-.2-.1-.1-.1-.1-.1-.1-.1-.1-.1-.2-.1-.1-.1H59v-.1l-.1-.1h-.1v-.1l-.1-.1h-.1v-.1h-.1l-.1-.2h-.1l-.1-.2H58l-.1-.2h-.3v-.4h-.2v-.1l-.2-.1v-.1l-.2-.1v-.1l-.2-.1v-.1l-.1-.1h-.1v-.1l-.1-.1h-.1v-.1l-.1-.1h-.1v-.1l-.1-.1H56v-.1l-.1-.2h-.1l-.1-.2h-.1l-.1-.2h-.1l-.1-.2h-.1l-.1-.2H55v-.1l-.2-.1v-.1l-.2-.1v-.3h-.2v-.1l-.2-.1v-.1l-.2-.1v-.1l-.1-.1-.1-.1-.1-.1h-.1v-.2h-.2v-.2h-.1l-.1-.2-.1-.2H53l-.1-.2h-.1v-.1l-.1-.2h-.1v-.1h-.1l-.1-.1v-.2l-.1-.1-.2-.1v-.1l-.2-.1v-.2l-.2-.2-.2-.2v-.2h-.2v-.2h-.1l-.1-.2H51l-.1-.2v-.1l-.1-.1h-.1v-.1l-.1-.1h-.1v-.1l-.1-.2-.1-.1-.1-.1-.1-.1-.1-.1-.1-.1v-.1l-.1-.2h-.1l-.1-.2h-.1v-.2h-.1v-.2h-.2v-.2H49v-.3q0-.3-.2-.2v-.1h-.2v-.2h-.2v-.3l-.1-.1h-.1v-.2l-.1-.1-.1-.1-.1-.2-.1-.1v-.2h-.1l-.1-.2h-.1l-.1-.2-.1-.2-.1-.1v-.2H47l-.1-.1v-.1l-.1-.2h-.1v-.1l-.1-.1-.1-.2-.1-.1v-.1l-.2-.2v-.1l-.2-.1v-.2q0-.2-.2-.2v-.2l-.2-.2v-.1l-.1-.2-.1-.1v-.1l-.1-.1h-.1v-.2l-.1-.1-.1-.2v-.1l-.1-.1-.1-.2-.1-.1-.1-.2v-.2h-.1l-.1-.1v-.2l-.1-.2h-.1v-.1l-.1-.2-.1-.2v-.1l-.1-.3v-.2l-.1-.1v-.1q-.2 0-.2-.2v-.3q0-.2-.2-.2v-.3q-.2 0-.2-.2v-.3l-.2-.1v-.4q-.2 0-.2-.2v-.5l-.1-.2-.1-.2-.1-.4-.1-.3v-.2l-.1-.1-.1-.4v-.4l-.1-.1-.1-.2v-.4l-.1-.4-.1-.2v-.3l-.1-.5-.1-.5v-6l.1-.4v-.2q0-.2.2-.2v-.7l.2-.1v-.3q0-.3.2-.2v-.2q.2 0 .2-.3v-.2l.2-.1v-.4l.1-.1.1-.2v-.1l.1-.1.1-.1.1-.2.1-.1v-.1h.1l.1-.2v-.1h.1l.1-.2h.1l.1-.2v-.2h.2v-.3h.3v-.2l.1-.1.1-.1v-.1h.2v-.2h.2v-.2h.2v-.2h.2v-.1h.2V99h.4v-.2h.3l.1-.2h.1l.1-.2h.2l.1-.2h.1l.1-.1.1-.1h.1l.2-.1v-.1l.2-.1.2-.1v-.1l.2-.1h.2v-.2h.2l.1-.1.2-.1h.1l.1-.1.2-.1.1-.1.1-.1h.2v-.1h.1l.1-.2h.2l.1-.2h.3v-.2h.2l.2-.2h.4v-.2h.2l.1-.1.2-.1h.1l.1-.1.2-.1.1-.1.2-.1h.2v-.1l.1-.1h.2l.2-.1v-.1h.2v-.1l.2-.1h.2v-.1l.2-.1h.1l.2-.1h.1v-.2h.5m27.4.2h.3v.1h.1l.1.1v.1h.1l.1.2v.1l.1.1h.1v.1h.1l.1.2v.2h.1l.1.2.1.2h.1v.2h.1l.1.1v.2l.1.2v.1h.2v.5h.2v.3q0 .3.2.2v.1q.2 0 .2.2v.2l.1.2h.1v.2l.1.1.1.2v.1l.1.1.1.2v.2l.1.1h.1v.3l.1.2h.1l.1.3.1.2.1.1.1.2-.1.2h-.2l-.2.1v.1h-.2l-.2.1v.1H85v.1l-.2.1-.1.1-.2.1h-.1l-.1.1-.2.1-.1.1v.1l-.2.1-.1.1-.1.1h-.1v.2h-.2v.2h-.1v.2q-.3-.1-.2.5l.1.6v.1l.1.1.1.1.1.1.1.1v.1l.1.2h.1l.1.2h.1l.1.2h.2v.2h.2v.2h.2v.2h.2v.2h.1l.1.1v.1h.1l.1.1v.1h.1l.1.1v.1h.1l.1.1v.1h.1l.1.1v.1h.1l.1.1v.1h.1l.1.5v.5H86l-.1.1v.2l-.1.2v.1q0 .3-.2.2v.4h-.2v.3q0 .3-.2.2v.3H85v.4q0 .3-.2.2v.3l-.1.2-.1.2-.1.1-.1.3v.2l-.1.1h-.1v.3l-.1.2H84v.2l-.1.2-.1.2-.1.1-.1.2v.2l-.1.2-.1.1v.1l-.1.2-.1.1v.1l-.1.2v.2q-.3 0-.2.2v.2l-.2.2v.3l-.2.1v.3q0 .3-.2.2v.2q-.2 0-.2.2v.2l-.1.2-.1.2v.2h-.2v.3l-.1.2h-.1v.1l-.1.1-.1.2v.2l-.1.2-.1.1v.1l-.1.2-.1.1v.1l-.1.2h-.1v.2l-.1.2h-.1v.3l-.1.2h-.1v.1l-.1.2v.2H80v.3q0 .3-.2.2v.1q-.2 0-.2.3v.2h-.2v.5h-.2v.3h-.1l-.1.2-.1-.1v-.7l.1-.5v-.5q0-.5.2-.4v-.7l.1-.3.1-.3v-.6l.1-.5.1-.2v-.2l.1-.5.1-.5v-.3l.1-.3.1-.5v-.5l.1-.3.1-.2v-.8l.1-.7.1-.3v-.2l.1-.6.1-.6v-.3l.1-.4.1-.7v-.7l.1-.5.1-.4v-.7l.1-.8v-.6q0-.9.2-.7V105c.2 0 .2 0 .2-.9v-1.4q0-.7.2-.6v-8h.2v-.2h.3zm5.2 3h.1l.2.1.2.1.1.1h.2l.1.2h.1q0 .2.2.2h.2l.2.2h.1l.1.2h.2l.1.2h.3v.2h.2l.2.1v.1l.2.1.2.1v.1l.2.1h.1l.1.1v.1h.2l.1.1.1.1.1.1.1.1.1.1h.2l.1.2h.1l.1.2h.1v.2h.2v.2h.2v.2h.2v.3h.2v.1l.2.1v.3h.1l.1.1v.1h.1l.1.1v.1l.1.2.1.2.1.1.1.2.1.2.1.2v.2l.1.1.1.1.1.3.1.2v.2l.1.2.1.1v.1l.1.2.1.2v.2l.1.2v.2q0 .3.2.2v.4q.3 0 .2.3v.5l.2.1v.8q.2 0 .2.2v.7l.1.6.1.2v.2l.1.6.1.5v.4l.1.3.1.5v.6l.1.4.1.5v.5l.1.5.1.6v.5l.1.5.1.5v.8l.1.8.1.5v.4l.1 1 .1 1.1v.6l.1.6.1 1.3v1.4l.1.5v.6c.2 0 .2 0 .2 1.4v2q0 .8.2.6v2.9c.2 0 .2 0 .2.8v.9H98l-.2-.1-.1-.1h-.3l-.2-.1-.1-.1-.3-.1-.3-.1-.1-.1H96q-.4 0-.3-.2h-.2q.1-.2-.4-.2h-.5q-.3 0-.2-.2H94v-.2h-.2v-6.5c0-6.3 0-6.3-.2-6.3v-5.3q-.2.2-.2-.7v-1.3l-.1-.6-.1-.2v-.2l-.1-.1H93v-.3h-.3l-.2-.1H92v.3h-.3v.4l-.1.2c-.2 0-.2.1-.2 1.5v4.4c0 2.9 0 2.9-.2 2.9v4.2c-.2 0-.2 0-.2 3.5v3.6h-.5l-.4-.1-.5-.1h-.2l-.2-.1-.5-.1h-.4l-.2-.1-.2-.1h-.4l-.4-.1-.3-.1h-.2l-.4-.1-.3-.1h-.3l-.4-.1h-.3q-.4 0-.3-.2H84q0-.2-.3-.2H83q-.4 0-.4-.2h-.4q0-.2-.3-.2h-.6l-.1-.2h-.8l-.2-.1-.2-.1h-.3l-.4-.1-.1-.1H79l-.3-.1-.3-.1-.1-.3v-.3h.1v-.1q.2 0 .2-.2v-.2h.2v-.2l.2-.2v-.2h.2v-.2l.1-.1.1-.2v-.1l.1-.1.1-.1.1-.2.1-.1v-.1h.1l.1-.3v-.2h.1l.1-.1v-.1l.1-.2h.1l.1-.2.1-.2.1-.2.1-.1v-.2h.1l.1-.1v-.1l.1-.2v-.1l.2-.1v-.3l.2-.1v-.3l.2-.1v-.2l.2-.2v-.2q0-.2.2-.2v-.3l.1-.2.1-.2.1-.1.1-.1v-.2l.1-.1.1-.1v-.2l.1-.1.1-.1v-.2h.1l.1-.2v-.2h.1l.1-.2v-.1l.1-.2.1-.2v-.1h.1l.1-.3v-.2h.1l.1-.1v-.2l.1-.2.2-.1v-.4q.2 0 .2-.2v-.3q0-.2.2-.2v-.1q.2 0 .2-.2v-.3l.1-.2.1-.1v-.1l.1-.2.1-.2v-.2h.1l.1-.3v-.2h.1l.1-.1v-.2l.1-.2.1-.1v-.2l.1-.2.1-.2.1-.1.1-.2v-.2l.1-.1.1-.2v-.2l.1-.2h.1l.1-.3.1-.2v-.1l.1-.1v-.2q0-.2.2-.2v-.3q.2 0 .2-.2v-.3l.2-.2v-.2q.2 0 .2-.2v-.2l.1-.1.1-.3v-.3h.1l.1-.1v-.2l.1-.2.1-.1v-.2l.1-.2.1-.2.1-.2.1-.2v-.2l.1-.3.1-.2v-.8l-.1-.3-.1-.1v-.2h-.1l-.2-.2v-.2h-.2v-.2H88v-.2h-.2v-.2h-.1l-.1-.1v-.1h-.1l-.1-.1v-.1h-.1l-.1-.1v-.1H87l-.1-.1v-.1h-.1l-.1-.1v-.1h-.3v-.3h-.3v-.4h.1q0-.2.2-.2h.2q.2 0 .2-.2l.2-.1.2-.1v-.1l.3-.1h.2v-.1l.1-.1.1-.1.1-.1.2-.1.1-.1h.1v-.2l.1-.1.1-.2v-.1l.1-.5v-.5l-.1-.3v-.3l-.1-.1v-.1q-.3 0-.2-.2v-.3h-.2v-.5H88v-.4h-.2V98l-.1-.2-.1-.1-.1-.1-.1-.2v-.1l-.1-.1-.1-.2zm105.5 2.8h.2l.1.2h.4l.1.2h.4l.2.2q0 .2.3.2h.3l.1.2h.4l.1.1v.1h.3l.3.1v.1h.1l.2.1.2.1.2.1v.1h.2l.2.1v.1h.2l.1.1.2.1h.1v.1l.1.1h.2l.2.1h.1v.2h.3l.1.2h.2l.1.2h.2q0 .2.2.2h.2v.2h.4v.2h.2l.1.1.1.1.2.1.1.1h.1v.1l.2.1h.1l.1.1v.1h.1l.1.1.1.1h.2v.1l.1.1h.1l.2.1v.2h.4v.3h.2v.1h.2v.2h.1l.1.2h.1l.2.1.1.1.1.1.1.1.1.1.1.2v.1h.1l.1.1v.1h.1l.1.1v.1h.1l.1.1v.1h.1l.1.2v.1h.1v.2h.2v.2h.2v.2h.2v.2l.2.1v.3h.1l.1.1v.2l.1.1h.1v.1l.1.2.1.2v.1h.1l.1.2v.1l.1.2h.1v.2l.1.2h.1v.2l.1.1.1.2v.1l.1.1.1.2v.1l.1.1.1.2v.1l.1.1v.2h.2v.4q.3 0 .2.2v.2h.2v.5l.2.1v.3q0 .3.2.2v.3l.1.2.1.2v.1l.1.2.1.2v.3l.1.2.1.2v.2l.1.2.1.2v.2l.1.2.1.2v.2l.1.2.1.2v.2l.1.2.1.3v.1l.1.1.1.4v.3l.1.1.1.2v.3l.1.3v.2h.2v.7q.3 0 .2.2v.6q0 .4.2.3v.4q.2 0 .2.3v.5l.1.2.1.4v.3l.1.4.1.4v.3l.1.2.1.3v.2l.1.3.1.3v.4l.1.4.1.2v.3l.1.4.1.5v.2l.1.2.1.5v.6l.1.1.1.2v.5l.1.5.1.2v.3l.1.5.1.5v.4l.1.4v.4q0 .5.2.4v1.1q.3-.1.2.4v.9q0 .6.2.5v.7c.2 0 .2 0 .2.9v1.4l.1.4.1 3v2.8l-.1 1.2v1.2l-.1 1.7-.1 1.7v.6l-.1.6-.1 1v.8l-.1.8-.1.7v.8l-.1.8-.1.6v.7l-.1.5-.1.5v.6l-.1.5-.1.3v.2l-.1.5-.1.6v.3l-.1.3-.1.6v.5l-.1.2-.1.2v.9h-.3l-.3.1-.3.1h-.7l-.7.1H208l-.7-.1h-.5l-.6-.1-.4-.1h-.3l-.4-.1-.3-.1h-.3l-.4-.1h-.2l-.2-.2h-.6v-.2h-.2v-.3l-.1-.2-.1-7.2v-7.3l-.1-1.7-.1-1.7v-.8l-.1-.8-.1-1v-1l-.1-.5-.1-.5v-.6l-.1-.7-.1-.5v-.4l-.1-.5-.1-.6v-.5l-.1-.5-.1-.4v-.3l-.1-.4-.1-.4v-.2l-.1-.3v-.5q0-.5-.2-.4v-.5q-.2.1-.2-.4v-.7q0-.3-.2-.3v-.9q-.2 0-.2-.2v-.6q0-.4-.2-.4v-.5l-.1-.3-.1-.4v-.2l-.1-.3-.1-.2v-.3l-.1-.3-.1-.4v-.2l-.1-.2-.1-.4v-.3l-.1-.2-.1-.1v-.3l-.1-.4-.1-.1v-.1l-.1-.4-.1-.4v-.2h-.1l-.1-.4v-.3l-.1-.2-.1-.1v-.3l-.1-.2v-.2l-.2-.1v-.4l-.2-.1v-.4l-.2-.1v-.4q-.2 0-.2-.2v-.2l-.1-.2-.1-.1v-.1l-.1-.2-.1-.1-.1-.1h-.1v-.2h-.2v-.2h-.9l-.1.1h-.1v.1q-.2 0-.2.2v.2l-.2.2v.8l.1.2v.2l.1.3.1.3v.3l.1.2.1.3v.3l.1.3.1.3v.2l.1.2.1.3v.4l.1.2.1.2v.3l.1.3v.2q0 .3.2.2v.8q.3 0 .2.2v.7q0 .5.2.4v.4q.2-.1.2.5v.6q0 .2.2.2v.8l.1.4.1.4v.3l.1.4.1.4v.4l.1.3.1.3v.4l.1.4.1.3v.2l.1.5.1.5v.3l.1.3.1.5v.6l.1.2.1.3v.6l.1.6.1.4v.4l.1.7v.7q.3-.1.2.5v1.4c0 .9 0 .9.2.9v1.9c.2 0 .2 0 .2 1.4v3.8c0 2.3 0 2.4.2 2.4v2.6l-.1.3v.3l-.1.1h-.3l-.3.1-.2.1h-.2l-.2.1-.3.1h-.3l-.2.1-.4.1h-.4l-.3.1-.2.1h-.5l-.5.1h-.2l-.2.2h-1q.1.2-.4.2h-1q-.9 0-.7.2h-1q.2.2-.8.2h-1.4l-.5.1-1.3.1h-1.2l-1.6.1-1.6.1h-4.2l-.7-.1h-.9q-1.2 0-1-.2v-.3l-.1-.4v-.8q0-1-.2-.8v-.9q-.2.2-.2-.6v-8.7l.1-4.5V142l.1-1.9.1-2.9v-2.9l.1-1.7.1-1.7v-2.2l.1-2.3.1-1.5v-1.5l.1-1.4.1-1.3v-1.1l.1-1 .1-1v-.9l.1-.8.1-1v-.6l.1-.8.1-1v-1l.1-.7v-.5c.2 0 .2 0 .2-1.1v-1.6q0-.7.2-.6v-.1h.4v.2l.2.1v.2h.1l.1.2.1.2h.1v.2h.2v.2h.2v.2l.1.1.1.1.1.2.1.1v.1h.1l.1.2v.1l.1.1h.1v.1l.1.1.2.1v.2l.2.2.2.2v.2h.2v.2h.2v.2l.1.1.1.2.1.1h.1v.1l.1.1h.1v.1l.1.1h.1v.1l.1.1h.1v.1l.1.1h.1v.1l.1.1h.2l.1.1h.9l.2-.1.2-.1v-.1h.1l.1-.1v-.1h.1l.1-.1v-.1h.1l.1-.1.1-.2h.1l.1-.2v-.2h.3v-.2h.1l.1-.1v-.1h.1l.1-.1v-.1h.1l.1-.1v-.1h.1v-.3h.4v-.3l.2-.1v-.1l.2-.1v-.1l.1-.1h.1v-.2h.2v-.2l.1-.2h.1l.1-.2h.1l.1-.1.1-.2v-.1h.1l.1-.1v-.1h.1l.1-.1v-.1h.1l.1-.1v-.2l.1-.1h.1v-.1l.1-.2v-.1h.2v-.3h.2v-.2h.2v-.2h.2v-.3l.2-.1v-.2l.1-.1.1-.1.1-.2.1-.1v-.1h.1l.1-.1v-.1l.1-.1.1-.2.1-.1h.1v-.1h.1l.1-.2.1-.2h.1v-.2h.1l.1-.2.1-.1.1-.2v-.1h.1v-.1q.2 0 .2-.2v-.1l.2-.1v-.3l.2-.1v-.2l.2-.1v-.3h.2v-.2l.1-.2h.1v-.2h.1l.1-.1v-.2l.1-.1.1-.1v-.2h.1l.1-.1zm-115.8.7h.1l.2.1.1.2h.1l.1.1v.1h.2l.1.1.1.1.2.1.1.1.2.1v.1h.2l.2.1v3.1l-.1.8v.7l-.1.8-.1.5v.5l-.1.5-.1.6v.4l-.1.4-.1.2H78v-.4l-.1-.2v-.2l-.1-.3-.1-.3-.1-.2v-.3q0-.2-.2-.2v-.4q-.2 0-.2-.3v-.5l-.2-.2v-.4q-.2 0-.2-.2v-.4l-.2-.1v-.7l-.1-.2-.1-.2v-.3l-.1-.4-.1-.2v-.2l-.1-.5v-.6l.2-.2v-.8h.2v-.4l.1-.2.1-.1v-.2zm-7 .1.2.2v.1q0 .3.2.2v.1l.2.1v.2l.1.1.1.1v.2h.1l.1.1v.1l.1.2.1.2v.2l.1.7v1.3q0 .6-.2.5v1q-.2 0-.2.3v.8q0 .6-.2.5v.5l-.1.6-.1.6v.2l-.1.2-.1.1v.2H70v-.3l-.1-.1v-.2l-.1-.2-.1-.3v-.1l-.1-.2h-.1v-.2l-.1-.2h-.1v-.2l-.1-.1-.1-.2v-.2l-.1-.2v-.1l-.2-.1v-.3l-.2-.1v-.4h-.2v-.4q0-.2-.2-.2v-.2q-.2 0-.2-.2v-.3l-.1-.2-.1-.2v-.2h-.1l-.1-.1v-.1l-.1-.2-.1-.1v-.1l-.1-.2-.1-.2v-.2h-.1l-.1-.2v-.1l-.1-.2-.1-.2v-.1h-.1l-.1-.4v-.3h.5l.2.1.4.1h.3l.1-.1.1-.1.1-.1h.1l.2-.1v-.1h.1v-.1h.1l.1-.2v-.2h.3v-.3h.3v-.1h.1l.2-.1zm96.4 1v.3l.1.2.1 1.2v1.2l.1.3.1.2v.6l.1.6.1.3v.2l.1.6.1.5v.2l.1.2.1.4v.4l.1.1.1.1v.3l.1.3h.1v.2l.1.2h.1v.3l.1.2h.1v.1h.1l.2.1v.1h.2v.1l.3.1h.2l.2-.1h.1l.1-.2h.2l.1-.2h.3v-.1l.1-.1.1-.1.1-.1.1-.1.1-.1.1-.1.1-.1.1-.1v-.1h.2v-.2h.2v-.2h.2v-.2h.2v-.1h.2v-.3h.3v-.1h.1v-.2h.1v-.2h.3v-.1l.1-.1h.1v-.3h.2l.1-.1h.1v-.1l.1-.1h.1v-.1l.1-.1.2-.1v-.1l.2-.1v-.1l.2-.1v-.1l.3-.1h.2v1.2l-.1.4-.1.5v1l-.1 1-.1.5v.5l-.1 1-.1.8v.7l-.1.7-.1 1v1.2l-.1 1-.1 1v1l-.1 1.2-.1 1.5v1.5l-.1 1-.1 1.1v3l-.1 3-.1 1.2v1.3l-.1 2.8-.1 2.8v2.5l-.1 2.4v4.5c0 4.4 0 4.4-.2 4.4v1.6l.1 1.1v1.2l.1.3.1.3v.7l.1.6.1.2v.2h-.1q.1.2-.6.2l-.5-.1h-.4l-.5-.1-.7-.1h-.8l-.4-.1-.5-.1h-.7l-.7-.1-.3-.1h-.3l-.4-.1-.5-.1h-.2l-.3-.1-.3-.1h-.4l-.2-.1-.2-.1h-.2l-.3-.1h-.3q-.4 0-.3-.2h-.4q0-.2-.3-.2h-.3l-.1-.2h-.4l-.1-.2h-.2q-.2 0-.2-.2h-.2v-.2h-.1l-.1-.1-.1-.1h-.2v-.3h-.2v-.1l-.1-.1v-.1h-.1l-.1-.2v-.1l-.1-.2h-.1v-.2l-.1-.2-.1-.3v-.3l-.1-2V152l.1-.9v-.8l.1-.6.1-.6v-1.5l.1-1.4v-1c0-1 0-1 .2-1V142c.2 0 .2 0 .2-1.3V136c0-3.2 0-3.2.2-3.2v-1l-.1-4.6v-4.6l.1-1.7v-1.6l-.1-.7v-.6l-.1-.2-.1-.1-.1-.1-.1-.1-.1-.1-.2-.1h-.2l-.1-.1h-.3l-.2.2-.2.2q-.2 0-.2.3v.6q0 .5-.2.4v1.6c-.2 0-.2 0-.2.9v1.9l-.1 1-.1 1.5v1.6l-.1 1.4-.1 1.4v.6l-.1.6h-.1v.1l-.1.1-.1.2-.1.1h-.1v.1l-.1.1h-.1v.1h-.1l-.1.2h-.1l-.1.2h-.1l-.1.2h-.1v.2h-.2v.1l-.2.1v.1l-.2.1v.1l-.2.1v.1l-.2.1v.1l-.1.1h-.1v.1l-.1.1h-.1v.1l-.1.1h-.1l-.1.1h-.2v.3h-.2l-.1.1-.1.2h-.1l-.1.2h-.1l-.1.2h-.1l-.1.1v.1h-.2v.2h-.2l-.2.1v.1l-.2.1v.1l-.1.1-.2.1h-.1v.1l-.1.1h-.1v.1l-.1.1h-.1l-.1.1-.2.1-.1.1-.1.2h-.3v.2h-.3v.2h-.2q0 .2-.2.2h-.2v.1l-.2.1-.2.1v.1h-.1l-.2.1v.1h-.1l-.1.1-.2.1h-.1l-.1.1-.2.1h-.1v.1l-.1.1h-.2l-.1.1-.1.1h-.2v.1l-.2.1h-.2v.1h-.2l-.2.2h-.2l-.1.2h-.4q-.2 0-.2.2h-.1q0 .2-.2.2h-.2l-.1.1-.2.1h-.2l-.2.1v.1h-.2l-.2.1v.1h-.2l-.2.1-.2.1h-.1l-.2.1-.1.1h-.1l-.2.1-.2.1h-.2l-.1.1-.2.1h-.2l-.1.1-.2.1h-.2l-.2.1q-.2 0-.2.2h-.5q0 .2-.2.2h-.3q-.2 0-.2.2h-.4q0 .2-.2.2h-.4l-.2.1-.2.1h-.2l-.2.1-.2.1h-.2l-.2.1-.3.1h-.3l-.2.1-.1.1h-.3l-.4.1v.1h-.2l-.3.1-.2.1h-.2l-.2.1-.4.1h-.3l-.1.1-.2.1h-.3l-.3.1h-.2q-.2 0-.2.2h-.5q0 .2-.3.2h-.5q-.4 0-.3.2h-.7q0 .2-.2.2h-.7l-.4.1-.2.1h-.2v-.1h-.1v-.1l-.1-.2-.1-.2v-.2l-.1-.2-.1-.3v-.3l-.1-.2-.1-.3v-.3l-.1-.2v-.1q0-.2-.2-.2v-.6q-.2 0-.2-.2v-.4q0-.4-.2-.4v-.2q-.2 0-.2-.3v-.4l-.2-.1v-.4l-.1-.1-.1-.2v-.2l-.1-.2h-.1v-.2l-.1-.2-.1-.2v-.2l-.1-.2-.1-.1v-.2l-.1-.1-.1-.1v-.2l-.1-.1-.1-.2v-.2l-.1-.1-.1-.2v-.2l-.1-.2h-.1l-.1-.2h.2l.1-.2h.3q.2 0 .2-.2h.2l.2-.1.2-.1h.2l.2-.1.1-.1h.2l.2-.1.2-.1h.1l.1-.1.3-.1h.3v-.1l.2-.1h.2l.2-.1v-.1h.2l.2-.1.3-.1h.1l.1-.1h.2q.3 0 .2-.2h.1q0-.2.3-.2h.3l.1-.2h.4q0-.2.2-.2h.3q.3 0 .2-.2h.2l.2-.1.1-.1h.2l.2-.1.1-.1h.2l.2-.1.2-.1h.1l.1-.1.2-.1h.2v-.1l.2-.1h.2l.2-.1v-.1h.2l.1-.1.2-.1h.1l.1-.1h.2l.1-.2h.3l.1-.2h.3q.3 0 .2-.2h.2q0-.2.2-.2h.2v-.2h.5v-.1l.1-.1h.1l.2-.1.1-.1h.1l.2-.1.1-.1.1-.1.2-.1h.1l.1-.1.2-.1h.1l.1-.1v-.1h.2v-.1l.2-.1.2-.1q.3 0 .2-.2h.1l.1-.2h.2l.1-.2h.1l.2-.2h.2v-.2h.3l.1-.1v-.1h.1l.1-.1v-.1h.1l.2-.1v-.1h.2v-.2h.2v-.1l.2-.1.2-.1v-.1l.2-.1v-.1l.1-.1.1-.1.1-.1h.1v-.2h.2v-.2h.2v-.2h.2v-.2h.2v-.1l.1-.1h.1v-.1l.1-.1.1-.1v-.2h.3v-.3h.2v-.2h.2v-.3l.2-.1v-.1h.2v-.2h.2v-.4h.2v-.2h.1l.1-.1v-.2h.1l.1-.1.1-.1.1-.1.1-.2.1-.1v-.1h.1l.1-.1v-.1l.1-.1.1-.2.1-.1h.1v-.1l.1-.2h.1v-.2h.1l.2-.2v-.2h.2v-.3l.2-.1v-.1q.2 0 .2-.2v-.1l.1-.1.1-.2v-.1h.1l.1-.1v-.1h.1l.1-.2v-.1h.1l.1-.2.1-.2h.1v-.2h.2v-.2l.1-.1.1-.1.1-.1.1-.1v-.1l.1-.2h.1v-.1l.1-.1v-.2h.2v-.2l.2-.2v-.1l.2-.1v-.2h.2v-.2q.2 0 .2-.2v-.2h.1l.1-.1v-.2h.1l.1-.1v-.1l.1-.2h.1v-.1l.1-.1.1-.2.1-.1.1-.1v-.2h.1l.1-.1v-.1l.1-.2h.1l.1-.2.1-.2h.1v-.2h.2v-.3h.2v-.2q0-.2.2-.2v-.1l.2-.1v-.2l.2-.1v-.3h.1l.1-.1v-.1l.1-.2h.1l.1-.2.1-.2h.1l.1-.2v-.1l.1-.1h.1v-.2l.1-.1.1-.1.1-.1.1-.1v-.1l.1-.2h.1v-.1l.1-.1.1-.2.1-.1v-.1l.2-.2.2-.2v-.2h.2v-.2h.2v-.3l.2-.1v-.1l.1-.1h.1v-.2l.1-.1.1-.1.1-.2.1-.1v-.1h.1l.1-.1v-.1h.1l.1-.1v-.2h.3v-.4h.3v-.2h.3v-.2h.2v-.1l.2-.1.2-.1v-.1l.2-.1v-.1l.2-.1.1-.1h.1v-.1l.2-.1h.1l.1-.1v-.1h.2l.1-.1.1-.1.2-.1h.1l.1-.2h.2l.1-.2h.2l.2-.2h.2v-.2h.4v-.1l.2-.1.1-.1.2-.1h.2l.1-.1v-.1h.3l.2-.1v-.1h.1l.1-.1.2-.1h.1l.1-.1v-.1h.2l.2-.1.2-.1.2-.1v-.1zm-16.1 12v.2l-.2.1v.1l-.2.1v.3h-.2v.2l-.2.2-.1.2-.1.2h-.1l-.1.2v.2h-.2v.2l-.1.1-.1.1-.1.2-.1.1v.1h-.1l-.1.2v.1l-.1.1h-.1v.3H100v-1.8q0-.5-.2-.4v-1.5h50.6zm-109.8 6 .1.2h.1v.2l.1.2.1.2v.2h.2v.3l.1.2h.1v.1l.1.1.1.2v.2l.1.2.2.1v.4l.2.1v.6q0 .4.2.3v.6q.2-.2.2.7v1.3h-3.8l-3.8.1-.4.1H34v.1l-.1.1h-.1l-.2.1v.1h-.1v.1l-.1.2-.1.1-.1.1-.1.7v.6L33 130l-.1 1.4V144l.1 1.3.1.3v.3h.1l.1.1v.2l.1.1.2.1v.1l.2.1v.1h.2l.3.1.2.1h4.2a20 20 0 0 1 4.2.2v1.1l-.1.5v.7l-.1.7-.1.4v.4l-.1.8-.1.8v.3l-.1.4-.1.7v.7H42l-.2.1-.2.1h-7.2l-.2.1H34q-.2 0-.2.2h-.1l-.1.2h-.1l-.1.2-.1.2h-.1v.1l-.1.1-.1.5v.4l-.1 1.4-.1 1.4v6a39 39 0 0 0 .7 9.7h.2v.2h.2q0 .2.3.2h.9l.7.1 3.5.1h3.4l.2-.1h.1l.1.1h.2l.7-.1h.7v.1c.2 0 .2 0 .2 1.3v5c0 3.7 0 3.7.2 3.7v4.4H44q-.4 0-.3.2h-1.1q.1.2-.4.2h-.8l-.4.1-.4.1h-.5l-.3.1-.2.1h-.5l-.6.1-.2.1H38l-.5.1-.5.1h-.3l-.3.1-.6.1h-.6l-.2.1-.3.1h-.5l-.5.1-.2.1h-.2l-.6.1-.5.1H32l-.2.1h-.4q-.5 0-.4.2h-.7q0 .2-.3.2h-.7q-.5 0-.4.2h-.7q.1.2-.4.2h-.6l-.3.1-.2.1h-.2v-.2l-.1-.2v-.1l.1-2.8V187l-.1-33.7v-33.8h.1l7-.1zm173.3 0h.5l8.1-.1a73 73 0 0 1 8.2.1v71.2l-.1 2.4h-.1l-.2.1h-.2l-.3-.1h-.2l-.4-.1-.4-.1h-.3l-.2-.1-.4-.1h-.4l-.4-.1-.3-.1h-.3l-.2-.1-.4-.1h-.4l-.3-.1-.2-.1h-.6l-.5-.1-.3-.1h-.2l-.6-.1-.5-.1h-.3l-.3-.1h-.6q-.7 0-.6-.2h-.6q.1-.2-.5-.2h-.8q-.2 0-.2-.2h-1.2q0-.2-.3-.2h-.8q-.6 0-.5-.2h-.9l-.4-.1-.4-.1h-.7l-.6-.1-.3-.1h-.3l-.7-.1-.7-.1h-.3l-.4-.1-.7-.1h-.7l-.3-.1-.4-.1h-.6l-.7-.1-.3-.1h-.4l-.3-.1-.3-.1-.1-.8v-.7l.2-.1v-.1l.2-.1.2-.1h.3l.2-.1.2-.1h.2l.3-.1.1-.1h.2l.1-.1.1-.1h.2v-.1h.2v-.2h.2l.2-.2h.2v-.2h.2q0-.2.3-.2h.5l.1-.2h.6v-.1l.1-.1h.1l.2-.1v-.1h.2v-.1l.2-.1v-.1l.2-.1h.2v-.3l.1-.1h.1v-.1l.1-.1h.1v-.1h.1l.1-.2v-.2h.2v-.2l.1-.2h.1l.1-.2.1-.1v-.1h.1l.1-.3v-.2h.1l.1-.1v-.2l.1-.2.1-.1v-.2l.1-.2.1-.2v-.2l.1-.2v-.2l.2-.1v-.6q.2 0 .2-.2v-.7q0-.5.2-.4v-.6c.2 0 .2 0 .2-1.2v-1h1.3c1.4 0 1.4 0 1.4-.2h5.8l.2-.1.2-.1h.1l.2-.1v-.1h.1v-.1l.1-.1h.1v-.1l.1-.1.1-.2v-.2l.1-.5.1-.4v-1l.1-1 .1-6.9v-7l-.1-.6-.1-.6v-.4l-.1-.4h-.1v-.1l-.1-.2-.1-.1-.1-.1v-.1h-.2l-.2-.1v-.1h-.2l-.2-.1-.2-.1h-5.8v-1.1l.1-1.5v-1.5c.2 0 .2 0 .2-1.8V147h2.7l2.5-.1h.4l.4-.1h.1q.3 0 .2-.2h.2v-.2h.1v-.2h.2v-.2l.1-.2.1-.3v-.7l.1-.7.1-7v-7l-.1-1-.1-1.2v-.3l-.1-.4-.1-.1v-.1l-.1-.1h-.1v-.1l-.1-.1-.2-.1q0-.2-.2-.2h-.4q-.4 0-.3-.2h-7.6v-.2q0-.2-.2-.2v-.9q-.2 0-.2-.2v-.6q0-.5-.2-.4v-.4l-.1-.3-.1-.4v-.2l-.1-.2-.1-.2v-.3l-.1-.3-.1-.2v-.2l-.1-.2-.1-.3v-.2l-.1-.3v-.3h.4zm-105.6.5h.1v14.2h-.1v.1l-.2.1h-.2l-.2.1-.3.1h-.1l-.1.1h-.2q-.3 0-.2.2h-.3l-.1.2h-.4l-.2.2h-.2q0 .2-.2.2h-.4v.1l-.3.1h-.2l-.1.1-.1.1h-.3l-.3.1-.1.1h-.1l-.3.1-.3.1h-.8v-.1h-.2v-.2h-.1l-.1-.2h-.1l-.1-.9v-.8l-.1-.7-.1-.7v-1l-.1-1.1-.1-1v-1l-.1-1-.1-.8v-.9l-.1-.8-.1-1v-.9l-.1-1-.1-1V120zm37 0h.1l.1.3v.3h-.1l-.1.1v.1l-.1.2h-.1v.1l-.1.1-.1.2-.1.1v.1l-.2.2v.1h-.2v.2h-.2v.1l-.2.2v.2h-.1l-.1.2h-.1l-.1.2h-.1l-.1.2-.1.1v.2h-.3v.2l-.1.1h-.1v.1l-.1.1h-.1v.1l-.1.1h-.1v.1l-.2.1h-.1v.3h-.4v.2h-.2v.2h-.2v.2h-.2l-.1.2h-.1l-.1.2h-.1l-.2.1-.1.1h-.1v.1l-.2.1h-.1l-.1.1v.1h-.2l-.1.1-.1.1-.2.1-.1.1-.2.1v.1h-.2v.1l-.2.1-.2.1h-.1q-.2 0-.2.2h-.1q0 .3-.2.2h-.2l-.1.2h-.4l-.1.2h-.2l-.1.2h-.2l-.2.1-.2.1-.2.1-.2.1h-.2v.1l-.1.1h-.2l-.2.1-.1.1-.3.1-.2.1-.1.1-.1.1h-.2l-.2.1-.2.1-.2.1h-.2q-.2 0-.2.2h-.2l-.1.2h-.4l-.1.2h-.4v.2h-.4l-.3.1v.1h-.1l-.2.1-.2.1h-.1l-.2.1-.2.1h-.2v.1l-.2.1h-.1l-.2.1-.2.1h-.2l-.1.1-.1.1h-.3l-.3.1v.1h-.2l-.2.1-.2.1h-.2v.1h-.3q-.4 0-.3.2h-.1q0 .2-.3.2h-.4l-.1.2h-.6v.2h-.4l-.2.1-.2.1-.2.1-.1.1h-.2l-.2.1-.1.1-.2.1-.1.1h-.1v.1l-.1.1h-.1v.1l-.1.2-.1.1v.2l-.1.2h-.1v.1h-.1q.2.3-.8.2l-.7-.1h-.2l-.2-.1-.2-.1h-.3l-.1-.1-.2-.1h-.2l-.3-.1v-.1h-.1l-.3-.1-.3-.1-.2-.1h-.2q-.3 0-.2-.2h-.3q0-.2-.3-.2h-.7q-.5 0-.4-.2h-.8l-.5.1h-.6l-.3.1-.3.1h-.2l-.2.1-1 .1h-1v-.1l-.1-6.5a48 48 0 0 1 .3-7.3v-.1h33.7m-99.6 8.5.2.1h.1v.1l.1.2.1.1.1.1.1.2v.1h.1l.1.1v.2h.1l.1.2.1.2h.1v.2h.2v.2h.2v.2l.1.1v.1h.2v.3l.2.1v.1l.2.1v.3h.2v.2l.1.2h.1l.1.2h.1l.1.2h.1v.2h.1l.1.2h.1l.1.2v.1l.1.1h.1v.1l.1.1h.1v.1l.1.2.1.1.1.1.1.1.1.1v.1l.2.1v.2h.2v.2h.2v.2h.2v.2q.2 0 .2.2v.1l.1.1h.1v.1l.1.1h.1v.1l.1.1h.1v.1l.1.1h.1v.1l.1.1h.1v.1l.1.2.1.1.1.1.1.1.1.1h.1v.2h.2v.2h.1l.2.2v.2h.2v.2h.3v.3h.2v.1l.1.1v.1h.1l.1.1v.1h.1l.1.1v.1h.1l.1.1v.1h.1l.1.1v.1h.1l.1.1.1.2h.1l.1.2h.1l.1.2h.1l.1.2h.2v.2h.2v.2h.4v.3l.2.1.1.1.1.1.1.1.1.1.1.1.1.1.1.1.1.1h.1l.2.1.1.2h.1l.1.2h.2l.1.2h.1l.1.2h.2l.2.1v.1l.2.1.2.1v.1l.2.1h.1l.1.1v.1h.3l.2.1v.1h.1l.2.1.2.1.1.1.2.1h.2l.1.1v.1h.3l.2.1v.2h.5l.1.2h.3q.3 0 .2.2h.4q0 .2.2.2h.3l.2.1.1.1h.2l.2.1.3.1h.2l.2.1.2.1h.3l.1.1.2.1h.3l.3.1.2.1.4.1.2.1h.2l.2.1.3.1h.2l.2.1.2.1h.2l.2.1h.4q.4 0 .3.2h.4q0 .2.3.2h.4q.3 0 .2.2h.7q0 .2.2.2h.6l.4.1v.1h.2l.4.1.4.1h.3l.2.1.3.1h.3v.1l.1.2v.1l.1 1.8v1.9l-.1 1.9v2l-.1.4-.1.4v.4l-.1.3-.1.2v.3l-.1.3-.1.2v.2l-.1.2v.4q0 .4-.2.3v.3l-.2.1v.4q0 .2-.2.2v.4q-.2 0-.2.2v.3q0 .2-.2.2v.3l-.1.2-.1.2-.1.2-.1.1v.2l-.1.1-.1.1v.2l-.1.1-.1.2v.2h-.1l-.1.1v.2l-.1.2h-.1v.2l-.1.2-.1.2h-.1l-.1.2v.1l-.1.1H72v.2l-.1.1v.1h-.2v.3q-.2 0-.2.2v.1l-.2.1v.1q-.2 0-.2.2v.1l-.2.2-.1.2h-.1l-.1.2h-.1l-.1.1-.1.1-.1.1-.1.1-.1.1-.2.1h-.1v.1l-.1.1h-.2l-.1.1-.1.1H69v.1l-.2.1h-.3l-.3.1-.1.1h-.2l-.9.1-.9.1h-4l-1.2-.1-.6-.1h-.5l-.6-.1-.7-.1H58l-.4-.1H57q-.5 0-.4-.2h-1q0-.2-.3-.2h-.8q-.5 0-.5-.2h-.3q.1-.2-.5-.2h-.7q-.2 0-.2-.2h-.9l-.2-.1-.2-.1h-.5l-.5-.1-.2-.1h-.1l-.4-.1-.4-.1h-.2l-.2-.1-.3-.1h-.3l-.2-.1-.2-.1h-.2l-.2-.1-.3-.1h-.3l-.2-.1-.2-.1H46l-.2-.1q-.2 0-.2-.2H45q0-.2-.2-.2h-.3q-.2 0-.2-.2H44l-.1-.2h-.1v-1.3l.1-.6v-.7l.1-.4.1-.4v-.7l.1-.7.1-.4v-.4l.1-.8.1-.8v-.3l.1-.3v-.8c0-.8.1-.8.2-.8v-.7c.2 0 .2 0 .2-.8v-.9q0-.4.2-.3v-1.3q.2.1.2-.6v-1.3q0-.7.2-.6v-1.4l.1-.8.1-.9v-.9l.1-1 .1-.8v-.8l.1-4.3v-5q0-.9-.2-.7V131q-.2.2-.2-.8zm-3 .4.1.5.1.4v1.3l.1 1.4.1.7v.7l.1 2.2.1 2.1v4.1l-.1 1.3v.1H36l-.1-.8-.1-.7V129zm178.4 0v15h-4v-1.8l-.1-1-.1-1v-1l-.1-1-.1-.3v-.4l-.1-.6-.1-.6v-.3l-.1-.2-.1-.7v-.6l-.1-.4-.1-.3v-.6l-.1-.6-.1-.3v-.3l-.1-.6-.1-.5v-.2l-.1-.3-.1-.4v-.4l-.1-.2v-.2h.1l2.8-.1zm-63.5 8v1.2l-.1 1.4v1.5l-.1 1.4-.1 1.5v.5l-.1.5-.1 1v1l-.1.6-.1.6v1l-.1 1-.1.7v.6l-.1 2.2v2.2l.1.2v.2l.1.4.1.4v.2h.1v.4q0 .3.2.2v.2l.2.1v.3h.2v.3l.2.1v.2l.2.1v.1l.1.2.1.1v.4l.1.3.1 1.2v1.2l-.1 3v3c-.2 0-.2 0-.2 7.6a65 65 0 0 0 .2 9v1.4l-.2.1H157l-1-.1h-1.6c-1.5 0-1.5 0-1.5-.2h-4l-.1-.2h-.1v-37.7l-.1-6v-.2l.1-.1v-.1h.2v-.1l.2-.1.2-.1.2-.1.2-.1h.1q.3 0 .2-.2h.1l.1-.2h.3l.1-.2h.3v-.2h.3l.1-.2h.3v-.1l.2-.1.2-.1v-.1h.2v-.1l.2-.1v-.1l.1-.1h.1l.1-.1.2-.1.1-.1.1-.1h.2v-.1l.1-.1.1-.1h.1v-.2h.3l.1-.2h.1v-.2h.4v-.2h.2v-.2h.2v-.2h.2v-.2h.1l.1-.1v-.1h.2l.1-.1.1-.1.1-.1.1-.1.1-.1.1-.1.1-.1.1-.1.1-.1h.1v-.2h.2v-.2h.2v-.2h.1l.2-.2h.4zm-40.8-.9h.1l.3.1.3.1.2.1.3.1h.3v.1l.2.1h.3l.2.1.2.1h.1l.3.1.2.1h.4l.3.1h.7q.8 0 .6.2h1.2v.2h.2v.2l.1.2v.1q0 .3.2.2v.1q.3 0 .2.3v.3l.2.1v.4l.2.1v.3l.1.2.1.2v.2l.1.1.1.2v.2l.1.2.1.2v.1l.1.3.1.2v.2l.1.2.1.4v.3l.1.1.1.1v.4l.1.3.1.1v.2l.1.3v.3h-.1l-.1.2h-.2q-.3 0-.2.2h-.2v-.1h-.2v-.1l-.2-.1-.2-.1v-.1h-.1l-.1-.1v-.1h-.1l-.1-.1-.1-.1h-.2v-.1l-.1-.1h-.1l-.2-.1-.1-.2h-.1l-.1-.2h-.2l-.1-.2h-.1l-.1-.2h-.2q-.2 0-.2-.2l-.2-.1v-.1h-.2v-.1l-.2-.1v-.1l-.1-.1h-.2l-.1-.1v-.1h-.1l-.1-.1v-.1h-.1l-.1-.1-.1-.1h-.2v-.1l-.1-.1h-.1l-.2-.1-.1-.2h-.3v-.2h-.2l-.2-.2h-.2v-.2h-.2q-.3 0-.2-.2h-.1l-.2-.1-.1-.1-.1-.1-.2-.1h-.1v-.1l-.1-.1h-.1v-.1l-.1-.1h-.1l-.1-.1-.2-.1-.1-.1v-.1h-.1l-.2-.1v-.1h-.2v-.1h-2.7l-.2.1h-.2v.1l-.2.1h-.1l-.1.1v.1h-.1l-.1.1-.1.2h-.1l-.1.2h-.1l-.1.2h-.3v.2h-.2v.1l-.3.1h-.2v.1l-.2.1h-1.1l-.1-.2v-.1h-.1v-.3l.2-.1v-.5l.2-.1v-.3q0-.2.2-.2l.1-.2h.1v-.2h.1l.1-.2.1-.2h.1v-.2h.2v-.1l.1-.1h.1v-.3h.2l.1-.1h.1v-.1l.1-.1h.1v-.1l.1-.1h.2v-.1l.2-.1h.2v-.1l.2-.1.2-.1h.2q.4 0 .3-.2h.1q0-.2.3-.2h.6l.2-.2zm-7.5.6-.1.2-.1.1h-.1v.1l-.1.2h-.1v.2h-.2v.2h-.1l-.1.2-.1.2h-.2v.2q-.3 0-.2.2v.2l-.2.1v.4l-.2.1v.3l-.1.3-.1.2v.2l-.1.6v.7l.2.1v.6h.2v.2l.1.2h.1l.1.2h.1l.2.2h.3l.1.1.3.1h.2l1 .1h1.2q.3 0 .2-.2h.3v-.1l.1-.1.1-.1.2-.1.2-.1v-.1h.2v-.1l.2-.1.2-.1v-.1h.1l.1-.1.1-.1h.2v-.1l.1-.1h.1l.2-.1h.1l.1-.2h.4q-.1-.2.4-.2l.4.1h.2v.1l.2.1.2.1v.1h.1l.1.1.1.1h.2v.1l.1.1.1.1h.1v.2h.3l.1.2h.2l.1.2h.1l.1.2h.2l.2.1v.1l.2.1.2.1v.1l.2.1h.1l.1.1v.1h.2l.1.1.1.1.2.1.1.1h.1v.1l.2.1h.1l.1.1v.1h.2l.1.1h.1v.2h.1l.2.2h.2v.2h.2v.2h.2l.2.1v.1h.1l.2.1.1.1.1.1.1.1.1.1.1.1h.1l.2.1v.1h.1v.1l.1.1h.1v.1l.1.1h.1l.1.1.2.1v.2l.2.1v.2q.3 0 .2.2l-.1.2-.1.2-.1.1v.2h-.1l-.2.1h-.1l-.4.1h-.6q-.3 0-.2-.2h-.1q0-.2-.2-.2h-.2l-.1-.2h-.3v-.1l-.1-.1h-.1v-.1l-.2-.1h-.1l-.1-.1v-.1h-.1l-.1-.1-.1-.1h-.2v-.1l-.1-.1h-.1l-.2-.1v-.1l-.2-.1v-.1h-.2v-.1h-.2v-.2h-.2l-.2-.2h-.8l-.1.1h-.1v.1l-.1.1-.1.5v.6h.2v.2h.1l.2.2.2.1v.1l.2.1h.2v.3h.2v.1l.1.1h.2l.1.1v.1h.1l.1.1v.1h.2l.1.1.1.1.2.1.1.1h.1v.1h.1l.1.2h.1q0 .2.2.2h.2v.2h.2v.8l-.1.1v.1h-.1l-.1.1v.1h-.1l-.2.1-.1.1h-.3l-.2-.1h-.2v-.2h-.4v-.2h-.2l-.2-.2-.2-.2h-.2v-.2h-.3l-.1-.1v-.1h-.2l-.1-.1-.1-.1-.1-.1-.1-.1h-.1l-.2-.1v-.1h-.1l-.1-.1-.2-.1-.2-.1v-.1h-.2v-.1l-.2-.1h-.8l-.1.1-.1.1v1.1h.1v.1l.2.1v.1l.2.1v.1l.2.1v.1l.2.1v.1l.1.1h.1v.1l.1.1h.2l.1.1v.1h.1l.1.1v.1h.1l.1.1h.1l.2.2h.1v.2h.2v.2h.1v.3l-.1.1-.2.1-.1.1h-1l-.2-.1-.1-.2h-.3v-.1l-.1-.1h-.2l-.1-.1v-.1h-.1l-.1-.1v-.1h-.1l-.1-.1-.1-.1h-.2v-.1l-.1-.1h-.2l-.2-.1-.1-.1h-.2l-.2-.1-.2-.1v-.1h-.2v-.5h-.1l-.1-.1-.1-.2h-.1l-.1-.2h-.1l-.1-.1-.1-.1h-.1l-.2-.1v-.1h-.1l-.2-.1-.2-.1-.1-.1-.2-.1-.2-.1v-.1l-.2-.1v-.2l-.2-.2-.2-.2-.2-.2-.1-.2h-.1l-.2-.2h-.3l-.1-.2h-.3l-.2-.1-.2-.1h-1.9l-.2-.1v-.1h-.1v-.1l-.1-.1h-.1v-.1l-.1-.1h-.1l-.2-.1-.2-.1h-.2l-.2-.1-.7-.1h-.7l-.3.1-.3.1h-.2l-.2.1h-.2l-.2.2h-.5l-.1-.1h-.1l-.2-.1-.1-.1h-.1l-.2-.1v-.1l-.1-.1v-.2l.1-.2v-.3q.2 0 .2-.2v-.4q0-.4.2-.3v-.4q.2.1.2-.4v-.6l.1-.2.1-.5v-.4l.1-.3.1-.2v-.6l.1-.6.1-.5v-.6l.1-.4.1-.5.1-.1h.1q0-.2.3-.2h.4q.3 0 .2-.2h.6v-.2h.5q.3 0 .2-.2h.3l.2-.1.2-.1h.1l.2-.1.2-.1h.2v-.1l.2-.1h.2l.2-.1.2-.1.2-.1.1-.1h.2l.2-.1.1-.1.3-.1.2-.1h.1l.1-.1zm-10 1.2h.5l.1.2h.2v.2l.1.1.1.1-.1.5-.1.4v.8l-.1.7v.3q0 .4-.2.3v1q-.3 0-.2.3v.8q0 .6-.2.5v.4q-.3 0-.2.3v.6q0 .2-.2.2v.5l-.1.2-.1.2v.2l-.1.2-.1.2v.3l-.1.1-.1.2v.4H97l-.2-.1q-.3 0-.2-.3l.1-.3v-.3l.1-.4.1-.2v-.2l.1-.2.1-.2v-.3l.1-.3.1-.1v-.2l.1-.4.1-.4.1-.2.1-.5v-.4l.1-.2v-.2q.3.1.2-.5v-.7q0-.4.2-.3V140q.3.1.2-.4v-1.8h.9m46.5 27.1-.1 21.2-.7.1h-1.9c-1.4 0-1.4 0-1.4-.2-.2 0-.2 0-.2-1.3l.1-1.4v-21.2l-.1-.7-.2-.2v-.4h-.2v-.2h-.2l-.1-.1-.2-.1-.1-.1-.2-.1h-.2l-11.5-.1H117q-.3 0-.3.2h-.2v.2h-.2v.1l-.2.1v.1l-.1.2-.1.2v.2l-.1.1-.1 12.3v12.3h-.1l-1.7.1-1.6.1h-.7l-.1-14.7V157h.3l.3.1h.2v.1h.3q.3 0 .2.2h1l.3-.1h.3l.2-.1.2-.1h.1l.1-.1v-.1h.2v-.1l.2-.1.2-.1v-.2h.2v-.2h.2v-.2h1q0-.2.3-.2h.5q.3 0 .3-.2h.2l.2-.1.2-.1.1-.1.2-.1h.1l.1-.1.2-.1.1-.1v-.1l.1-.1v-.2h.3v-.2h.1l.2-.1.1-.1h.2q.3 0 .2-.2h.3q0-.2.2-.2h.2v-.2h.3q0-.2.2-.2h.1l.1-.2h.1l.1-.1.1-.1.1-.1.1-.1.1-.1.1-.2v-.1h.1l.1-.1v-.2l.1-.1.1-.1v-.2l.1-.2.1-.2.1-.2q0-.2.3-.2h.2l.1-.2h.4v-.1l.1-.1h.2l.1-.1v-.1h.1l.1-.1v-.1h.1l.1-.1v-.1h.1l.1-.1v-.2l.1-.1h.1v-.1l.1-.2.1-.2v-.3l.1-.3.1-.3v-.3h.1v-.1h.2v.2h.2v.2h.2v.1l.2.1.2.1v.1h.2l.1.1 1.2.1h1l.3-.1h.2q-.1-.2.5-.2h.7l.1-.2h.8l.2-.1.2-.1h.3l.3-.1.2-.1h.1l.3-.1.4-.1h.2l.2-.1.2-.1h.3l.2-.1.2-.1h.2l.2-.1.2-.1h.3l.2-.1.2-.1h.3l.4-.1q.3 0 .2-.2h.6v-.2h.5q.4 0 .4-.2h.2q0-.2.3-.2h.4l.1-.2h.6v-.1l.2-.1h.2l.2-.1.3-.1h.2l.2-.1.1-.1h.3l.2-.1.2-.1.3-.1.2-.1h.1l.2-.1.2-.1h.3v-.1l.1-.1h.2l.2-.1h.1l.2-.2h.4q0-.2.2-.2h.2zm-41-15.8h.2l.1.1v.1h.1v.3h-.2v.2h-.2v.2q0 .2-.2.2v.2h-.2v.1l-.1.1h-.1v.1l-.1.1h-.1v.1l-.2.1h-.1l-.3.1h-.3l-.1-.2h-.1l-.1-.2v-.8h.1l.1-.1v-.1l.1-.1.1-.2.2-.1h.1v-.3zm-25.6.4h.4l.4.1h.2l.2.1h.5q.7 0 .6.2h.5q-.1.2.5.2h.8q.3 0 .3.2h1q0 .2.3.2h.8l.5.1.3.1h.4l.5.1.5.1h.3l.2.1.5.1h.5l.4.1.4.1h.4l.3.1.4.1h.3v.3l.1.4.1.4v1l.1 1 .1.6v.6l.1 1.4.1 1.4v.7l.1.6v1.3c0 1.3 0 1.4.2 1.4v1.7c.2 0 .2 0 .2.9l-.1 1h-.1l-.1.1h-.1l-.2.1-.1.1h-.1l-.2.1-.1.1h-.1l-.2.1v.1H91l-.2.1-.2.1h-.2l-.2.1H90q-.3 0-.2.2h-.3q0 .2-.3.2h-.4q-.3 0-.2.2h-.7l-.1.2h-.5l-.3.1-.2.1h-.2l-.4.1-.4.1h-.3l-.2.1-.8.1h-.8l-.1-.1h-.2q0-.2-.2-.2H83v-.2h-.2v-.1l-.2-.1h-.2v-.3l-.2-.1v-.1l-.1-.1H82v-.1l-.1-.1h-.1v-.2l-.1-.1-.1-.1-.1-.2-.1-.1-.1-.2h-.1v-.2l-.1-.2H81v-.2h-.1l-.1-.1v-.2l-.1-.1-.1-.1v-.2l-.1-.2-.1-.1-.1-.3v-.2H80v-.4q0-.2-.2-.2v-.2q-.2 0-.2-.3v-.4q0-.2-.2-.2v-.4q-.2 0-.2-.2v-.4l-.1-.2-.1-.2v-.3l-.1-.2-.1-.2v-.2l-.1-.3-.1-.2v-.2l-.1-.3-.1-.4v-.2l-.1-.2-.1-.3v-.3l-.1-.3-.1-.2v-4.4l.1-1.8.1-.8v-.8h.9m29.3.8h.2v.2h.1v.6l-.1.1-.1.2v.1h-.1l-.1.1v.1h-.1v.2l-.2.1v.1q-.2 0-.2.2v.1l-.2.2v.2h-.2v.2h-.1l-.1.1-.4.1h-.4l-.1-.1h-.2v-.1l-.1-.1-.1-.4v-.3l.1-.1.1-.2.1-.1v-.2h.1v-.2h.2v-.2h.2v-.2l.2-.2.2-.2.2-.1v-.1h.2l.2-.1.3-.1zm-11.2 0c0 .2 0 .2.9.2l1-.1h.3v.7l.1 1.4.1 1.4v.8l.1.8.1.3v.3l.1.7.1.8v.4l.1.3.1.2v.2h-.1l-.2.1v.1l-.4.1h-.2l-.4.1-.4.1H98l-.6.1-.8.1h-.9l-.3.1h-.3l-.1-.1v-.8l-.1-.8-.1-.9v-1l-.1-.7-.1-.8v-1.1l-.1-1.1-.1-.1.1-.3.1-.2h.2l.1-.2h.1l.1-.2h.4v-.4h.2v-.3l.2-.1zm13.7 2h.2v.1l.1.2v.6l-.1.1v.2l-.2.1v.3h-.2v.2l-.2.2v.1h-.2v.2h-.2v.1h-.8v-.2l-.1-.3v-.5q0-.2.2-.2v-.2h.2v-.2l.2-.1v-.3h.2v-.2h.2v-.1l.1-.1h.2l.2-.1zm-8 1.1.2.1.2.1h.2l.2.1.2.1.1.2v.1l.2.1v.3h.3v.3h.3v.1h.1q0 .2.2.2h.2l.2.2h.4q-.1.2.5.2h.5l.2.1v.1h.2v.3h.3v.2h.2v.2l.1.1.1.1.1.1.1.2.1.1v29.4l-1.8.1h-1.8l-1.9.1-1.8.1h-1.5l-1.4.1-1 .1h-.9l-1.3.1-1.3.1h-1.5v-2.4l.1-1.4V182c0-1.4 0-1.4.2-1.4l1-.1 1.1-.1h.2l.2-.1.3-.1h.3v-.1l.2-.1h.2l.2-.1.1-.1h.2l.1-.1.1-.1h.2l.1-.1.1-.1h.2v-.1l.1-.1.1-.1h.1v-.2h.2l.1-.2h.2v-.2h.2v-.2h.2v-.3h.4v-.3l.1-.1.1-.1.1-.2.1-.1v-.1h.1l.1-.2v-.1l.1-.1h.1v-.2l.1-.1h.1v-.2l.1-.2.1-.2.1-.2.1-.2v-.2h.1l.1-.1v-.2l.1-.2.1-.2v-.2l.1-.3v-.3q.3 0 .2-.3v-.6q0-.5.2-.4v-5l-.1-.4v-.4l-.1-.5-.1-.5v-.7l.1-.1.2-.1v-.3h.2v-.3q0-.2.2-.2v-.2c.2 0 .2 0 .2-1v-1h.1l.1-.2v-.1h.1l.1-.2.1-.2h.1v-.2l.1-.2.1-.1v-.2l.1-.2.1-.5v-.5l.1-.3v-1q0-1-.2-.8v-.2l.1-.4v-.3l-.1-.8v-.8q-.3.1-.2-.5l.1-.5.2-.2zm10.6.9h.3v.1h.1v.1l.1.2v.2h-.2v.2h-.7l-.1-.4v-.4l.1-.2h.4zm-72 3.3v1.5l-.1.7-.1.5v.4l-.1.7-.1.8v.3l-.1.3-.1.5v.6l-.1.4v.4q-.2-.2-.2.8l.1.7v.3l.1.3.1.2v.3h.3v.3h.1l.1.2h.2l.2.2h.2v.1l.2.1.2.1.2.1.1.1.2.1h.2l.2.1.1.1h.2l.2.1.2.1h.2l.1.1.2.1h.4v3.2l-.1.2H36l-.1-5.4-.1-5.3v-4.1l.1-.1h.1l2.8-.1zm179.5 0h.1v15h-6.9l-.1-.3-.1-.3v-.3l-.1-.3-.1-.6v-.6l-.1-.4v-.4l.2-.1.2-.1v-.1h.1l.1-.2h.3v-.4h.1v-.2l.1-.3.1-.4v-.3l.1-.3.1-.3v-.3l.1-.4.1-.3v-.2l.1-.3.1-.4v-.4l.1-.3.1-.4v-.4l.1-.5.1-.2v-.3l.1-.7v-.6q.2.1.2-.4v-1.4q0-1 .2-.9v-.6h.2l2.2-.1zm-59.4 4h.3l.2.1h.2l.1.1.3.1h.4l.2.1.2.1h.3l.4.1h.3q.3 0 .3.2h1q0 .2.3.2h.6q.5 0 .4.2h1.1q-.2.2.7.2h1.5l.7.1.6.1h.6l.8.1.8.1h.5l.5.1 1.3.1h1.2l4 .1h5.4c1.5 0 1.6 0 1.6-.2h1.1c0-.1 0-.2.8-.2h1.4q.7 0 .6-.2h1.1l.4-.1.5-.1h.3l.3-.1.6-.1h.5l.3-.1.2-.1h.5l.4-.1.2-.1h.2l.5-.1.5-.1h.2l.2-.1.2-.1h.3v.5h.1v.2l-.1.7v.7l.1 1.5v1.4q.2 0 .2.3v.4h.1l.1.3v.2l.1.1v.3l-.2.1v.1l-.1.1h-.1v.1l-.1.1-.1.1v.2h-.1l-.1.1-.1.1-.1.1-.1.1h-.1v.2l-.1.2h-.1l-.1.2-.1.2h-.1l-.1.2v.1l-.1.1h-.1v.2l-.1.1v.2l-.2.1v.3l-.2.1v.3h-.2v.5l-.2.1v.4l-.1.3-.1.1v.1l-.1.4-.1.3v.1l-.1.2-.1.2v.3l-.1.1-.1.2v.2l-.1.3-.1.1v.1l-.1.3-.1.3v.2l-.1.2-.1.8v.9l.1.1.1.1v.2l.1.2v.1h.2v.1l.2.2.2.2h.2v.2h.2q0 .2.2.2h.4l.2.1.9.1h.8l.2-.1.1.1.1.3v.2l-.1.3v.3l-.1.4-.1.5v.2l-.1.2-.1 1.1v1.1l.1.2q.2 0 .2.3v.2l.1.1h.1v.1l.1.1h.1v.1l.1.1h.1v.1l.1.1h.2l.1.1.1.1h.2l.2.1.2.1h.2l.2.1v7.9l-.1 4.3v4.7l.1 2.8v2.6c0 2.5 0 2.5.2 2.5v3.2c.2 0 .2 0 .2 9.3v9.2h-.2l-.1.1-.1.1-.3.1h-.3l-.3.1-.3.1h-.4l-.3.1-.4.1h-.5l-.4.1-.4.1h-5.1l-.4-.1-.7-.1h-.7l-.3-.1-.4-.1h-.4l-.4-.1h-.3q-.3 0-.3-.2h-.2v-.2q-.2.1-.2-.5v-.8q0-.2-.2-.2v-1.5l-.1-.3-.1-.3v-.8l-.1-.8-.1-.4v-.3l-.1-.8-.1-.8v-.3l-.1-.3-.1-.7v-.8l-.1-.5-.1-.5v-.6l-.1-.6-.1-.5v-.4l-.1-.5-.1-.6v-.6l-.1-.6-.1-.3v-.3l-.1-.7-.1-.8v-.3l-.1-.3v-.7q0-1-.2-.8v-.6q-.2.2-.2-.7v-1q0-.4-.2-.3v-1.3q-.2 0-.2-.3v-1q0-.7-.2-.6v-.9l-.1-.4-.1-.5v-.5l-.1-.4-.1-.4v-.4l-.1-.5-.1-.6v-.3l-.1-.3-.1-.6v-.6l-.1-.3-.1-.2v-.6l-.1-.6-.1-.3v-.2l-.1-.6-.1-.6v-.3l-.1-.3-.1-.4v-.5l-.1-.3v-.3q-.2.1-.2-.6v-.8q0-.4-.2-.3v-1q-.2.1-.2-.4v-.6q0-.4-.2-.3v-1q-.2 0-.2-.3v-.9l-.1-.5-.1-.3v-.3l-.1-.6-.1-.6v-.2l-.1-.1-.1-.6v-.6l-.1-.3-.1-.3v-.6l-.1-.5-.1-.3v-.3l-.1-.4-.1-.4v-.3l-.1-.3-.1-.3v-.4l-.1-.3-.1-.3v-.3l-.1-.3-.1-.3v-.3l-.1-.2v-.2q-.2.1-.2-.4v-.5l-.2-.2v-.4h-.2v-.3q0-.2-.2-.2v-.1h-.2v-.3l-.1-.1h-.1v-.1l-.1-.1h-.1v-.1l-.1-.1h-.1v-.1l-.1-.1h-.1v-.1l-.1-.1h-.1l-.1-.1-.2-.1-.1-.1-.1-.2h-.3l-.1-.2h-.2v-.2h-.5v-.2h-.3q-.2 0-.2-.2h-.3l-.2-.1-.2-.1h-.1l-.1-.1-.2-.1h-.2l-.2-.1v-.1h-1.3l-.1.1-.1.2h-.1v.2h-.1l-.1.3v.2l.1.2v.2l.2.1v.2h.2v.2h.2v.2h.2l.1.1h.1v.2h.3l.1.2h.3l.2.2h.1q0 .2.2.2h.2l.1.1.2.1.2.1.2.1v.1l.2.1.2.1v.1h.1l.1.1v.1h.1l.1.1v.2l.1.1.1.1v.2h.2v.4l.1.4.1.2v.3l-.1.6v.7q-.2-.2-.2.7v1.5q0 1-.2.8v1.5q-.2-.2-.2.8v1.5q0 1-.2.8v1.3l-.1 1.2-.1 1v.7l-.1.6-.1 1.3v1.3l-.1.7-.1.6v1.3l-.1 1.3-.1.8v.8l-.1 1.6-.1 1.6v.9l-.1 1-.1 1.8v2l-.1 1.4-.1 1.6v2l-.1 2-.1 1.2v1.3l-.1 1.7-.1 1.6v1.5l-.1 1.6v1.1c0 1.2 0 1.2-.2 1.2v2.3h-.2v.2l-.2.2h-.4q-.5 0-.4.2h-.9c0 .2 0 .2-2.4.2l-2.4-.1h-.4l-.5-.1-.7-.1h-.7l-.3-.1-.3-.1h-.4l-.5-.1-.3-.1h-.2l-.3-.1-.3-.1h-.2l-.1-.1-.2-.1h-.2l-.2-.1-.1-.1-.1-2-.1-1.9v-1.4l-.1-1.3-.1-2.5V220l-.1-1.8-.1-1.7v-1.4l-.1-1.5-.1-1.3V211l-.1-1.5-.1-1.5v-2l-.1-1.9V203c0-1.3 0-1.3-.2-1.3V197c-.2 0-.2 0-.2-1.3V191c0-3.5 0-3.5-.2-3.5v-3c-.2 0-.2 0-.2-10.5a122 122 0 0 1 .3-12.2h.4m-62.5.2.1.1v.7h-.1v.2H99q0 .2-.3.2h-.8l-.5.1-.7.1H96l-.3.1h-.3l-.1-.6v-.5h.2l.2-.1h.4l.4-.1.7-.1h.7l.5-.1.5-.1h.3m-22.4 1.3.1.2v.2l.1.1.1.2v.2l.1.2.1.2.1.1.1.2v.2l.1.2h.1v.3l.1.2.1.1v.1l.1.2.1.1v.1l.1.2.1.2v.2h.1v.1q.3 0 .2.2v.2l.2.1v.2l.2.2v.2h.2v.3l.1.1h.1v.2l.1.1.1.1.1.2.1.1v.1h.1l.1.1v.1h.1l.1.1v.2h.3v.4h.3l.1.2h.1l.1.2h.2l.2.1v.1l.2.1.2.1h.2l.1.1.2.1h.1l.3.1.2.1h.4l.4.1.6.1h.6l.5-.1h.4q-.2-.2.6-.2h.8q.3 0 .2-.2h.7q0-.2.2-.2h.4q.2 0 .2-.2h.9v5.2l-.1.8-.1.8v1.8l-.1 1.8-.1 1.2v1.3l-.1.3v.3l.1.1-.1 1.6-.1 1.5v1.4l-.1 1.5-.1 1.6v1.7l-.1 1.8-.1 1.7v1.3l-.1 1.2-.1 2v2l-.1 1v1c-.2 0-.2 0-.2 1.9v3.1c0 1.1 0 1.1-.2 1.1v4.9c-.2 0-.2 0-.2 1v3.1c0 2.2 0 2.2-.2 2.2v3l-.1 2.5-.1 2.5v.5l-.1.5h-.1l-.1.1H87l-.2.1-.3.1h-.3l-.4.1h-.2q-.4 0-.3.2h-.8q0 .2-.3.2h-1.1q-.9 0-.7.2h-1.2c0 .2 0 .2-2 .2l-2-.1h-.5l-.5-.1-.5-.1h-.5l-.2-.1-.1-.1-.1-.1-.1-.1v-.1l-.1-.2v-.8c0-.9-.1-.9-.2-.9v-1.9c-.2 0-.2 0-.2-2v-3.2c0-1.1 0-1.2-.2-1.2v-5.4c-.2 0-.2 0-.2-1.5v-4.1c0-2.6 0-2.7-.2-2.7V207l-.1-1.5-.1-1.4v-.9l-.1-.8-.1-1v-.9l-.1-1-.1-1v-.7l-.1-.7-.1-1v-.8l-.1-.6-.1-.6v-1.2l-.1-1.2-.1-.5v-.5l-.1-1.4-.1-1.3v-.6l-.1-.7-.1-1v-1.1l-.1-.5-.1-.6v-.8l-.1-.9V180l.1-.2v-.2l.1-.1.1-.2v-.2h.1l.1-.1.1-.2h.1l.1-.2h.2v-.2h.2v-.2h.2v-.1l.2-.1.2-.1v-.1h.2l.1-.1.2-.1h.1l.1-.1.1-.1.2-.1.1-.1h.2l.1-.1v-.1h.1l.2-.1.1-.1.1-.1h.2v-.4h.4v-.4h.2v-.7l-.1-.1-.1-.1-.1-.1-.1-.1-.1-.1h-.2l-.2-.1-.2-.1H75l-.3.1-.2.1h-.2l-.2.1h-.2v.2h-.3q0 .2-.2.2h-.3q-.2 0-.2.2h-.1q0 .2-.2.2h-.2l-.2.1-.1.1H72l-.1.1v.1h-.2l-.1.1v.1h-.2v.1h-.2v.3H71l-.2.1v.1l-.1.1-.1.1-.1.1-.1.1-.1.1h-.1v.2H70v.2h-.1l-.1.2-.1.2-.1.1v.2l-.1.2-.1.1v.2l-.1.2-.1.3v.4l-.1.2v.3q-.3 0-.2.3v.5q0 .2-.2.2v.8q-.2 0-.2.2v.7q0 .5-.2.4v.4q-.2-.1-.2.5v.7l-.1.3-.1.4v.5l-.1.3-.1.4v.6l-.1.6-.1.3v.4l-.1.4-.1.3v.4l-.1.4-.1.3v.3l-.1.6-.1.5v.3l-.1.2-.1.6v.5l-.1.2-.1.3v.5l-.1.6-.1.2v.3l-.1.6v.6q-.2 0-.2.3v.9q0 .6-.2.5v.5q-.3-.1-.2.5v.8q0 .4-.2.3v.8q-.2-.1-.2.4v.8l-.1.4-.1.5v.6l-.1.3-.1.3v.6l-.1.5-.1.4v.3l-.1.6-.1.6v.3l-.1.2-.1.7v.6l-.1.4-.1.3v.6l-.1.7-.1.3v.2l-.1.6-.1.6v.4l-.1.4v.5q0 .7-.2.6v1q-.2-.1-.2.4v1q0 .8-.2.6v.8q-.2-.2-.2.6v1q0 .4-.2.3v1.5l-.1.3-.1.4v.8l-.1.9-.1.4v.4l-.1.7-.1.8v.4l-.1.4-.1.8v.8l-.1.5-.1.6v.5l-.1.5-.1.4v.4l-.1.3-.1.4v.7h-.2l-.1.1h-.1v.1l-.2.1h-.1l-.3.1-.3.1h-.4l-.5.1-.8.1h-.8l-.4.1-.3.1h-4.9l-.5-.1-.6-.1h-.5l-.3-.1-.2-.1h-.4l-.4-.1h-.3q-.3 0-.2-.2H48v-.2l-.1-.5-.1-.5v-2.3l-.1-2.3-.1-.7v-.8l.1-4.2v-4.3c.2 0 .2 0 .2-3.1V211c0-1 0-1 .2-1v-5.8c.2 0 .2 0 .2-4.8l-.1-4.8v-4.1l-.1-4.2-.1-4.5v-4.5l-.1-2v-3.4c0-1.3 0-1.3.2-1.3v-.1h.7l.2.1h.4l.4.1.3.1h.3l.4.1.4.1h.3l.3.1.3.1h.4l.4.1.4.1h.2l.3.1.5.1h.5l.2.1.2.1h.8l.8.1.3.1h.4l.6.1.7.1h.3l.4.1h1c1 0 1 0 1 .2h2.1c0 .2 0 .2 1.4.2l1.3-.1h.5l.6-.1.5-.1h.5l.2-.1.2-.1h.3l.4-.1.1-.1h.1l.2-.1.2-.1.2-.1h.2l.2-.2.2-.2h.2v-.2h.3l.1-.2h.1l.1-.2h.3v-.1l.1-.1.1-.1.1-.1.1-.1.1-.1.1-.1v-.1h.2v-.3l.2-.1v-.1l.2-.1v-.2l.2-.1v-.2h.2v-.2h.1l.1-.2.1-.2h.1v-.1l.1-.2.1-.1v-.1l.1-.2.1-.1.1-.1.1-.2v-.1l.1-.1.1-.2.1-.2h.1v-.2h.1l.1-.2v-.2h.1l.1-.3v-.2l.1-.1v-.1l.2-.1v-.3l.2-.2v-.2q.2 0 .2-.2v-.4h.2v-.6l.2-.1v-.2h.3zm50.3 0v23h-8.5v-10.1l-.1-6.4v-6.4h.1v-.1h.1l4.2-.1zm11.4 0 .1 11.5v11.5h-8.5v-23h.1l4.2-.1zm-40.4 2.3h.2v.5l.2.1v.6q0 .5.2.5v1.1c.2 0 .2 0 .2 1.9l-.1 1.8v.3l-.1.3-.1.3v.3l-.1.1-.1.2v.2l-.1.3h-.1v.1l-.1.3-.1.3h-.1l-.1.3v.2h-.1l-.1.1v.2h-.1l-.1.1v.1l-.1.1-.1.2-.1.1-.2.1v.1l-.2.1v.1l-.2.1v.1l-.2.1v.1l-.2.1v.1H96l-.2.1-.1.2h-.4v.2h-.4q-.3 0-.3.2h-.4q.2.2-.7.2l-.7-.1-.1-1v-1.1h.4v.1h.3l.3.1.1.1h.2l.2.1h.4l.2-.2h.2l.1-.2h.1v-.2h.2v-.1q.2 0 .2-.2v-.1l.2-.1v-.3h.2v-.3l.1-.1.1-.1v-.2l.1-.2.1-.2v-.2l.1-.2.1-.2v-.3l.1-.2.1-.2v-.3l.1-.3.1-.3v-.3l.1-.2.1-.2v-.2l.1-.3.1-.6v-.6l-.1-.2-.1-.2H97l-.1-.2h-.2q0-.2-.3-.2l-.2.1h-.1l-.1.1-.1.1-.1.1-.1.1-.1.3-.1.3v.1l-.1.2-.1.2v.3l-.1.2-.1.2v.2l-.1.3-.1.2v.2l-.1.2-.1.2v.3l-.1.2-.1.2-.1.3v.2l-.2.1v.2H94v.1l-.3.1h-.3v-.3h-.1l-.1-.2v-.1l-.1-.4-.1-.3v-3.1h.2l.1-.1h.2q.3 0 .2-.2h.1q0-.2.2-.2h.2l.2-.2h.1v-.2h.2v-.2h.2v-.1l.1-.2.1-.1.1-.1v-.6q0-.6.2-.5v-.8h.2l.4-.1h.5l.4-.1.5-.1zm105.2 3.8h.5l.5.1.2.1h.3l.5.1.5.1h.3l.3.1h1.2c1.3 0 1.3 0 1.3.2h.8l.8-.1h.8v.7l.1.3.1.5v.5l.1.6.1.7v4.4l-.1.6v.3q0 .4-.2.3v.6l-.1.2-.1.3v.1l-.1.2-.1.2v.3l-.1.1-.1.1v.2l-.1.2-.1.2v.1l-.1.1-.1.2-.1.1-.1.1v.2h-.2v.2h-.2v.2l-.1-.2v-.2l.1-.2v-.2l.1-.5.1-.5v-.4l.1-.5.1-.3v-.3l-.1-.2-.1-.2v-.2l-.1-.2h-.1v-.2h-.9l-.2.1v.1l-.1.1-.1.2v.2l-.1.2-.1.2v.4l-.1.4-.1.2v.2l-.1.3-.1.3v.2l-.1.2-.1.2v.2l-.1.3-.1.3-.1.2-.1.2v.2l-.1.1-.1.2v.2l-.1.2-.1.1v.1l-.1.1-.2.1v.1l-.2.1v.1h-.2v.1h-.3q-.2 0-.2.2h-.2l-.1-.1v-.3l.1-.1v-.1l.2-.2v-.2l.1-.2.1-.2v-.2l.1-.2.1-.1v-.2l.1-.3.1-.3v-.2l.1-.2.1-.4v-.4l.1-.3.1-.2v-2l-.1-.2h-.2v-.2h-.2l-.2-.1h-.3l-.1.1v.1h-.1l-.1.1v.2l-.1.1-.1.1v.2l-.1.3-.1.3v.2l-.1.2-.1.4v.4l-.1.1-.1.2v.3l-.1.3-.1.2v.2l-.1.3-.1.3-.1.2v.2q0 .3-.2.2v.3l-.2.1v.2h-.2v.3q-.2 0-.2.2v.1h-.2v.3h-.7l-.1-.1-.1-.1-.1-.1v-.7h.1v-.6q0-.5.2-.4v-.4q.3.1.2-.5v-.6q0-.2.2-.2V180q.2 0 .2-.2v-1.2l.1-.8.1-.8v-.8l-.1-.4v-.4h-.1l-.1-.1v-.3h-.3l-.2-.1h-.2l-.1-.1h-.3l-.2.2h-.1v.2h-.2v.2h-.1v.2h-.2v.3q-.2 0-.2.2v.1l-.2.1v.4l-.2.1v.3q0 .2-.2.2l-.1.2-.1.2h-.1l-.1.2h-.1l-.1.2h-.1l-.1.1-.4.1h-.4v-.9l.1-.1.1-.2v-.2l.1-.3.1-.1v-.2l.1-.2v-.3l.2-.1v-.3q0-.2.2-.2v-.3q.2 0 .2-.3v-.4q0-.2.2-.2v-.2q.2 0 .2-.3v-.3l.1-.1.1-.2v-.2l.1-.2.1-.1v-.1l.1-.2h.1v-.1l.1-.1.1-.2h.1l.1-.2v-.2h.2v-.2h.2v-.2h.2v-.2l.1-.1.1-.1.1-.1v-.1h.2v-.3l.2-.1v-.1l.2-.1v-.1l.2-.1v-.1l.2-.1z"/><path d="M127.2 47.9h-.5q.1.2-.5.2h-.7l-.2.1-.2.1h-.3l-.1.1-.2.1h-.2l-.1.1-.2.1h-.2l-.2.1-.1.1h-.1l-.2.1-.1.1h-.1l-.2.1-.1.1-.1.1-.2.1h-.2v.1l-.2.1-.2.1-.2.2h-.2v.2h-.2v.2h-.3l-.1.2h-.1l-.1.1v.1h-.1l-.1.1v.1h-.2l-.1.1-.1.1-.1.1-.1.1-.1.1v.1h-.2v.2h-.2v.2l-.2.1v.2h-.2v.2q-.2 0-.2.2v.2h-.2v.2h-.1l-.1.2-.1.1-.1.2v.1h-.1l-.1.1v.2l-.1.1h-.1v.1l-.1.2-.1.2v.1h-.1l-.1.3v.2h-.2v.3l-.1.2-.1.2v.2l-.1.2v.2q-.3 0-.2.2v.4q0 .4-.2.3v1q-.2 0-.2.3v3.1l.1.3v.4l.1.4.1.2v.2l.1.3.1.2v.2l.1.2.1.2v.2l.1.2h.1v.2l.1.2.1.2v.2h.1l.1.2v.1l.1.2.2.1v.4h.2v.3l.2.1v.1l.2.1v.2l.2.1v.2h.2v.2h.1l.1.2h.3v.3l.1.1.1.1.1.1.1.1.1.1.1.1.1.1.1.1.1.1.1.1.2.1.2.1v.1l.2.1v.2h.2v.2h.2q.3 0 .2.2h.1q0 .2.2.2h.1l.1.2h.1l.3.1.2.1.1.1.1.1h.2l.1.1.1.1h.2l.2.1v.1h.2l.2.1.3.1h.1l.1.1.3.1h.3l.2.1.2.1h.2l.3.1h.3q.4 0 .4.2h1c0 .2 0 .2 1 .2l1-.1h.4l.5-.1.3-.1h.4l.3-.1.3-.1h.2V72l.4-.1h.2l.1-.1.2-.1h.2l.3-.1v-.1h.1l.2-.1h.2l.1-.2h.3l.2-.2.2-.2h.2v-.2h.4v-.2h.2l.1-.1.1-.1.1-.1.1-.1h.1l.2-.1v-.1h.1v-.1l.1-.1h.1v-.1l.2-.1h.1v-.3h.3V69h.3v-.2h.2v-.2q.2 0 .2-.2v-.2h.2V68l.2-.1v-.2l.1-.1.1-.1.1-.1.1-.1v-.1l.1-.2h.1l.1-.1.1-.2.1-.1.1-.2v-.2h.1l.1-.1v-.2l.1-.2h.1v-.1l.1-.2.1-.2V65h.1l.1-.3v-.2l.1-.2v-.2q.3 0 .2-.2v-.4l.2-.2V63q.3.1.2-.4v-.8q0-.6.2-.5V59l-.1-.4v-.3l-.1-.4-.1-.4v-.2l-.1-.3-.1-.3v-.2l-.1-.2-.1-.2v-.2h-.1l-.1-.3v-.2l-.1-.1-.1-.1V55l-.1-.2-.1-.1-.1-.2-.1-.1v-.2l-.1-.1V54l-.2-.2-.2-.2v-.2h-.2V53l-.2-.1v-.1l-.2-.1v-.3h-.1l-.1-.1-.1-.1-.1-.2h-.1l-.1-.1v-.1h-.1l-.1-.1v-.1h-.1l-.1-.1-.1-.2h-.1l-.1-.2h-.1q0-.2-.2-.2h-.2v-.1l-.1-.1-.2-.1v-.1h-.2v-.1l-.2-.1v-.1l-.2-.1-.2-.1v-.1h-.1l-.2-.1-.1-.1-.1-.1-.2-.1h-.1l-.1-.1-.2-.1h-.1l-.1-.1-.2-.1h-.1l-.1-.1h-.2v-.2h-.4q-.2 0-.2-.2h-.4l-.1-.2h-.4l-.3-.1-.2-.1h-.2l-.4-.1-.4-.1h-.3l-.2-.1-1.5-.1zm3 3h.3l.4.1h.2l.2.1.2.1h.3v.1l.1.1h.3l.3.1v.1l.3.1.2.1.1.1.2.1h.2v.1l.1.1h.1v.1h.2l.1.2h.1q0 .2.2.2h.2v.2h.1l.2.2.2.1v.1l.2.1v.1l.2.1v.1l.2.1v.1l.1.1.1.1v.1l.1.2h.1v.1h.1l.1.1v.2h.1l.1.2.1.2h.1v.2h.1l.1.2.1.2.1.1v.2l.1.1.1.1v.2l.1.2v.2l.2.1v.4q0 .3.2.3v.4q.3-.1.2.4v3.6l-.1.4v.2h-.1l-.1.4v.2l-.1.1-.1.2v.2l-.1.2-.1.1v.1l-.1.2-.1.1v.1l-.1.2h-.1v.2h-.1l-.1.2-.1.2-.2.2v.2h-.2v.2h-.2v.3l-.2.1v.1l-.1.1h-.1v.1l-.1.1h-.1v.1l-.1.1h-.1v.1l-.1.1h-.1v.1h-.1l-.1.2h-.3v.2h-.1l-.1.2h-.1q0 .2-.2.2h-.2v.2h-.3l-.2.1v.1h-.2l-.2.1v.1h-.2l-.1.1-.2.1h-.2l-.2.1v.1h-.1l-.3.1-.2.1h-.2l-.2.1-.5.1h-.5l-.3.1-.3.1h-1.9l-.2-.1-.5-.1h-.4l-.2-.1-.1-.1h-.3l-.2-.1-.2-.1-.3-.1h-.2l-.1-.2h-.2q-.3 0-.2-.2h-.3v-.2h-.2q-.3 0-.2-.2h-.2l-.1-.1V68h-.1l-.1-.1-.1-.1h-.2v-.1l-.1-.1h-.1l-.2-.1v-.1l-.2-.1v-.1l-.2-.1V67l-.2-.1v-.1l-.2-.1v-.1l-.2-.1v-.2h-.1l-.1-.2-.1-.2h-.1l-.1-.2-.1-.1v-.1h-.1l-.1-.2v-.1l-.1-.1h-.1v-.3l-.1-.2h-.1v-.1l-.1-.2-.1-.2-.1-.1-.1-.3v-.3h-.1v-.2q-.3 0-.2-.3v-.4q0-.2-.2-.2v-1c-.2 0-.2 0-.2-1.1l.1-1.2v-.6l.1-.5.1-.1v-.1l.1-.3.1-.3V57l.1-.1.1-.3v-.3h.2V56l.1-.2h.1v-.1l.1-.1.1-.2v-.1l.1-.1V55h.2v-.3l.2-.1v-.2l.2-.1v-.1l.2-.1V54l.1-.1h.1v-.2h.2v-.4h.4v-.1l.1-.1h.1V53l.1-.1h.1v-.1l.1-.1h.1l.1-.1.2-.1.1-.1.1-.1h.2v-.2h.2V52l.2-.1h.2v-.1l.2-.1h.1l.2-.1.1-.1.3-.1h.3v-.2h.4q.3 0 .3-.2h.4q-.1-.2.4-.2h3.5"/><path d="m128.2 52.6-.2.1-.2.2-.2.2q-.2 0-.2.3v7.3l.1.2v.1h.1l.1.1v.1h.1l.1.1v.1h.1l.1.1.1.1h.2v.1l.1.1h.1l.2.1v.1l.2.1v.1l.2.1q.3 0 .2.2h.2v.2h.2l.1.2h.1l.2.2h.2v.1l.2.1h.1l.1.1v.1h.2l.1.1.1.1.2.1.1.1h.2v.1l.4.1h.4V64h.2l.1-.2h.2v-.2l.1-.2.1-.1.1-.1v-.8l-.1-.1V62l-.2-.1v-.1l-.2-.1v-.1l-.2-.1h-.1l-.1-.1-.1-.2h-.1l-.1-.2h-.3v-.2h-.2v-.1l-.1-.1h-.1l-.1-.1-.2-.1-.1-.1v-.1h-.1l-.2-.1V60h-.2v-.2h-.2v-.2h-.2v-.2l-.2-.1v-2.9l-.1-2.8-.1-.3v-.2h-.1l-.1-.1h-.1l-.1-.1v-.1h-.1l-.2-.1-.1-.1zm-43.1 6.8-.2.1h-.3l-.3.1-.3.1h-.2l-.1.1h-.2q-.3 0-.2.2h-.1v.2H83v.2h-.2v.2h-.2v.8h.1v.2l.1.1.1.1h.1l.2.1.4.1h.4l.2-.1.3-.1h.1l.2-.1 1.2-.1h1.3l.2.1h.3l.1-.1h.1l.1-.1v-.2h.1l.1-.2.1-.4v-.3l-.2-.1V60H88l-.2-.1h-.1l-.2-.1-.1-.1H87l-.2-.1-.2-.1h-.2l-.7-.1zm-12.7.4h-.8q-.9 0-.7.2h-.4q0 .3-.2.2h-.5q-.3 0-.2.2h-.4l-.1.2h-.2v.1l-.2.1h-.2v.2H68v.4l-.1.5v.5h.1v.1h.1l.1.2h.1l.1.2h.3v.2l.1-.1h.2l.2-.1.2-.1h.2l.1-.1.2-.1h.2l.2-.1v-.1h.2l.2-.1.2-.1h.5l.6-.1 1-.1h1l.2-.1.3-.1.1-.1v-.1h.1l.1-.1v-.2l.1-.2.1-.2v-.2l-.1-.1-.1-.2-.1-.1-.3-.1-.2-.1h-.1l-.2-.1-.4-.1H73l-.3-.1zm13.1 3.8h-.2l-.2.1-.2.1-.1.1-.1.1-.1.1-.1.2v.1h-.1l-.1.1v.4l-.1.3-.1.5v.5l.1.4v.3h.2v.3h.2v.2h.2v.2h.2l.1.2h.1q0 .2.5.2l.5-.1h.1l.2-.1.1-.1h.1v-.1l.1-.2.1-.1.2-.1v-.4q.2 0 .2-.2V65l-.1-.2v-.2l-.1-.1H87v-.1l-.1-.1h-.1v-.1l-.1-.1h-.1V64h-.1q0-.2-.2-.2h-.1l-.1-.2zM72 64l-.2.1-.2.1v.1l-.2.1v.1l-.2.1v.1q-.2 0-.2.2v.5q0 .5-.2.4v.5l.1.6v.5l.1.1.1.2.1.2h.1v.2h.2v.2h.3l.2.1.2.1h.6l.2-.1h.2v-.2h.2V68q.2 0 .2-.2v-.1l.1-.1.1-.2v-.2l.1-.2.1-.1v-1.6l-.1-.2V65q0-.2-.2-.2v-.1l-.1-.1-.1-.1-.1-.1-.1-.1-.1-.1-.2-.1h-.2l-.4-.1zm8.1.4h-.2v.1l-.2.1v.2l-.2.1v.8l.1.2v.2l.1.3.1.4.1.1.1.3v.2l.1.2h.1v.4l.1.2.1.1v.2l.1.2.1.3v.1l.1.2.1.2v.2l.1.2.1.2v.2l.1.3v.2q0 .3.2.2v.5q.3 0 .2.3l-.1.4h-.1l-.1.2H81q0 .3-.2.2h-.6q-.5 0-.4.2h-1.3l-.1.2h-.1l-.1.2-.1.1-.1.2v.5l.1.1.1.2v.1h.3v.1l.2.1h.2v.1h2.4l.2-.1h.2l.2-.1.1-.1h.1l.1-.1v-.1h.2l.1-.1.1-.1.1-.1h.1v-.2h.2v-.2l.1-.2h.1v-.2l.1-.3.1-.2v-1.9l-.1-.4-.1-.1v-.1l-.1-.3v-.3l-.2-.1v-.3q0-.3-.2-.2v-.4q-.2 0-.2-.2V68q0-.2-.2-.2v-.2q-.2 0-.2-.3V67l-.1-.1-.1-.2v-.2l-.1-.2h-.1V66l-.1-.2-.1-.1v-.1l-.1-.2-.1-.1v-.1l-.1-.2-.1-.1v-.1l-.1-.1v-.1l-.3-.1h-.2l-.2-.1zm-6.9 13.1H73l-.2.2h-.2v1l.1.1v.1h.2v.2h.2v.2h.2l.2.1v.1l.3.1.2.1.1.1h.2q.3 0 .2.2h.1q0 .3.2.2h.4l.1.2h.4q0 .2.3.2h.4v.2h1l.3.1.4.1h2.1l.2-.1h.5q.6 0 .5-.2h.2l.2-.1.2-.1h.1l.2-.1.2-.1h.2v-.1l.1-.1.1-.1.2-.1h.1v-.3l.1-.1.1-.1v-1h-.2l-.1-.2H83l-.3-.1h-.4q-.3 0-.2.2h-.4l-.1.1-.1.1H81l-.3.1-.3.1h-.2l-1.2.1h-1.5q-.2 0-.2-.2h-.7q0-.2-.2-.2H76q-.4 0-.3-.2h-.3l-.1-.1-.1-.1H75l-.2-.1-.2-.1-.3-.1-.2-.1-.1-.1-.5-.1zm91.3-7.3h-.2q-.2 0-.2.2h-.2v.2h-.3v.2l-.1.1v.1h-.1l-.1.3v.2l-.1.1-.1.1v1.6l.1.1v.2q0 .3.2.2v.1l.2.2v.2h.2l.1.1.1.1.3.1.2.1h.8l.2-.1v-.1h.2v-.3l.2-.1V74q.2 0 .2-.2v-.3q0-.2.2-.2v-.5l.1-.4v-.7l-.1-.2-.1-.2-.1-.2-.1-.2-.1-.2h-.1v-.1l-.1-.1h-.2l-.1-.1-.1-.1h-.2l-.3-.1zm13.3.7h-.2l-.2.1-.1.1-.1.1-.1.1-.1.1-.1.1-.1.1-.1.1-.1.3v.3l-.1.2-.1.2V74l.1.2.1.2v.2l.1.1q.3 0 .2.2v.1l.2.2h.2v.2h1.4v-.1h.1l.1-.1V75h.1l.1-.1v-.1l.1-.1.1-.2v-.1l.1-.1v-.2l.2-.1v-.7q.2 0 .2-.3l-.1-.4v-.4l-.1-.3-.1-.1v-.2l-.1-.1-.1-.1-.1-.2h-.1l-.1-.2h-.1q0-.2-.3-.2zm-8.1 1-.2.1-.2.1-.1.1-.1.1-.1.3-.1.2h-.1l-.1.4v.2l-.1.1-.1.2v.2l-.1.3-.1.1v.2l-.1.2-.1.2-.1.2-.1.2-.1.3-.1.2v.1l-.1.1-.1.2v.2l-.1.2v.1q-.2 0-.2.2v.2l-.2.1v.4q-.2 0-.2.2v.5q0 .5-.2.4v.5l.1.3v.4h.2v.2l.1.2h.1l.1.2h.1l.1.2h.1l.1.2h.3v.1l.1.1h.2l.1.1.1.1h.2l.2.1.3.1h.1l.1.1.7.1h.7l.1-.1h.1l.1-.2h.1V81l.2-.2q.3 0 .2-.3l-.1-.3v-.1l-.1-.2h-.1v-.1h-.1l-.1-.1v-.1h-.3l-.3-.1-.1-.1h-.2l-.3-.1-.3-.1h-.2v-.1l-.2-.1h-.1v-.2l-.1-.2v-.5l.1-.3v-.1l.2-.1v-.4l.1-.2.1-.1v-.2l.1-.2.1-.1v-.2l.1-.2.1-.2v-.2l.1-.1.1-.2v-.2l.1-.2.1-.2v-.2l.1-.2.1-.4v-.3l.1-.1.1-.2V72l-.2-.1h-.1l-.2-.1v-.1zM176 84l-.2.1h-.1v.1l-.2.1v.1l-.2.1h-.2v.2h-.3l-.2.1-.1.2h-.4l-.1.2h-.6q-.4 0-.4.2h-.2c0 .2 0 .2-1.7.2l-1.8-.1h-.1l-.2-.1-.4-.1h-.3l-.1-.1-.2-.1h-.9l-.1.1-.2.2v.2q0 .3-.2.2v.4l.1.1v.2h.1l.1.1.1.1.1.1h.1l.2.1.1.1h.1l.2.1.1.1h.2l.2.1h.2q.3 0 .2.2h.8q0 .3.3.2h2.8l.3-.1h.4l.4-.1.1-.1h.2l.2-.1.3-.1h.1l.2-.1.1-.1h.2l.1-.1v-.1h.3l.2-.1v-.1h.1l.1-.1h.2v-.2h.1l.1-.2h.3v-.2h.1q.3 0 .2-.2v-.2h.2V85q.2 0 .2-.2l-.1-.3v-.1l-.1-.2h-.1l-.1-.1h-.2l-.4-.1zm-49 7.3h-.3l-.2.1h-.2l-.3.1-.1.1h-.2l-.1.1-.1.1h-.2v.1l-.2.1h-.2v.1l-.2.1-.2.1q-.3 0-.2.2h-.1q0 .2-.2.2h-.1l-.1.2h-.1l-.1.2h-.4v.3l-.1.1-.1.1-.1.1-.1.1-.1.1-.1.1-.1.1v.1l-.1.2-.2.1v.3h-.2v.2l-.2.2v.2q-.2 0-.2.2v.3q0 .3-.2.2v.2l-.1.4-.1.3v.3l-.1.2-.1 1.3v1.2l.1.3v.3q.2 0 .2.2v.4l.1.1.1.2v.2l.1.1h.1v.3l.1.2h.1l.1.2.1.2h.1l.1.2v.2h.1l.1.2.1.1.1.1.1.1.1.1.1.1.1.1.1.1.1.1.1.1v.1h.2v.1l.2.1.2.1v.1h.2v.1h.1l.1.2h.3v.2h.2q.3 0 .2.2h.2q0 .2.2.2h.2q.2 0 .2.2h.4l.2.1.3.1h.3l.2.1 1.3.1h1.3l.3-.1h.3q0-.2.2-.2h.4q.4 0 .3-.2h.3v-.1l.2-.1h.2v-.1l.2-.1h.2v-.2h.2l.1-.1.1-.1.2-.1.1-.1h.1v-.1l.1-.1h.1v-.1l.1-.1h.3v-.3h.3v-.2l.1-.2h.1l.1-.2h.1v-.2l.2-.1v-.1l.2-.2v-.3l.2-.1v-.1q.2 0 .2-.2v-.3h.2v-.6h.1l.1-.1v-.4l.1-.4.1-.3v-.2l.1-1v-1.4q0-.3-.2-.3v-.8h-.2v-.4l-.1-.2-.1-.1v-.2l-.1-.1-.1-.1V95l-.1-.1-.1-.1v-.2h-.1l-.1-.1v-.1l-.1-.2h-.1V94h-.1l-.1-.1-.1-.2h-.1v-.2h-.1l-.1-.2h-.1l-.1-.2h-.1l-.1-.1h-.2l-.1-.1v-.1h-.2v-.2h-.2v-.1l-.2-.1-.2-.1-.1-.1h-.2l-.1-.1-.1-.1h-.2v-.1l-.1-.1h-.2l-.2-.1-.1-.1h-.2l-.2-.1h-.3q0-.2-.2-.2zm2.6 2.9h.2l.3.1h.2l.2.1v.1h.1l.1.1.2.1.1.1h.1l.2.2h.1l.1.2h.2v.2h.2v.2h.2v.2l.2.1v.1l.2.2v.2h.2v.3l.1.2.1.2v.2h.1l.1.4v.4l.1.6v1q0 .4-.2.3v.2q-.2 0-.2.3v.2l-.1.1-.1.1v.2l-.1.1-.1.1v.1h-.1l-.1.2v.1l-.1.1h-.1v.1l-.1.1h-.1v.1l-.1.1h-.3v.3h-.3v.2h-.3q-.2 0-.2.2h-.1q0 .2-.2.2h-.4v.2h-2.5v-.1h-.2l-.2-.1-.2-.1h-.1l-.2-.1-.1-.1h-.1l-.1-.1v-.1h-.2l-.1-.1-.1-.1-.1-.1-.1-.1-.1-.1-.1-.1-.1-.1v-.1h-.2v-.2l-.2-.1v-.2h-.2v-.4h-.2v-.2l-.2-.1v-.4l-.1-.2-.1-.1v-.5l-.1-.4-.1-.3v-.3l.1-.5v-.5l.2-.1v-.4l.1-.2.1-.1v-.1h.1l.1-.2.1-.2h.1v-.2h.1l.1-.2.1-.1.1-.1.1-.1.1-.1.2-.1h.1v-.3h.3l.1-.1.2-.1.2-.1v-.1h.2l.2-.1.2-.1h.2l.3-.1 1-.1zm52.7 25.8q0 .3-.3.2h-.4l-.1.2q-.2 0-.2.2v.3q0 .3-.2.2v.5l.1.1v.2l.1.1.1.1v.1h.1l.1.1.1.2h.6q0 .3.3.2h8.8l.2-.1h.2v-.1l.1-.1h.1v-.1l.1-.2.1-.1.1-.1.1-.4v-.3l-.1-.1v-.2h-.2v-.2l-.2-.1v-.1l-.2-.1-.2-.1h-.3l-.6-.1-.7-.1h-7.6"/></svg>